<svg id="svg8" width="48.498mm" height="49.771mm" version="1.1" viewBox="0 0 48.498 49.771" xmlns="http://www.w3.org/2000/svg" xmlns:cc="http://creativecommons.org/ns#" xmlns:dc="http://purl.org/dc/elements/1.1/" xmlns:rdf="http://www.w3.org/1999/02/22-rdf-syntax-ns#" xmlns:xlink="http://www.w3.org/1999/xlink">
 <defs id="defs2">
  <g id="g1-9"></g>
  <g id="g1-2"></g>
  <g id="g7"></g>
  <g id="g5"></g>
  <g id="g6"></g>
  <g id="g1-56"></g>
  <g id="g1-3"></g>
  <g id="g2"></g>
  <g id="g1-93"></g>
  <g id="g5-7"></g>
  <g id="g5-9"></g>
  <g id="g5-3"></g>
  <g id="g2-7">
   <g id="glyph-0-0-36">
    <path id="path1-129" d="m2.1406-2.7656c0.32812 0 1.1406-0.03125 1.7031-0.25 0.90625-0.34375 1-1.0312 1-1.25 0-0.53125-0.45312-1-1.25-1-1.25 0-3.0625 1.125-3.0625 3.25 0 1.2656 0.71875 2.1406 1.8125 2.1406 1.625 0 2.6562-1.2656 2.6562-1.4219 0-0.078125-0.078125-0.14062-0.125-0.14062-0.03125 0-0.046875 0.015625-0.15625 0.125-0.76562 1.0156-1.8906 1.1875-2.3594 1.1875-0.67188 0-1.0312-0.53125-1.0312-1.4219 0-0.15625 0-0.46875 0.17188-1.2188zm-0.57812-0.25c0.51562-1.8438 1.6562-2.0156 2.0312-2.0156 0.53125 0 0.89062 0.3125 0.89062 0.76562 0 1.25-1.9219 1.25-2.4219 1.25z"/>
   </g>
   <g id="glyph-1-0-3">
    <path id="path2-1" d="m2.5-5.0781c0-0.21875-0.015625-0.21875-0.23438-0.21875-0.32812 0.3125-0.75 0.5-1.5 0.5v0.26562c0.21875 0 0.64062 0 1.1094-0.20312v4.0781c0 0.29688-0.03125 0.39062-0.78125 0.39062h-0.28125v0.26562c0.32812-0.03125 1.0156-0.03125 1.375-0.03125s1.0469 0 1.375 0.03125v-0.26562h-0.28125c-0.75 0-0.78125-0.09375-0.78125-0.39062z"/>
   </g>
  </g>
  <g id="g2-4">
   <g id="glyph-0-0-78">
    <path id="path1-4" d="m2.1406-2.7656c0.32812 0 1.1406-0.03125 1.7031-0.25 0.90625-0.34375 1-1.0312 1-1.25 0-0.53125-0.45312-1-1.25-1-1.25 0-3.0625 1.125-3.0625 3.25 0 1.2656 0.71875 2.1406 1.8125 2.1406 1.625 0 2.6562-1.2656 2.6562-1.4219 0-0.078125-0.078125-0.14062-0.125-0.14062-0.03125 0-0.046875 0.015625-0.15625 0.125-0.76562 1.0156-1.8906 1.1875-2.3594 1.1875-0.67188 0-1.0312-0.53125-1.0312-1.4219 0-0.15625 0-0.46875 0.17188-1.2188zm-0.57812-0.25c0.51562-1.8438 1.6562-2.0156 2.0312-2.0156 0.53125 0 0.89062 0.3125 0.89062 0.76562 0 1.25-1.9219 1.25-2.4219 1.25z"/>
   </g>
   <g id="glyph-1-0-5">
    <path id="path2-0" d="m2.25-1.625c0.125-0.125 0.45312-0.39062 0.59375-0.5 0.48438-0.45312 0.95312-0.89062 0.95312-1.6094 0-0.95312-0.79688-1.5625-1.7812-1.5625-0.96875 0-1.5938 0.71875-1.5938 1.4375 0 0.39062 0.3125 0.4375 0.42188 0.4375 0.17188 0 0.42188-0.10938 0.42188-0.42188 0-0.40625-0.40625-0.40625-0.5-0.40625 0.23438-0.59375 0.76562-0.78125 1.1562-0.78125 0.73438 0 1.125 0.625 1.125 1.2969 0 0.82812-0.57812 1.4375-1.5312 2.3906l-1 1.0469c-0.09375 0.078125-0.09375 0.09375-0.09375 0.29688h3.1406l0.23438-1.4219h-0.25c-0.015625 0.15625-0.078125 0.54688-0.17188 0.70312-0.046875 0.0625-0.65625 0.0625-0.78125 0.0625h-1.4219z"/>
   </g>
  </g>
  <g id="g3">
   <g id="glyph-0-0-10">
    <path id="path1-63" d="m5.2969-6.0156c0-1.2188-0.39062-2.4062-1.3594-2.4062-1.6719 0-3.4531 3.5156-3.4531 6.1406 0 0.54688 0.10938 2.4062 1.375 2.4062 1.625 0 3.4375-3.4219 3.4375-6.1406zm-3.625 1.6875c0.1875-0.70312 0.4375-1.7031 0.90625-2.5625 0.39062-0.71875 0.8125-1.2812 1.3438-1.2812 0.39062 0 0.65625 0.32812 0.65625 1.4844 0 0.42188-0.03125 1.0156-0.375 2.3594zm2.4375 0.35938c-0.29688 1.1719-0.54688 1.9219-0.98438 2.6719-0.34375 0.60938-0.76562 1.1719-1.2656 1.1719-0.35938 0-0.67188-0.28125-0.67188-1.4688 0-0.76562 0.20312-1.5781 0.39062-2.375z"/>
   </g>
   <g id="glyph-0-1-20">
    <path id="path2-61" d="m5.125-8.5156c0-0.015625 0.078125-0.20312 0.078125-0.21875 0-0.14062-0.125-0.23438-0.21875-0.23438-0.0625 0-0.17188 0-0.26562 0.26562l-4 11.25c0 0.015625-0.078125 0.1875-0.078125 0.21875 0 0.14062 0.125 0.21875 0.21875 0.21875 0.078125 0 0.1875-0.015625 0.26562-0.26562z"/>
   </g>
   <g id="glyph-1-0-55">
    <path id="path3-4" d="m5.2656-2.0156h-0.26562c-0.046875 0.20312-0.14062 0.875-0.25 1.0625-0.09375 0.10938-0.76562 0.10938-1.125 0.10938h-2.2188c0.32812-0.28125 1.0625-1.0469 1.3594-1.3281 1.8281-1.6719 2.5-2.2969 2.5-3.4844 0-1.375-1.0938-2.2969-2.4844-2.2969-1.375 0-2.2031 1.1875-2.2031 2.2188 0 0.60938 0.53125 0.60938 0.5625 0.60938 0.26562 0 0.5625-0.1875 0.5625-0.5625 0-0.34375-0.21875-0.5625-0.5625-0.5625-0.09375 0-0.125 0-0.15625 0.015625 0.21875-0.8125 0.875-1.375 1.6406-1.375 1.0156 0 1.6406 0.85938 1.6406 1.9531 0 1.0156-0.57812 1.9062-1.2656 2.6719l-2.4219 2.7031v0.28125h4.375z"/>
   </g>
  </g>
  <g id="g1-25">
   <g id="glyph-0-0-4">
    <path id="path1-74" d="m4.0781-0.6875c0.15625 0.65625 0.73438 0.8125 1.0156 0.8125 0.375 0 0.67188-0.25 0.85938-0.65625 0.20312-0.4375 0.35938-1.1406 0.35938-1.1719 0-0.0625-0.046875-0.10938-0.125-0.10938-0.10938 0-0.10938 0.0625-0.15625 0.23438-0.21875 0.82812-0.4375 1.4531-0.92188 1.4531-0.35938 0-0.35938-0.39062-0.35938-0.54688 0-0.26562 0.046875-0.39062 0.15625-0.89062 0.09375-0.32812 0.17188-0.65625 0.25-0.98438l0.48438-1.9531c0.078125-0.29688 0.078125-0.3125 0.078125-0.35938 0-0.17188-0.14062-0.29688-0.3125-0.29688-0.34375 0-0.4375 0.29688-0.5 0.60938-0.125 0.45312-0.76562 3.0312-0.85938 3.4531 0 0-0.46875 0.96875-1.3438 0.96875-0.625 0-0.75-0.53125-0.75-0.96875 0-0.6875 0.34375-1.6406 0.65625-2.4375 0.14062-0.39062 0.20312-0.54688 0.20312-0.78125 0-0.51562-0.375-0.95312-0.95312-0.95312-1.0938 0-1.5312 1.7344-1.5312 1.8281 0 0.046875 0.046875 0.10938 0.125 0.10938 0.10938 0 0.125-0.046875 0.17188-0.21875 0.28125-1.0312 0.75-1.4844 1.2031-1.4844 0.125 0 0.3125 0.015625 0.3125 0.39062 0 0.3125-0.125 0.65625-0.3125 1.1094-0.53125 1.4219-0.57812 1.875-0.57812 2.2344 0 1.2188 0.90625 1.4219 1.4062 1.4219 0.76562 0 1.1875-0.53125 1.4219-0.8125z"/>
   </g>
  </g>
  <g id="g4">
   <g id="glyph-0-0-786">
    <path id="path1-88" d="m5.3281-4.8125c0.23438 0 0.34375 0 0.34375-0.21875 0-0.125-0.10938-0.125-0.3125-0.125h-0.96875c0.21875-1.2344 0.39062-2.0781 0.48438-2.4531 0.078125-0.29688 0.32812-0.5625 0.64062-0.5625 0.25 0 0.5 0.10938 0.60938 0.21875-0.45312 0.046875-0.60938 0.39062-0.60938 0.59375 0 0.23438 0.1875 0.375 0.40625 0.375 0.25 0 0.60938-0.20312 0.60938-0.65625 0-0.5-0.5-0.78125-1.0312-0.78125-0.51562 0-1.0156 0.39062-1.25 0.85938-0.21875 0.42188-0.34375 0.84375-0.60938 2.4062h-0.8125c-0.21875 0-0.34375 0-0.34375 0.21875 0 0.125 0.078125 0.125 0.3125 0.125h0.76562c-0.21875 1.125-0.70312 3.8281-0.98438 5.0938-0.20312 1.0469-0.375 1.9219-0.96875 1.9219-0.046875 0-0.39062 0-0.60938-0.23438 0.60938-0.046875 0.60938-0.5625 0.60938-0.57812 0-0.25-0.17188-0.39062-0.40625-0.39062s-0.59375 0.20312-0.59375 0.65625c0 0.51562 0.53125 0.78125 1 0.78125 1.2188 0 1.7188-2.1875 1.8438-2.7812 0.21875-0.92188 0.79688-4.1094 0.85938-4.4688z"/>
   </g>
   <g id="glyph-0-1-43">
    <path id="path2-14" d="m4.0781-0.6875c0.15625 0.65625 0.73438 0.8125 1.0156 0.8125 0.375 0 0.67188-0.25 0.85938-0.65625 0.20312-0.4375 0.35938-1.1406 0.35938-1.1719 0-0.0625-0.046875-0.10938-0.125-0.10938-0.10938 0-0.10938 0.0625-0.15625 0.23438-0.21875 0.82812-0.4375 1.4531-0.92188 1.4531-0.35938 0-0.35938-0.39062-0.35938-0.54688 0-0.26562 0.046875-0.39062 0.15625-0.89062 0.09375-0.32812 0.17188-0.65625 0.25-0.98438l0.48438-1.9531c0.078125-0.29688 0.078125-0.3125 0.078125-0.35938 0-0.17188-0.14062-0.29688-0.3125-0.29688-0.34375 0-0.4375 0.29688-0.5 0.60938-0.125 0.45312-0.76562 3.0312-0.85938 3.4531 0 0-0.46875 0.96875-1.3438 0.96875-0.625 0-0.75-0.53125-0.75-0.96875 0-0.6875 0.34375-1.6406 0.65625-2.4375 0.14062-0.39062 0.20312-0.54688 0.20312-0.78125 0-0.51562-0.375-0.95312-0.95312-0.95312-1.0938 0-1.5312 1.7344-1.5312 1.8281 0 0.046875 0.046875 0.10938 0.125 0.10938 0.10938 0 0.125-0.046875 0.17188-0.21875 0.28125-1.0312 0.75-1.4844 1.2031-1.4844 0.125 0 0.3125 0.015625 0.3125 0.39062 0 0.3125-0.125 0.65625-0.3125 1.1094-0.53125 1.4219-0.57812 1.875-0.57812 2.2344 0 1.2188 0.90625 1.4219 1.4062 1.4219 0.76562 0 1.1875-0.53125 1.4219-0.8125z"/>
   </g>
   <g id="glyph-1-0-92">
    <path id="path3-0" d="m3.8906 2.9062c0-0.03125 0-0.0625-0.20312-0.26562-1.2031-1.2031-1.875-3.1719-1.875-5.6094 0-2.3281 0.5625-4.3281 1.9531-5.7344 0.125-0.10938 0.125-0.125 0.125-0.17188 0-0.0625-0.0625-0.09375-0.10938-0.09375-0.15625 0-1.1406 0.85938-1.7188 2.0312-0.60938 1.2188-0.89062 2.4844-0.89062 3.9688 0 1.0625 0.17188 2.4844 0.78125 3.75 0.71875 1.4375 1.6875 2.2188 1.8281 2.2188 0.046875 0 0.10938-0.03125 0.10938-0.09375z"/>
   </g>
   <g id="glyph-1-1-6">
    <path id="path4-8" d="m3.375-2.9688c0-0.92188-0.125-2.3906-0.79688-3.7812-0.70312-1.4375-1.6875-2.2188-1.8125-2.2188-0.046875 0-0.10938 0.03125-0.10938 0.09375 0 0.046875 0 0.0625 0.20312 0.26562 1.2031 1.2031 1.8594 3.1875 1.8594 5.625 0 2.3125-0.5625 4.3125-1.9375 5.7188-0.125 0.10938-0.125 0.14062-0.125 0.17188 0 0.0625 0.0625 0.09375 0.10938 0.09375 0.15625 0 1.1406-0.85938 1.7188-2.0312 0.60938-1.2188 0.89062-2.5156 0.89062-3.9375z"/>
   </g>
  </g>
 </defs>
 <metadata id="metadata5">
  <rdf:RDF>
   <cc:Work rdf:about="">
    <dc:format>image/svg+xml</dc:format>
    <dc:type rdf:resource="http://purl.org/dc/dcmitype/StillImage"/>
    <dc:title/>
   </cc:Work>
  </rdf:RDF>
 </metadata>
 <g id="layer1" transform="translate(-213.01 -149.75)">
  <path id="path1" d="m213.14 192.77 47.461-23.487" fill="none" stroke="#000" stroke-linecap="round" stroke-linejoin="round" stroke-width=".25562" style="paint-order:markers stroke fill"/>
  <g id="path2" transform="matrix(1.8201 0 0 1.8201 -174.7 -163.63)">
   <g id="g16">
    <g id="g17" transform="matrix(.30244 0 0 .30244 233.38 192.81)">
     <path id="path16" d="m-1.6035-2.3672a0.3 0.3 0 0 0-0.24609 0.34375c0.090081 0.5405 0.52008 1.0234 0.96094 1.4473 0.22043 0.21195 0.44822 0.40042 0.65039 0.54883 0.0178 0.013066 0.029738 0.014941 0.046875 0.027344-0.017138 0.012402-0.029074 0.014277-0.046875 0.027344-0.20217 0.1484-0.42996 0.33687-0.65039 0.54883-0.44086 0.42391-0.87086 0.90677-0.96094 1.4473a0.3 0.3 0 0 0 0.24609 0.34375 0.3 0.3 0 0 0 0.3457-0.24609c0.039429-0.23658 0.38419-0.72578 0.78516-1.1113 0.20048-0.19277 0.41158-0.36719 0.58984-0.49805s0.34401-0.21949 0.36523-0.22656a0.30003 0.30003 0 0 0 0-0.57031c-0.021227-0.0070754-0.18697-0.095707-0.36523-0.22656s-0.38936-0.30527-0.58984-0.49805c-0.40097-0.38555-0.74573-0.87475-0.78516-1.1113a0.3 0.3 0 0 0-0.3457-0.24609z" stop-color="#000000" stroke-linecap="round" stroke-linejoin="round" stroke-miterlimit="10"/>
    </g>
   </g>
   <path id="path18" d="m219.16 192.73a0.07022 0.07022 0 0 0-0.0703 0.0703 0.07022 0.07022 0 0 0 0.0703 0.0703h14.227a0.07022 0.07022 0 0 0 0.0703-0.0703 0.07022 0.07022 0 0 0-0.0703-0.0703z" stop-color="#000000" stroke-linecap="round" stroke-linejoin="round" style="paint-order:markers stroke fill"/>
  </g>
  <g id="path3" transform="matrix(1.8201 0 0 1.8201 -174.7 -163.63)">
   <g id="g26">
    <g id="g27" transform="matrix(0 -.30244 .30244 0 219.16 178.58)">
     <path id="path26" d="m-1.6035-2.3672a0.3 0.3 0 0 0-0.24609 0.34375c0.090081 0.5405 0.52008 1.0234 0.96094 1.4473 0.22043 0.21195 0.44822 0.40042 0.65039 0.54883 0.0178 0.013066 0.029738 0.014941 0.046875 0.027344-0.017138 0.012402-0.029074 0.014277-0.046875 0.027344-0.20217 0.1484-0.42996 0.33687-0.65039 0.54883-0.44086 0.42391-0.87086 0.90677-0.96094 1.4473a0.3 0.3 0 0 0 0.24609 0.34375 0.3 0.3 0 0 0 0.3457-0.24609c0.039429-0.23658 0.38419-0.72578 0.78516-1.1113 0.20048-0.19277 0.41158-0.36719 0.58984-0.49805s0.34401-0.21949 0.36523-0.22656a0.30003 0.30003 0 0 0 0-0.57031c-0.021227-0.0070754-0.18697-0.095707-0.36523-0.22656s-0.38936-0.30527-0.58984-0.49805c-0.40097-0.38555-0.74573-0.87475-0.78516-1.1113a0.3 0.3 0 0 0-0.3457-0.24609z" stop-color="#000000" stroke-linecap="round" stroke-linejoin="round" stroke-miterlimit="10"/>
    </g>
   </g>
   <path id="path28" d="m219.16 178.51a0.07022 0.07022 0 0 0-0.0703 0.0703v14.227a0.07022 0.07022 0 0 0 0.0703 0.0703 0.07022 0.07022 0 0 0 0.0703-0.0703v-14.227a0.07022 0.07022 0 0 0-0.0703-0.0703z" stop-color="#000000" stroke-linecap="round" stroke-linejoin="round" style="paint-order:markers stroke fill"/>
  </g>
  <g id="path8" transform="matrix(1.8201 0 0 1.8201 -174.7 -163.63)">
   <g id="g19">
    <g id="g20" transform="matrix(-.13616 -.27006 .27006 -.13616 225.62 189.65)">
     <path id="path19" d="m-1.6035-2.3672a0.3 0.3 0 0 0-0.24609 0.34375c0.090081 0.5405 0.52008 1.0234 0.96094 1.4473 0.22043 0.21195 0.44822 0.40042 0.65039 0.54883 0.0178 0.013066 0.029738 0.014941 0.046875 0.027344-0.017138 0.012402-0.029074 0.014277-0.046875 0.027344-0.20217 0.1484-0.42996 0.33687-0.65039 0.54883-0.44086 0.42391-0.87086 0.90677-0.96094 1.4473a0.3 0.3 0 0 0 0.24609 0.34375 0.3 0.3 0 0 0 0.3457-0.24609c0.039429-0.23658 0.38419-0.72578 0.78516-1.1113 0.20048-0.19277 0.41158-0.36719 0.58984-0.49805s0.34401-0.21949 0.36523-0.22656a0.30003 0.30003 0 0 0 0-0.57031c-0.021227-0.0070754-0.18697-0.095707-0.36523-0.22656s-0.38936-0.30527-0.58984-0.49805c-0.40097-0.38555-0.74573-0.87475-0.78516-1.1113a0.3 0.3 0 0 0-0.3457-0.24609z" stop-color="#000000" stroke-linecap="round" stroke-linejoin="round" stroke-miterlimit="10"/>
    </g>
   </g>
   <path id="path21" d="m225.59 189.58a0.07022 0.07022 0 0 0-0.0312 0.0937c0.5095 1.0106 0.73989 1.9008 0.72461 3.127a0.07022 0.07022 0 0 0 0.0684 0.0703 0.07022 0.07022 0 0 0 0.0723-0.0684c0.0155-1.2446-0.2214-2.1662-0.73828-3.1914a0.07022 0.07022 0 0 0-0.0957-0.0312z" stop-color="#000000" stroke-linecap="round" stroke-linejoin="round" style="paint-order:markers stroke fill"/>
  </g>
  <g id="path9" transform="matrix(1.8201 0 0 1.8201 -174.7 -163.63)" fill="#00f">
   <g id="path29">
    <g id="g31">
     <g id="g32" transform="matrix(.29428 .06981 -.06981 .29428 238.71 197.4)" fill="#00f">
      <path id="path31" d="m-1.6035-2.3672a0.3 0.3 0 0 0-0.24609 0.34375c0.090081 0.5405 0.52008 1.0234 0.96094 1.4473 0.22043 0.21195 0.44822 0.40042 0.65039 0.54883 0.0178 0.013066 0.029738 0.014941 0.046875 0.027344-0.017138 0.012402-0.029074 0.014277-0.046875 0.027344-0.20217 0.1484-0.42996 0.33687-0.65039 0.54883-0.44086 0.42391-0.87086 0.90677-0.96094 1.4473a0.3 0.3 0 0 0 0.24609 0.34375 0.3 0.3 0 0 0 0.3457-0.24609c0.039429-0.23658 0.38419-0.72578 0.78516-1.1113 0.20048-0.19277 0.41158-0.36719 0.58984-0.49805s0.34401-0.21949 0.36523-0.22656a0.30003 0.30003 0 0 0 0-0.57031c-0.021227-0.0070754-0.18697-0.095707-0.36523-0.22656s-0.38936-0.30527-0.58984-0.49805c-0.40097-0.38555-0.74573-0.87475-0.78516-1.1113a0.3 0.3 0 0 0-0.3457-0.24609z" fill="#00f" stop-color="#000000" stroke-linecap="round" stroke-linejoin="round" stroke-miterlimit="10"/>
     </g>
    </g>
    <path id="path33" d="m219.15 192.68a0.07022 0.07022 0 0 0-0.084 0.0527 0.07022 0.07022 0 0 0 0.0527 0.084l19.572 4.6426a0.07022 0.07022 0 0 0 0.084-0.0508 0.07022 0.07022 0 0 0-0.0527-0.0859z" stop-color="#000000" stroke-linecap="round" stroke-linejoin="round" style="paint-order:markers stroke fill"/>
   </g>
   <g id="path30">
    <g id="g34">
     <g id="g35" transform="matrix(.11833 -.27833 .27833 .11833 227.06 174.25)" fill="#00f">
      <path id="path34" d="m-1.6035-2.3672a0.3 0.3 0 0 0-0.24609 0.34375c0.090081 0.5405 0.52008 1.0234 0.96094 1.4473 0.22043 0.21195 0.44822 0.40042 0.65039 0.54883 0.0178 0.013066 0.029738 0.014941 0.046875 0.027344-0.017138 0.012402-0.029074 0.014277-0.046875 0.027344-0.20217 0.1484-0.42996 0.33687-0.65039 0.54883-0.44086 0.42391-0.87086 0.90677-0.96094 1.4473a0.3 0.3 0 0 0 0.24609 0.34375 0.3 0.3 0 0 0 0.3457-0.24609c0.039429-0.23658 0.38419-0.72578 0.78516-1.1113 0.20048-0.19277 0.41158-0.36719 0.58984-0.49805s0.34401-0.21949 0.36523-0.22656a0.30003 0.30003 0 0 0 0-0.57031c-0.021227-0.0070754-0.18697-0.095707-0.36523-0.22656s-0.38936-0.30527-0.58984-0.49805c-0.40097-0.38555-0.74573-0.87475-0.78516-1.1113a0.3 0.3 0 0 0-0.3457-0.24609z" fill="#00f" stop-color="#000000" stroke-linecap="round" stroke-linejoin="round" stroke-miterlimit="10"/>
     </g>
    </g>
    <path id="path36" d="m227.08 174.19a0.07022 0.07022 0 0 0-0.0937 0.0371l-7.8691 18.514a0.07022 0.07022 0 0 0 0.0371 0.0918 0.07022 0.07022 0 0 0 0.0918-0.0371l7.8711-18.512a0.07022 0.07022 0 0 0-0.0371-0.0937z" stop-color="#000000" stroke-linecap="round" stroke-linejoin="round" style="paint-order:markers stroke fill"/>
   </g>
  </g>
  <path id="path11" d="m237.11 149.88 24.4 49.305" fill="none" stroke="#000" stroke-dasharray="0.255623, 1.27812" stroke-linecap="round" stroke-linejoin="round" stroke-width=".25562" style="paint-order:markers stroke fill"/>
  <use id="use2" transform="matrix(.32494 0 0 .32494 246.29 184.6)" x="11.955" y="17.103001" fill="#000000" xlink:href="#glyph-0-0-36"/>
  <use id="use3" transform="matrix(.32494 0 0 .32494 246.29 184.6)" x="17.381001" y="18.896" fill="#000000" xlink:href="#glyph-1-0-3"/>
  <use id="use2-3" transform="matrix(.34924 0 0 .34924 221.32 159.36)" x="11.955" y="17.103001" fill="#000000" xlink:href="#glyph-0-0-78"/>
  <use id="use3-6" transform="matrix(.34924 0 0 .34924 221.32 159.36)" x="17.381001" y="18.896" fill="#000000" xlink:href="#glyph-1-0-5"/>
  <use id="use3-7" transform="matrix(.3073 0 0 .3073 234.5 178.53)" x="11.955" y="20.922001" fill="#000000" xlink:href="#glyph-0-0-10"/>
  <use id="use4" transform="matrix(.3073 0 0 .3073 234.5 178.53)" x="17.732948" y="20.922001" fill="#000000" xlink:href="#glyph-0-1-20"/>
  <use id="use5" transform="matrix(.3073 0 0 .3073 234.5 178.53)" x="23.586214" y="20.922001" fill="#000000" xlink:href="#glyph-1-0-55"/>
  <use id="use1" transform="matrix(.37295 0 0 .37295 250.7 193.09)" x="11.955" y="17.103001" fill="#0000ff" xlink:href="#glyph-0-0-4"/>
  <use id="use4-6" transform="matrix(.28931 0 0 .28931 226.02 148.07)" x="11.955" y="20.922001" fill="#0000ff" xlink:href="#glyph-0-0-786"/>
  <use id="use5-4" transform="matrix(.28931 0 0 .28931 226.02 148.07)" x="19.003786" y="20.922001" fill="#0000ff" xlink:href="#glyph-1-0-92"/>
  <use id="use6" transform="matrix(.28931 0 0 .28931 226.02 148.07)" x="23.556326" y="20.922001" fill="#0000ff" xlink:href="#glyph-0-1-43"/>
  <use id="use7" transform="matrix(.28931 0 0 .28931 226.02 148.07)" x="30.21896" y="20.922001" fill="#0000ff" xlink:href="#glyph-1-1-6"/>
 </g>
</svg>
