<svg id="svg8" width="61.948mm" height="50.77mm" version="1.1" viewBox="0 0 61.948 50.77" xmlns="http://www.w3.org/2000/svg" xmlns:cc="http://creativecommons.org/ns#" xmlns:dc="http://purl.org/dc/elements/1.1/" xmlns:rdf="http://www.w3.org/1999/02/22-rdf-syntax-ns#" xmlns:xlink="http://www.w3.org/1999/xlink">
 <defs id="defs2">
  <g id="g1-9"></g>
  <g id="g1-2"></g>
  <g id="g7"></g>
  <g id="g5"></g>
  <g id="g6"></g>
  <g id="g1-56"></g>
  <g id="g1-3"></g>
  <g id="g2"></g>
  <g id="g1-93"></g>
  <g id="g5-7"></g>
  <g id="g5-9"></g>
  <g id="g5-3"></g>
  <g id="g1-28">
   <g id="glyph-0-0-97">
    <path id="path1-36" d="m3.3594-8c0.015625-0.046875 0.03125-0.10938 0.03125-0.17188 0-0.125-0.10938-0.125-0.14062-0.125-0.015625 0-0.4375 0.03125-0.65625 0.0625-0.20312 0.015625-0.375 0.03125-0.59375 0.046875-0.29688 0.03125-0.375 0.03125-0.375 0.25 0 0.125 0.125 0.125 0.23438 0.125 0.60938 0 0.60938 0.10938 0.60938 0.21875 0 0.046875 0 0.078125-0.046875 0.29688l-1.7188 6.8281c-0.046875 0.1875-0.046875 0.20312-0.046875 0.28125 0 0.26562 0.20312 0.3125 0.32812 0.3125 0.32812 0 0.40625-0.26562 0.5-0.64062l0.5625-2.2344c0.85938 0.09375 1.375 0.45312 1.375 1.0312 0 0.0625 0 0.10938-0.046875 0.29688-0.046875 0.17188-0.046875 0.32812-0.046875 0.375 0 0.70312 0.46875 1.1719 1.0781 1.1719 0.54688 0 0.82812-0.5 0.92188-0.67188 0.25-0.4375 0.40625-1.1094 0.40625-1.1562 0-0.0625-0.046875-0.10938-0.10938-0.10938-0.10938 0-0.125 0.046875-0.17188 0.23438-0.17188 0.625-0.42188 1.4531-1.0312 1.4531-0.23438 0-0.39062-0.10938-0.39062-0.5625 0-0.23438 0.046875-0.5 0.09375-0.67188 0.046875-0.21875 0.046875-0.23438 0.046875-0.375 0-0.70312-0.64062-1.0938-1.7344-1.2344 0.4375-0.26562 0.85938-0.73438 1.0312-0.92188 0.67188-0.76562 1.1406-1.1406 1.6875-1.1406 0.28125 0 0.35938 0.078125 0.4375 0.14062-0.4375 0.046875-0.60938 0.35938-0.60938 0.59375 0 0.29688 0.23438 0.39062 0.39062 0.39062 0.32812 0 0.60938-0.28125 0.60938-0.65625 0-0.34375-0.26562-0.70312-0.8125-0.70312-0.65625 0-1.1875 0.45312-2.0469 1.4219-0.10938 0.14062-0.5625 0.59375-1 0.76562z"/>
   </g>
  </g>
  <g id="g2-9">
   <g id="glyph-0-0-319">
    <path id="path1-4" d="m2.1406-2.7656c0.32812 0 1.1406-0.03125 1.7031-0.25 0.90625-0.34375 1-1.0312 1-1.25 0-0.53125-0.45312-1-1.25-1-1.25 0-3.0625 1.125-3.0625 3.25 0 1.2656 0.71875 2.1406 1.8125 2.1406 1.625 0 2.6562-1.2656 2.6562-1.4219 0-0.078125-0.078125-0.14062-0.125-0.14062-0.03125 0-0.046875 0.015625-0.15625 0.125-0.76562 1.0156-1.8906 1.1875-2.3594 1.1875-0.67188 0-1.0312-0.53125-1.0312-1.4219 0-0.15625 0-0.46875 0.17188-1.2188zm-0.57812-0.25c0.51562-1.8438 1.6562-2.0156 2.0312-2.0156 0.53125 0 0.89062 0.3125 0.89062 0.76562 0 1.25-1.9219 1.25-2.4219 1.25z"/>
   </g>
   <g id="glyph-1-0-7">
    <path id="path2-84" d="m2.25-1.625c0.125-0.125 0.45312-0.39062 0.59375-0.5 0.48438-0.45312 0.95312-0.89062 0.95312-1.6094 0-0.95312-0.79688-1.5625-1.7812-1.5625-0.96875 0-1.5938 0.71875-1.5938 1.4375 0 0.39062 0.3125 0.4375 0.42188 0.4375 0.17188 0 0.42188-0.10938 0.42188-0.42188 0-0.40625-0.40625-0.40625-0.5-0.40625 0.23438-0.59375 0.76562-0.78125 1.1562-0.78125 0.73438 0 1.125 0.625 1.125 1.2969 0 0.82812-0.57812 1.4375-1.5312 2.3906l-1 1.0469c-0.09375 0.078125-0.09375 0.09375-0.09375 0.29688h3.1406l0.23438-1.4219h-0.25c-0.015625 0.15625-0.078125 0.54688-0.17188 0.70312-0.046875 0.0625-0.65625 0.0625-0.78125 0.0625h-1.4219z"/>
   </g>
  </g>
  <g id="g2-0">
   <g id="glyph-0-0-36">
    <path id="path1-10" d="m2.1406-2.7656c0.32812 0 1.1406-0.03125 1.7031-0.25 0.90625-0.34375 1-1.0312 1-1.25 0-0.53125-0.45312-1-1.25-1-1.25 0-3.0625 1.125-3.0625 3.25 0 1.2656 0.71875 2.1406 1.8125 2.1406 1.625 0 2.6562-1.2656 2.6562-1.4219 0-0.078125-0.078125-0.14062-0.125-0.14062-0.03125 0-0.046875 0.015625-0.15625 0.125-0.76562 1.0156-1.8906 1.1875-2.3594 1.1875-0.67188 0-1.0312-0.53125-1.0312-1.4219 0-0.15625 0-0.46875 0.17188-1.2188zm-0.57812-0.25c0.51562-1.8438 1.6562-2.0156 2.0312-2.0156 0.53125 0 0.89062 0.3125 0.89062 0.76562 0 1.25-1.9219 1.25-2.4219 1.25z"/>
   </g>
   <g id="glyph-1-0-6">
    <path id="path2-3" d="m2.0156-2.6562c0.625 0 1.0312 0.45312 1.0312 1.2969 0 1-0.5625 1.2812-0.98438 1.2812-0.4375 0-1.0469-0.15625-1.3281-0.57812 0.29688 0 0.5-0.1875 0.5-0.4375 0-0.26562-0.1875-0.4375-0.45312-0.4375-0.20312 0-0.4375 0.125-0.4375 0.45312 0 0.75 0.8125 1.25 1.7344 1.25 1.0469 0 1.7969-0.73438 1.7969-1.5312 0-0.67188-0.53125-1.2656-1.3438-1.4531 0.625-0.21875 1.1094-0.75 1.1094-1.3906s-0.71875-1.0938-1.5469-1.0938c-0.85938 0-1.5 0.45312-1.5 1.0625 0 0.29688 0.1875 0.42188 0.40625 0.42188 0.25 0 0.40625-0.17188 0.40625-0.40625 0-0.29688-0.26562-0.40625-0.4375-0.40625 0.34375-0.4375 0.95312-0.46875 1.0938-0.46875 0.20312 0 0.8125 0.0625 0.8125 0.89062 0 0.54688-0.23438 0.89062-0.34375 1.0156-0.23438 0.25-0.42188 0.26562-0.90625 0.29688-0.15625 0-0.21875 0.015625-0.21875 0.125s0.078125 0.10938 0.21875 0.10938z"/>
   </g>
  </g>
  <g id="g2-1">
   <g id="glyph-0-0-55">
    <path id="path1-47" d="m2.1406-2.7656c0.32812 0 1.1406-0.03125 1.7031-0.25 0.90625-0.34375 1-1.0312 1-1.25 0-0.53125-0.45312-1-1.25-1-1.25 0-3.0625 1.125-3.0625 3.25 0 1.2656 0.71875 2.1406 1.8125 2.1406 1.625 0 2.6562-1.2656 2.6562-1.4219 0-0.078125-0.078125-0.14062-0.125-0.14062-0.03125 0-0.046875 0.015625-0.15625 0.125-0.76562 1.0156-1.8906 1.1875-2.3594 1.1875-0.67188 0-1.0312-0.53125-1.0312-1.4219 0-0.15625 0-0.46875 0.17188-1.2188zm-0.57812-0.25c0.51562-1.8438 1.6562-2.0156 2.0312-2.0156 0.53125 0 0.89062 0.3125 0.89062 0.76562 0 1.25-1.9219 1.25-2.4219 1.25z"/>
   </g>
   <g id="glyph-1-0-65">
    <path id="path2-69" d="m1.5938-1.3125c0.03125-0.10938 0.10938-0.42188 0.125-0.53125 0.10938-0.4375 0.10938-0.4375 0.29688-0.70312 0.26562-0.39062 0.64062-0.75 1.1719-0.75 0.28125 0 0.45312 0.17188 0.45312 0.54688 0 0.4375-0.32812 1.3438-0.48438 1.7344-0.10938 0.26562-0.10938 0.3125-0.10938 0.42188 0 0.45312 0.375 0.67188 0.71875 0.67188 0.78125 0 1.1094-1.1094 1.1094-1.2188 0-0.078125-0.0625-0.10938-0.125-0.10938-0.09375 0-0.10938 0.0625-0.125 0.14062-0.1875 0.65625-0.53125 0.96875-0.82812 0.96875-0.125 0-0.1875-0.078125-0.1875-0.26562s0.0625-0.35938 0.14062-0.5625c0.10938-0.29688 0.46875-1.2188 0.46875-1.6562 0-0.60938-0.42188-0.89062-0.98438-0.89062-0.65625 0-1.0625 0.39062-1.2969 0.6875-0.0625-0.4375-0.40625-0.6875-0.8125-0.6875-0.28125 0-0.48438 0.1875-0.60938 0.4375-0.20312 0.375-0.28125 0.76562-0.28125 0.78125 0 0.078125 0.0625 0.10938 0.125 0.10938 0.10938 0 0.10938-0.03125 0.17188-0.25 0.09375-0.39062 0.23438-0.85938 0.5625-0.85938 0.21875 0 0.26562 0.20312 0.26562 0.375 0 0.15625-0.046875 0.29688-0.10938 0.5625-0.015625 0.0625-0.14062 0.53125-0.17188 0.64062l-0.29688 1.2031c-0.03125 0.125-0.078125 0.3125-0.078125 0.34375 0 0.1875 0.15625 0.25 0.26562 0.25 0.14062 0 0.26562-0.09375 0.3125-0.1875 0.03125-0.046875 0.09375-0.32812 0.125-0.48438z"/>
   </g>
  </g>
  <g id="g1-4">
   <g id="glyph-0-0-52">
    <path id="path1-54" d="m1.5312-1.1562c-0.25 0.046875-0.48438 0.26562-0.48438 0.5625 0 0.3125 0.25 0.57812 0.5625 0.57812s0.59375-0.23438 0.59375-0.5625c0-0.3125-0.26562-0.59375-0.57812-0.59375-0.03125 0-0.0625 0.015625-0.09375 0.015625z"/>
   </g>
  </g>
 </defs>
 <metadata id="metadata5">
  <rdf:RDF>
   <cc:Work rdf:about="">
    <dc:format>image/svg+xml</dc:format>
    <dc:type rdf:resource="http://purl.org/dc/dcmitype/StillImage"/>
    <dc:title/>
   </cc:Work>
  </rdf:RDF>
 </metadata>
 <g id="layer1" transform="translate(-203.03 -157.51)">
  <rect id="rect1" transform="matrix(1 -.0012629 -.23133 .97288 0 0)" x="251.09" y="169.17" width="52.89" height="38.08" fill="none" stroke="#000" stroke-linecap="round" stroke-linejoin="round" stroke-width=".24288" style="paint-order:markers stroke fill"/>
  <path id="path2" d="m229.07 183.41v17.866" fill="none" stroke="#000" stroke-dasharray="1.37656, 1.37656" stroke-linecap="round" stroke-linejoin="round" stroke-width=".18354" style="paint-order:markers stroke fill"/>
  <path id="path3" d="m229.07 201.28v6.9111" fill="none" stroke="#000" stroke-linecap="round" stroke-linejoin="round" stroke-width=".18354" style="paint-order:markers stroke fill"/>
  <path id="path8" d="m229.07 183.41v-25.81" fill="none" stroke="#000" stroke-linecap="round" stroke-linejoin="round" stroke-width=".18354" style="paint-order:markers stroke fill"/>
  <g id="path9" transform="matrix(1.3069 0 0 1.3069 -62.306 -63.918)">
   <g id="g18">
    <g id="g19" transform="matrix(-.33294 .17759 -.17759 -.33294 210.91 195.68)">
     <path id="path18" d="m-1.6035-2.3672a0.3 0.3 0 0 0-0.24609 0.34375c0.090081 0.5405 0.52008 1.0234 0.96094 1.4473 0.22043 0.21195 0.44822 0.40042 0.65039 0.54883 0.0178 0.013066 0.029738 0.014941 0.046875 0.027344-0.017138 0.012402-0.029074 0.014277-0.046875 0.027344-0.20217 0.1484-0.42996 0.33687-0.65039 0.54883-0.44086 0.42391-0.87086 0.90677-0.96094 1.4473a0.3 0.3 0 0 0 0.24609 0.34375 0.3 0.3 0 0 0 0.3457-0.24609c0.039429-0.23658 0.38419-0.72578 0.78516-1.1113 0.20048-0.19277 0.41158-0.36719 0.58984-0.49805s0.34401-0.21949 0.36523-0.22656a0.30003 0.30003 0 0 0 0-0.57031c-0.021227-0.0070754-0.18697-0.095707-0.36523-0.22656s-0.38936-0.30527-0.58984-0.49805c-0.40097-0.38555-0.74573-0.87475-0.78516-1.1113a0.3 0.3 0 0 0-0.3457-0.24609z" stop-color="#000000" stroke-linecap="round" stroke-linejoin="round" stroke-miterlimit="10"/>
    </g>
   </g>
   <path id="path20" d="m222.89 189.13-12.045 6.4258a0.14044 0.14044 0 0 0-0.0586 0.18946 0.14044 0.14044 0 0 0 0.18945 0.0586l12.047-6.4258a0.14044 0.14044 0 0 0 0.0586-0.18945 0.14044 0.14044 0 0 0-0.19141-0.0586z" stop-color="#000000" stroke-linecap="round" stroke-linejoin="round" style="paint-order:markers stroke fill"/>
  </g>
  <g id="path10" transform="matrix(1.3069 0 0 1.3069 -62.306 -63.918)">
   <g id="g4">
    <g id="g13" transform="matrix(.37301 -.057048 .057048 .37301 236.37 187.2)">
     <path id="path13" d="m-1.6035-2.3672a0.3 0.3 0 0 0-0.24609 0.34375c0.090081 0.5405 0.52008 1.0234 0.96094 1.4473 0.22043 0.21195 0.44822 0.40042 0.65039 0.54883 0.0178 0.013066 0.029738 0.014941 0.046875 0.027344-0.017138 0.012402-0.029074 0.014277-0.046875 0.027344-0.20217 0.1484-0.42996 0.33687-0.65039 0.54883-0.44086 0.42391-0.87086 0.90677-0.96094 1.4473a0.3 0.3 0 0 0 0.24609 0.34375 0.3 0.3 0 0 0 0.3457-0.24609c0.039429-0.23658 0.38419-0.72578 0.78516-1.1113 0.20048-0.19277 0.41158-0.36719 0.58984-0.49805s0.34401-0.21949 0.36523-0.22656a0.30003 0.30003 0 0 0 0-0.57031c-0.021227-0.0070754-0.18697-0.095707-0.36523-0.22656s-0.38936-0.30527-0.58984-0.49805c-0.40097-0.38555-0.74573-0.87475-0.78516-1.1113a0.3 0.3 0 0 0-0.3457-0.24609z" stop-color="#000000" stroke-linecap="round" stroke-linejoin="round" stroke-miterlimit="10"/>
    </g>
   </g>
   <path id="path14" d="m236.35 187.06-13.416 2.0508a0.14044 0.14044 0 0 0-0.11719 0.16015 0.14044 0.14044 0 0 0 0.16016 0.11719l13.416-2.0508a0.14044 0.14044 0 0 0 0.11719-0.16016 0.14044 0.14044 0 0 0-0.16016-0.11718z" stop-color="#000000" stroke-linecap="round" stroke-linejoin="round" style="paint-order:markers stroke fill"/>
  </g>
  <g id="path11" transform="matrix(1.3069 0 0 1.3069 -62.306 -63.918)">
   <g id="g21">
    <g id="g22" transform="matrix(.23829 .29259 -.29259 .23829 229.9 197.77)">
     <path id="path21" d="m-1.6035-2.3672a0.3 0.3 0 0 0-0.24609 0.34375c0.090081 0.5405 0.52008 1.0234 0.96094 1.4473 0.22043 0.21195 0.44822 0.40042 0.65039 0.54883 0.0178 0.013066 0.029738 0.014941 0.046875 0.027344-0.017138 0.012402-0.029074 0.014277-0.046875 0.027344-0.20217 0.1484-0.42996 0.33687-0.65039 0.54883-0.44086 0.42391-0.87086 0.90677-0.96094 1.4473a0.3 0.3 0 0 0 0.24609 0.34375 0.3 0.3 0 0 0 0.3457-0.24609c0.039429-0.23658 0.38419-0.72578 0.78516-1.1113 0.20048-0.19277 0.41158-0.36719 0.58984-0.49805s0.34401-0.21949 0.36523-0.22656a0.30003 0.30003 0 0 0 0-0.57031c-0.021227-0.0070754-0.18697-0.095707-0.36523-0.22656s-0.38936-0.30527-0.58984-0.49805c-0.40097-0.38555-0.74573-0.87475-0.78516-1.1113a0.3 0.3 0 0 0-0.3457-0.24609z" stop-color="#000000" stroke-linecap="round" stroke-linejoin="round" stroke-miterlimit="10"/>
    </g>
   </g>
   <path id="path23" d="m222.87 189.14a0.14044 0.14044 0 0 0-0.0215 0.19726l6.9414 8.5215a0.14044 0.14044 0 0 0 0.19727 0.0195 0.14044 0.14044 0 0 0 0.0215-0.19727l-6.9414-8.5215a0.14044 0.14044 0 0 0-0.19727-0.0195z" stop-color="#000000" stroke-linecap="round" stroke-linejoin="round" style="paint-order:markers stroke fill"/>
  </g>
  <g id="path12" transform="matrix(1.3069 0 0 1.3069 -62.306 -63.918)">
   <g id="g15">
    <g id="g16" transform="matrix(0 -.37735 .37735 0 222.96 177.22)">
     <path id="path15" d="m-1.6035-2.3672a0.3 0.3 0 0 0-0.24609 0.34375c0.090081 0.5405 0.52008 1.0234 0.96094 1.4473 0.22043 0.21195 0.44822 0.40042 0.65039 0.54883 0.0178 0.013066 0.029738 0.014941 0.046875 0.027344-0.017138 0.012402-0.029074 0.014277-0.046875 0.027344-0.20217 0.1484-0.42996 0.33687-0.65039 0.54883-0.44086 0.42391-0.87086 0.90677-0.96094 1.4473a0.3 0.3 0 0 0 0.24609 0.34375 0.3 0.3 0 0 0 0.3457-0.24609c0.039429-0.23658 0.38419-0.72578 0.78516-1.1113 0.20048-0.19277 0.41158-0.36719 0.58984-0.49805s0.34401-0.21949 0.36523-0.22656a0.30003 0.30003 0 0 0 0-0.57031c-0.021227-0.0070754-0.18697-0.095707-0.36523-0.22656s-0.38936-0.30527-0.58984-0.49805c-0.40097-0.38555-0.74573-0.87475-0.78516-1.1113a0.3 0.3 0 0 0-0.3457-0.24609z" stop-color="#000000" stroke-linecap="round" stroke-linejoin="round" stroke-miterlimit="10"/>
    </g>
   </g>
   <path id="path17" d="m222.96 177.07a0.14044 0.14044 0 0 0-0.14062 0.14062v12.176a0.14044 0.14044 0 0 0 0.14062 0.14063 0.14044 0.14044 0 0 0 0.14063-0.14063v-12.176a0.14044 0.14044 0 0 0-0.14063-0.14062z" stop-color="#000000" stroke-linecap="round" stroke-linejoin="round" style="paint-order:markers stroke fill"/>
  </g>
  <use id="use1" transform="matrix(.34578 0 0 .34578 227.63 163.44)" x="11.955" y="20.257999" fill="#000000" xlink:href="#glyph-0-0-97"/>
  <use id="use2" transform="matrix(.34578 0 0 .34578 207.15 182.66)" x="11.955" y="17.103001" fill="#000000" xlink:href="#glyph-0-0-319"/>
  <use id="use3" transform="matrix(.34578 0 0 .34578 207.15 182.66)" x="17.381001" y="18.896" fill="#000000" xlink:href="#glyph-1-0-7"/>
  <use id="use2-2" transform="matrix(.34578 0 0 .34578 236.05 188.01)" x="11.955" y="17.103001" fill="#000000" xlink:href="#glyph-0-0-36"/>
  <use id="use3-0" transform="matrix(.34578 0 0 .34578 236.05 188.01)" x="17.381001" y="18.896" fill="#000000" xlink:href="#glyph-1-0-6"/>
  <use id="use2-3" transform="matrix(.34578 0 0 .34578 242.56 172.29)" x="11.955" y="17.103001" fill="#000000" xlink:href="#glyph-0-0-55"/>
  <use id="use3-7" transform="matrix(.34578 0 0 .34578 242.56 172.29)" x="17.381001" y="18.896" fill="#000000" xlink:href="#glyph-1-0-65"/>
  <use id="use1-4" transform="matrix(.32112 .12825 -.12825 .32112 241.76 178.13)" x="11.955" y="19.094999" fill="#000000" xlink:href="#glyph-0-0-52"/>
  <use id="use2-4" transform="matrix(.32112 .12825 -.12825 .32112 241.76 178.13)" x="11.955" y="23.08" fill="#000000" xlink:href="#glyph-0-0-52"/>
  <use id="use3-3" transform="matrix(.32112 .12825 -.12825 .32112 241.76 178.13)" x="11.955" y="27.065001" fill="#000000" xlink:href="#glyph-0-0-52"/>
 </g>
</svg>
