<?xml version="1.0" encoding="UTF-8" standalone="no"?>
<!-- Created with Inkscape (http://www.inkscape.org/) -->

<svg
   width="89.057167mm"
   height="77.469353mm"
   viewBox="0 0 89.057166 77.469353"
   version="1.1"
   id="svg8"
   xmlns:xlink="http://www.w3.org/1999/xlink"
   xmlns="http://www.w3.org/2000/svg"
   xmlns:svg="http://www.w3.org/2000/svg"
   xmlns:rdf="http://www.w3.org/1999/02/22-rdf-syntax-ns#"
   xmlns:cc="http://creativecommons.org/ns#"
   xmlns:dc="http://purl.org/dc/elements/1.1/">
  <defs
     id="defs2">
    <marker
       id="marker-arrow-0.5308"
       orient="auto-start-reverse"
       refY="0"
       refX="0"
       markerHeight="1.6900001"
       markerWidth="0.91100001">
      <g
         transform="scale(2.1535293)"
         id="g1">
        <path
           d="M -1.55415,2.0722 C -1.42464,1.29512 0,0.1295 0.38852,0 0,-0.1295 -1.42464,-1.29512 -1.55415,-2.0722"
           style="fill:none;stroke:#000000;stroke-width:0.6;stroke-linecap:round;stroke-linejoin:round;stroke-miterlimit:10;stroke-dasharray:none;stroke-opacity:1"
           id="path1-6" />
      </g>
    </marker>
    <marker
       id="marker-arrow-1.0616"
       orient="auto-start-reverse"
       refY="0"
       refX="0"
       markerHeight="1.6900001"
       markerWidth="0.91100001">
      <g
         transform="scale(1.3434313)"
         id="g1-7">
        <path
           d="M -1.55415,2.0722 C -1.42464,1.29512 0,0.1295 0.38852,0 0,-0.1295 -1.42464,-1.29512 -1.55415,-2.0722"
           style="fill:none;stroke:#000000;stroke-width:0.6;stroke-linecap:round;stroke-linejoin:round;stroke-miterlimit:10;stroke-dasharray:none;stroke-opacity:1"
           id="path1-5" />
      </g>
    </marker>
    <marker
       id="marker-arrow-0.5308-3"
       orient="auto-start-reverse"
       refY="0"
       refX="0"
       markerHeight="1.6900001"
       markerWidth="0.91100001">
      <g
         transform="scale(2.1535293)"
         id="g1-5">
        <path
           d="M -1.55415,2.0722 C -1.42464,1.29512 0,0.1295 0.38852,0 0,-0.1295 -1.42464,-1.29512 -1.55415,-2.0722"
           style="fill:none;stroke:#000000;stroke-width:0.6;stroke-linecap:round;stroke-linejoin:round;stroke-miterlimit:10;stroke-dasharray:none;stroke-opacity:1"
           id="path1-62" />
      </g>
    </marker>
    <g
       id="g1-9">
      <g
         id="glyph-0-0">
        <path
           d="M 6.046875,-2.75 C 5.625,-1.078125 4.25,-0.09375 3.125,-0.09375 c -0.859375,0 -1.453125,-0.578125 -1.453125,-1.5625 0,-0.046875 0,-0.40625 0.140625,-0.9375 L 2.96875,-7.296875 C 3.078125,-7.703125 3.109375,-7.8125 3.953125,-7.8125 c 0.21875,0 0.34375,0 0.34375,-0.21875 0,-0.125 -0.109375,-0.125 -0.1875,-0.125 -0.21875,0 -0.46875,0.015625 -0.6875,0.015625 h -1.40625 c -0.234375,0 -0.484375,-0.015625 -0.71875,-0.015625 -0.078125,0 -0.21875,0 -0.21875,0.21875 0,0.125 0.078125,0.125 0.3125,0.125 0.71875,0 0.71875,0.09375 0.71875,0.21875 0,0.078125 -0.09375,0.421875 -0.15625,0.625 l -1.03125,4.1875 C 0.890625,-2.65625 0.8125,-2.328125 0.8125,-2.015625 0.8125,-0.6875 1.75,0.25 3.0625,0.25 c 1.203125,0 2.546875,-0.953125 3.15625,-2.46875 0.078125,-0.203125 0.1875,-0.625 0.265625,-0.953125 C 6.59375,-3.59375 6.84375,-4.65625 6.9375,-4.953125 L 7.390625,-6.75 c 0.15625,-0.625 0.25,-1.015625 1.296875,-1.0625 0.09375,-0.015625 0.140625,-0.109375 0.140625,-0.21875 0,-0.125 -0.109375,-0.125 -0.15625,-0.125 -0.15625,0 -0.375,0.015625 -0.546875,0.015625 H 7.5625 c -0.734375,0 -1.125,-0.015625 -1.125,-0.015625 -0.078125,0 -0.21875,0 -0.21875,0.21875 0,0.125 0.09375,0.125 0.171875,0.125 0.71875,0.015625 0.765625,0.296875 0.765625,0.515625 0,0.09375 0,0.140625 -0.046875,0.296875 z m 0,0"
           id="path1-1" />
      </g>
    </g>
    <g
       id="g1-2">
      <g
         id="glyph-0-0-7">
        <path
           d="m 3.546875,-3.890625 h 1.15625 c 0.90625,0 0.96875,0.203125 0.96875,0.546875 0,0.15625 -0.015625,0.3125 -0.078125,0.578125 C 5.5625,-2.71875 5.5625,-2.65625 5.5625,-2.625 c 0,0.078125 0.046875,0.125 0.125,0.125 0.09375,0 0.109375,-0.046875 0.15625,-0.234375 l 0.6875,-2.78125 c 0,-0.046875 -0.03125,-0.125 -0.109375,-0.125 -0.109375,0 -0.125,0.046875 -0.171875,0.25 C 6,-4.5 5.765625,-4.25 4.71875,-4.25 H 3.640625 L 4.40625,-7.34375 C 4.515625,-7.75 4.546875,-7.796875 5.03125,-7.796875 h 1.609375 c 1.484375,0 1.703125,0.453125 1.703125,1.296875 0,0.0625 0,0.328125 -0.03125,0.640625 -0.015625,0.046875 -0.046875,0.203125 -0.046875,0.25 0,0.09375 0.0625,0.140625 0.140625,0.140625 0.078125,0 0.125,-0.046875 0.15625,-0.265625 l 0.25,-2.09375 c 0,-0.03125 0.015625,-0.15625 0.015625,-0.1875 0,-0.125 -0.109375,-0.125 -0.3125,-0.125 H 2.84375 c -0.21875,0 -0.34375,0 -0.34375,0.21875 0,0.125 0.078125,0.125 0.28125,0.125 0.75,0 0.75,0.09375 0.75,0.21875 0,0.0625 -0.015625,0.109375 -0.046875,0.234375 l -1.625,6.453125 C 1.75,-0.46875 1.734375,-0.34375 0.890625,-0.34375 c -0.21875,0 -0.34375,0 -0.34375,0.21875 C 0.546875,0 0.65625,0 0.734375,0 0.953125,0 1.1875,-0.03125 1.421875,-0.03125 H 2.96875 C 3.234375,-0.03125 3.53125,0 3.796875,0 c 0.09375,0 0.25,0 0.25,-0.21875 0,-0.125 -0.078125,-0.125 -0.34375,-0.125 -0.9375,0 -0.96875,-0.09375 -0.96875,-0.265625 0,-0.0625 0.03125,-0.15625 0.046875,-0.234375 z m 0,0"
           id="path1-0" />
      </g>
    </g>
    <g
       id="g7">
      <g
         id="glyph-0-0-3">
        <path
           d="m 3.890625,2.90625 c 0,-0.03125 0,-0.0625 -0.203125,-0.265625 C 2.484375,1.4375 1.8125,-0.53125 1.8125,-2.96875 c 0,-2.328125 0.5625,-4.328125 1.953125,-5.734375 0.125,-0.109375 0.125,-0.125 0.125,-0.171875 0,-0.0625 -0.0625,-0.09375 -0.109375,-0.09375 -0.15625,0 -1.140625,0.859375 -1.71875,2.03125 -0.609375,1.21875 -0.890625,2.484375 -0.890625,3.96875 0,1.0625 0.171875,2.484375 0.78125,3.75 C 2.671875,2.21875 3.640625,3 3.78125,3 3.828125,3 3.890625,2.96875 3.890625,2.90625 Z m 0,0"
           id="path1-60" />
      </g>
      <g
         id="glyph-0-1">
        <path
           d="M 3.375,-2.96875 C 3.375,-3.890625 3.25,-5.359375 2.578125,-6.75 1.875,-8.1875 0.890625,-8.96875 0.765625,-8.96875 c -0.046875,0 -0.109375,0.03125 -0.109375,0.09375 0,0.046875 0,0.0625 0.203125,0.265625 1.203125,1.203125 1.859375,3.1875 1.859375,5.625 0,2.3125 -0.5625,4.3125 -1.9375,5.71875 C 0.65625,2.84375 0.65625,2.875 0.65625,2.90625 0.65625,2.96875 0.71875,3 0.765625,3 0.921875,3 1.90625,2.140625 2.484375,0.96875 3.09375,-0.25 3.375,-1.546875 3.375,-2.96875 Z m 0,0"
           id="path2-6" />
      </g>
      <g
         id="glyph-1-0">
        <path
           d="m 5.328125,-4.8125 c 0.234375,0 0.34375,0 0.34375,-0.21875 0,-0.125 -0.109375,-0.125 -0.3125,-0.125 H 4.390625 C 4.609375,-6.390625 4.78125,-7.234375 4.875,-7.609375 c 0.078125,-0.296875 0.328125,-0.5625 0.640625,-0.5625 0.25,0 0.5,0.109375 0.609375,0.21875 -0.453125,0.046875 -0.609375,0.390625 -0.609375,0.59375 0,0.234375 0.1875,0.375 0.40625,0.375 0.25,0 0.609375,-0.203125 0.609375,-0.65625 0,-0.5 -0.5,-0.78125 -1.03125,-0.78125 -0.515625,0 -1.015625,0.390625 -1.25,0.859375 -0.21875,0.421875 -0.34375,0.84375 -0.609375,2.40625 h -0.8125 c -0.21875,0 -0.34375,0 -0.34375,0.21875 0,0.125 0.078125,0.125 0.3125,0.125 H 3.5625 C 3.34375,-3.6875 2.859375,-0.984375 2.578125,0.28125 2.375,1.328125 2.203125,2.203125 1.609375,2.203125 1.5625,2.203125 1.21875,2.203125 1,1.96875 1.609375,1.921875 1.609375,1.40625 1.609375,1.390625 1.609375,1.140625 1.4375,1 1.203125,1 0.96875,1 0.609375,1.203125 0.609375,1.65625 c 0,0.515625 0.53125,0.78125 1,0.78125 1.21875,0 1.71875,-2.1875 1.84375,-2.78125 C 3.671875,-1.265625 4.25,-4.453125 4.3125,-4.8125 Z m 0,0"
           id="path3-2" />
      </g>
      <g
         id="glyph-1-1">
        <path
           d="M 4.515625,-1.453125 C 4.5,-2.046875 4.46875,-2.96875 4.015625,-4.046875 3.78125,-4.640625 3.375,-5.265625 2.5,-5.265625 c -1.46875,0 -2.265625,1.875 -2.265625,2.1875 0,0.109375 0.078125,0.109375 0.109375,0.109375 0.109375,0 0.109375,-0.03125 0.171875,-0.1875 0.25,-0.734375 1.015625,-1.328125 1.84375,-1.328125 1.65625,0 1.890625,1.859375 1.890625,3.03125 0,0.765625 -0.078125,1.015625 -0.15625,1.25 -0.21875,0.734375 -0.609375,2.21875 -0.609375,2.5625 0,0.09375 0.03125,0.203125 0.125,0.203125 0.1875,0 0.28125,-0.40625 0.421875,-0.875 0.28125,-1.046875 0.359375,-1.578125 0.421875,-2.0625 0.03125,-0.28125 0.703125,-2.25 1.65625,-4.125 0.078125,-0.203125 0.25,-0.515625 0.25,-0.5625 0,0 -0.015625,-0.09375 -0.125,-0.09375 -0.015625,0 -0.078125,0 -0.109375,0.046875 -0.015625,0.03125 -0.4375,0.84375 -0.796875,1.65625 -0.171875,0.40625 -0.421875,0.9375 -0.8125,2 z m 0,0"
           id="path4-6" />
      </g>
      <g
         id="glyph-1-2">
        <path
           d="M 2.40625,-4.8125 H 3.5 c 0.234375,0 0.34375,0 0.34375,-0.203125 0,-0.140625 -0.0625,-0.140625 -0.3125,-0.140625 H 2.484375 l 0.4375,-1.734375 C 2.96875,-7.0625 2.96875,-7.09375 2.96875,-7.171875 c 0,-0.1875 -0.140625,-0.296875 -0.296875,-0.296875 -0.109375,0 -0.375,0.03125 -0.46875,0.421875 l -0.46875,1.890625 h -1.125 c -0.234375,0 -0.34375,0 -0.34375,0.234375 0,0.109375 0.078125,0.109375 0.3125,0.109375 h 1.0625 L 0.84375,-1.65625 c -0.09375,0.421875 -0.125,0.546875 -0.125,0.703125 0,0.5625 0.390625,1.078125 1.0625,1.078125 1.203125,0 1.859375,-1.75 1.859375,-1.828125 0,-0.078125 -0.0625,-0.109375 -0.125,-0.109375 -0.03125,0 -0.078125,0 -0.09375,0.046875 C 3.40625,-1.75 3.390625,-1.75 3.3125,-1.546875 c -0.25,0.59375 -0.796875,1.421875 -1.5,1.421875 -0.359375,0 -0.375,-0.296875 -0.375,-0.5625 0,0 0,-0.234375 0.03125,-0.375 z m 0,0"
           id="path5" />
      </g>
      <g
         id="glyph-2-0">
        <path
           d="m 5.3125,-2.984375 c 0,-1.28125 -1.0625,-2.328125 -2.328125,-2.328125 -1.28125,0 -2.328125,1.0625 -2.328125,2.328125 0,1.265625 1.046875,2.3125 2.328125,2.3125 1.265625,0 2.328125,-1.03125 2.328125,-2.3125 z m -2.328125,1.84375 c -1.03125,0 -1.84375,-0.84375 -1.84375,-1.84375 0,-1.015625 0.8125,-1.84375 1.84375,-1.84375 1,0 1.84375,0.8125 1.84375,1.84375 0,1.03125 -0.84375,1.84375 -1.84375,1.84375 z m 0,0"
           id="path6" />
      </g>
      <g
         id="glyph-3-0">
        <path
           d="M 2.109375,-3.78125 C 2.15625,-3.875 2.1875,-3.9375 2.1875,-4.015625 c 0,-0.265625 -0.25,-0.4375 -0.46875,-0.4375 -0.3125,0 -0.40625,0.28125 -0.4375,0.390625 L 0.265625,-0.625 c -0.03125,0.09375 -0.03125,0.109375 -0.03125,0.125 0,0.0625 0.046875,0.078125 0.125,0.109375 0.15625,0.0625 0.171875,0.0625 0.1875,0.0625 0.015625,0 0.0625,0 0.125,-0.140625 z m 0,0"
           id="path7" />
      </g>
    </g>
    <marker
       id="marker-arrow-0.5308-1"
       orient="auto-start-reverse"
       refY="0"
       refX="0"
       markerHeight="1.6900001"
       markerWidth="0.91100001">
      <g
         transform="scale(2.1535293)"
         id="g1-8">
        <path
           d="M -1.55415,2.0722 C -1.42464,1.29512 0,0.1295 0.38852,0 0,-0.1295 -1.42464,-1.29512 -1.55415,-2.0722"
           style="fill:none;stroke:#000000;stroke-width:0.6;stroke-linecap:round;stroke-linejoin:round;stroke-miterlimit:10;stroke-dasharray:none;stroke-opacity:1"
           id="path1-7" />
      </g>
    </marker>
    <marker
       id="marker-arrow-1.0616-9"
       orient="auto-start-reverse"
       refY="0"
       refX="0"
       markerHeight="1.6900001"
       markerWidth="0.91100001">
      <g
         transform="scale(1.3434313)"
         id="g1-20">
        <path
           d="M -1.55415,2.0722 C -1.42464,1.29512 0,0.1295 0.38852,0 0,-0.1295 -1.42464,-1.29512 -1.55415,-2.0722"
           style="fill:none;stroke:#000000;stroke-width:0.6;stroke-linecap:round;stroke-linejoin:round;stroke-miterlimit:10;stroke-dasharray:none;stroke-opacity:1"
           id="path1-2" />
      </g>
    </marker>
    <g
       id="g5">
      <g
         id="glyph-0-0-37">
        <path
           d="M 4.515625,-1.453125 C 4.5,-2.046875 4.46875,-2.96875 4.015625,-4.046875 3.78125,-4.640625 3.375,-5.265625 2.5,-5.265625 c -1.46875,0 -2.265625,1.875 -2.265625,2.1875 0,0.109375 0.078125,0.109375 0.109375,0.109375 0.109375,0 0.109375,-0.03125 0.171875,-0.1875 0.25,-0.734375 1.015625,-1.328125 1.84375,-1.328125 1.65625,0 1.890625,1.859375 1.890625,3.03125 0,0.765625 -0.078125,1.015625 -0.15625,1.25 -0.21875,0.734375 -0.609375,2.21875 -0.609375,2.5625 0,0.09375 0.03125,0.203125 0.125,0.203125 0.1875,0 0.28125,-0.40625 0.421875,-0.875 0.28125,-1.046875 0.359375,-1.578125 0.421875,-2.0625 0.03125,-0.28125 0.703125,-2.25 1.65625,-4.125 0.078125,-0.203125 0.25,-0.515625 0.25,-0.5625 0,0 -0.015625,-0.09375 -0.125,-0.09375 -0.015625,0 -0.078125,0 -0.109375,0.046875 -0.015625,0.03125 -0.4375,0.84375 -0.796875,1.65625 -0.171875,0.40625 -0.421875,0.9375 -0.8125,2 z m 0,0"
           id="path1-59" />
      </g>
      <g
         id="glyph-0-1-2">
        <path
           d="M 2.40625,-4.8125 H 3.5 c 0.234375,0 0.34375,0 0.34375,-0.203125 0,-0.140625 -0.0625,-0.140625 -0.3125,-0.140625 H 2.484375 l 0.4375,-1.734375 C 2.96875,-7.0625 2.96875,-7.09375 2.96875,-7.171875 c 0,-0.1875 -0.140625,-0.296875 -0.296875,-0.296875 -0.109375,0 -0.375,0.03125 -0.46875,0.421875 l -0.46875,1.890625 h -1.125 c -0.234375,0 -0.34375,0 -0.34375,0.234375 0,0.109375 0.078125,0.109375 0.3125,0.109375 h 1.0625 L 0.84375,-1.65625 c -0.09375,0.421875 -0.125,0.546875 -0.125,0.703125 0,0.5625 0.390625,1.078125 1.0625,1.078125 1.203125,0 1.859375,-1.75 1.859375,-1.828125 0,-0.078125 -0.0625,-0.109375 -0.125,-0.109375 -0.03125,0 -0.078125,0 -0.09375,0.046875 C 3.40625,-1.75 3.390625,-1.75 3.3125,-1.546875 c -0.25,0.59375 -0.796875,1.421875 -1.5,1.421875 -0.359375,0 -0.375,-0.296875 -0.375,-0.5625 0,0 0,-0.234375 0.03125,-0.375 z m 0,0"
           id="path2-2" />
      </g>
      <g
         id="glyph-1-0-8">
        <path
           d="M 2.109375,-3.78125 C 2.15625,-3.875 2.1875,-3.9375 2.1875,-4.015625 c 0,-0.265625 -0.25,-0.4375 -0.46875,-0.4375 -0.3125,0 -0.40625,0.28125 -0.4375,0.390625 L 0.265625,-0.625 c -0.03125,0.09375 -0.03125,0.109375 -0.03125,0.125 0,0.0625 0.046875,0.078125 0.125,0.109375 0.15625,0.0625 0.171875,0.0625 0.1875,0.0625 0.015625,0 0.0625,0 0.125,-0.140625 z m 0,0"
           id="path3-9" />
      </g>
      <g
         id="glyph-2-0-7">
        <path
           d="m 3.890625,2.90625 c 0,-0.03125 0,-0.0625 -0.203125,-0.265625 C 2.484375,1.4375 1.8125,-0.53125 1.8125,-2.96875 c 0,-2.328125 0.5625,-4.328125 1.953125,-5.734375 0.125,-0.109375 0.125,-0.125 0.125,-0.171875 0,-0.0625 -0.0625,-0.09375 -0.109375,-0.09375 -0.15625,0 -1.140625,0.859375 -1.71875,2.03125 -0.609375,1.21875 -0.890625,2.484375 -0.890625,3.96875 0,1.0625 0.171875,2.484375 0.78125,3.75 C 2.671875,2.21875 3.640625,3 3.78125,3 3.828125,3 3.890625,2.96875 3.890625,2.90625 Z m 0,0"
           id="path4-3" />
      </g>
      <g
         id="glyph-2-1">
        <path
           d="M 3.375,-2.96875 C 3.375,-3.890625 3.25,-5.359375 2.578125,-6.75 1.875,-8.1875 0.890625,-8.96875 0.765625,-8.96875 c -0.046875,0 -0.109375,0.03125 -0.109375,0.09375 0,0.046875 0,0.0625 0.203125,0.265625 1.203125,1.203125 1.859375,3.1875 1.859375,5.625 0,2.3125 -0.5625,4.3125 -1.9375,5.71875 C 0.65625,2.84375 0.65625,2.875 0.65625,2.90625 0.65625,2.96875 0.71875,3 0.765625,3 0.921875,3 1.90625,2.140625 2.484375,0.96875 3.09375,-0.25 3.375,-1.546875 3.375,-2.96875 Z m 0,0"
           id="path5-6" />
      </g>
    </g>
    <g
       id="g6">
      <g
         id="glyph-0-0-1">
        <path
           d="m 3.890625,2.90625 c 0,-0.03125 0,-0.0625 -0.203125,-0.265625 C 2.484375,1.4375 1.8125,-0.53125 1.8125,-2.96875 c 0,-2.328125 0.5625,-4.328125 1.953125,-5.734375 0.125,-0.109375 0.125,-0.125 0.125,-0.171875 0,-0.0625 -0.0625,-0.09375 -0.109375,-0.09375 -0.15625,0 -1.140625,0.859375 -1.71875,2.03125 -0.609375,1.21875 -0.890625,2.484375 -0.890625,3.96875 0,1.0625 0.171875,2.484375 0.78125,3.75 C 2.671875,2.21875 3.640625,3 3.78125,3 3.828125,3 3.890625,2.96875 3.890625,2.90625 Z m 0,0"
           id="path1-9" />
      </g>
      <g
         id="glyph-0-1-4">
        <path
           d="M 3.375,-2.96875 C 3.375,-3.890625 3.25,-5.359375 2.578125,-6.75 1.875,-8.1875 0.890625,-8.96875 0.765625,-8.96875 c -0.046875,0 -0.109375,0.03125 -0.109375,0.09375 0,0.046875 0,0.0625 0.203125,0.265625 1.203125,1.203125 1.859375,3.1875 1.859375,5.625 0,2.3125 -0.5625,4.3125 -1.9375,5.71875 C 0.65625,2.84375 0.65625,2.875 0.65625,2.90625 0.65625,2.96875 0.71875,3 0.765625,3 0.921875,3 1.90625,2.140625 2.484375,0.96875 3.09375,-0.25 3.375,-1.546875 3.375,-2.96875 Z m 0,0"
           id="path2-7" />
      </g>
      <g
         id="glyph-1-0-84">
        <path
           d="m 5.328125,-4.8125 c 0.234375,0 0.34375,0 0.34375,-0.21875 0,-0.125 -0.109375,-0.125 -0.3125,-0.125 H 4.390625 C 4.609375,-6.390625 4.78125,-7.234375 4.875,-7.609375 c 0.078125,-0.296875 0.328125,-0.5625 0.640625,-0.5625 0.25,0 0.5,0.109375 0.609375,0.21875 -0.453125,0.046875 -0.609375,0.390625 -0.609375,0.59375 0,0.234375 0.1875,0.375 0.40625,0.375 0.25,0 0.609375,-0.203125 0.609375,-0.65625 0,-0.5 -0.5,-0.78125 -1.03125,-0.78125 -0.515625,0 -1.015625,0.390625 -1.25,0.859375 -0.21875,0.421875 -0.34375,0.84375 -0.609375,2.40625 h -0.8125 c -0.21875,0 -0.34375,0 -0.34375,0.21875 0,0.125 0.078125,0.125 0.3125,0.125 H 3.5625 C 3.34375,-3.6875 2.859375,-0.984375 2.578125,0.28125 2.375,1.328125 2.203125,2.203125 1.609375,2.203125 1.5625,2.203125 1.21875,2.203125 1,1.96875 1.609375,1.921875 1.609375,1.40625 1.609375,1.390625 1.609375,1.140625 1.4375,1 1.203125,1 0.96875,1 0.609375,1.203125 0.609375,1.65625 c 0,0.515625 0.53125,0.78125 1,0.78125 1.21875,0 1.71875,-2.1875 1.84375,-2.78125 C 3.671875,-1.265625 4.25,-4.453125 4.3125,-4.8125 Z m 0,0"
           id="path3-5" />
      </g>
      <g
         id="glyph-1-1-0">
        <path
           d="M 4.515625,-1.453125 C 4.5,-2.046875 4.46875,-2.96875 4.015625,-4.046875 3.78125,-4.640625 3.375,-5.265625 2.5,-5.265625 c -1.46875,0 -2.265625,1.875 -2.265625,2.1875 0,0.109375 0.078125,0.109375 0.109375,0.109375 0.109375,0 0.109375,-0.03125 0.171875,-0.1875 0.25,-0.734375 1.015625,-1.328125 1.84375,-1.328125 1.65625,0 1.890625,1.859375 1.890625,3.03125 0,0.765625 -0.078125,1.015625 -0.15625,1.25 -0.21875,0.734375 -0.609375,2.21875 -0.609375,2.5625 0,0.09375 0.03125,0.203125 0.125,0.203125 0.1875,0 0.28125,-0.40625 0.421875,-0.875 0.28125,-1.046875 0.359375,-1.578125 0.421875,-2.0625 0.03125,-0.28125 0.703125,-2.25 1.65625,-4.125 0.078125,-0.203125 0.25,-0.515625 0.25,-0.5625 0,0 -0.015625,-0.09375 -0.125,-0.09375 -0.015625,0 -0.078125,0 -0.109375,0.046875 -0.015625,0.03125 -0.4375,0.84375 -0.796875,1.65625 -0.171875,0.40625 -0.421875,0.9375 -0.8125,2 z m 0,0"
           id="path4-36" />
      </g>
      <g
         id="glyph-1-2-1">
        <path
           d="M 2.40625,-4.8125 H 3.5 c 0.234375,0 0.34375,0 0.34375,-0.203125 0,-0.140625 -0.0625,-0.140625 -0.3125,-0.140625 H 2.484375 l 0.4375,-1.734375 C 2.96875,-7.0625 2.96875,-7.09375 2.96875,-7.171875 c 0,-0.1875 -0.140625,-0.296875 -0.296875,-0.296875 -0.109375,0 -0.375,0.03125 -0.46875,0.421875 l -0.46875,1.890625 h -1.125 c -0.234375,0 -0.34375,0 -0.34375,0.234375 0,0.109375 0.078125,0.109375 0.3125,0.109375 h 1.0625 L 0.84375,-1.65625 c -0.09375,0.421875 -0.125,0.546875 -0.125,0.703125 0,0.5625 0.390625,1.078125 1.0625,1.078125 1.203125,0 1.859375,-1.75 1.859375,-1.828125 0,-0.078125 -0.0625,-0.109375 -0.125,-0.109375 -0.03125,0 -0.078125,0 -0.09375,0.046875 C 3.40625,-1.75 3.390625,-1.75 3.3125,-1.546875 c -0.25,0.59375 -0.796875,1.421875 -1.5,1.421875 -0.359375,0 -0.375,-0.296875 -0.375,-0.5625 0,0 0,-0.234375 0.03125,-0.375 z m 0,0"
           id="path5-0" />
      </g>
      <g
         id="glyph-2-0-6">
        <path
           d="m 5.3125,-2.984375 c 0,-1.28125 -1.0625,-2.328125 -2.328125,-2.328125 -1.28125,0 -2.328125,1.0625 -2.328125,2.328125 0,1.265625 1.046875,2.3125 2.328125,2.3125 1.265625,0 2.328125,-1.03125 2.328125,-2.3125 z m -2.328125,1.84375 c -1.03125,0 -1.84375,-0.84375 -1.84375,-1.84375 0,-1.015625 0.8125,-1.84375 1.84375,-1.84375 1,0 1.84375,0.8125 1.84375,1.84375 0,1.03125 -0.84375,1.84375 -1.84375,1.84375 z m 0,0"
           id="path6-3" />
      </g>
    </g>
    <g
       id="g1-56">
      <g
         id="glyph-0-0-9">
        <path
           d="m 5.328125,-4.8125 c 0.234375,0 0.34375,0 0.34375,-0.21875 0,-0.125 -0.109375,-0.125 -0.3125,-0.125 H 4.390625 C 4.609375,-6.390625 4.78125,-7.234375 4.875,-7.609375 c 0.078125,-0.296875 0.328125,-0.5625 0.640625,-0.5625 0.25,0 0.5,0.109375 0.609375,0.21875 -0.453125,0.046875 -0.609375,0.390625 -0.609375,0.59375 0,0.234375 0.1875,0.375 0.40625,0.375 0.25,0 0.609375,-0.203125 0.609375,-0.65625 0,-0.5 -0.5,-0.78125 -1.03125,-0.78125 -0.515625,0 -1.015625,0.390625 -1.25,0.859375 -0.21875,0.421875 -0.34375,0.84375 -0.609375,2.40625 h -0.8125 c -0.21875,0 -0.34375,0 -0.34375,0.21875 0,0.125 0.078125,0.125 0.3125,0.125 H 3.5625 C 3.34375,-3.6875 2.859375,-0.984375 2.578125,0.28125 2.375,1.328125 2.203125,2.203125 1.609375,2.203125 1.5625,2.203125 1.21875,2.203125 1,1.96875 1.609375,1.921875 1.609375,1.40625 1.609375,1.390625 1.609375,1.140625 1.4375,1 1.203125,1 0.96875,1 0.609375,1.203125 0.609375,1.65625 c 0,0.515625 0.53125,0.78125 1,0.78125 1.21875,0 1.71875,-2.1875 1.84375,-2.78125 C 3.671875,-1.265625 4.25,-4.453125 4.3125,-4.8125 Z m 0,0"
           id="path1-3" />
      </g>
    </g>
    <marker
       id="marker-arrow-0.5308-36"
       orient="auto-start-reverse"
       refY="0"
       refX="0"
       markerHeight="1.6900001"
       markerWidth="0.91100001">
      <g
         transform="scale(2.1535293)"
         id="g1-75">
        <path
           d="M -1.55415,2.0722 C -1.42464,1.29512 0,0.1295 0.38852,0 0,-0.1295 -1.42464,-1.29512 -1.55415,-2.0722"
           style="fill:none;stroke:#000000;stroke-width:0.6;stroke-linecap:round;stroke-linejoin:round;stroke-miterlimit:10;stroke-dasharray:none;stroke-opacity:1"
           id="path1-35" />
      </g>
    </marker>
    <marker
       id="marker-arrow-0.5308-6"
       orient="auto-start-reverse"
       refY="0"
       refX="0"
       markerHeight="1.6900001"
       markerWidth="0.91100001">
      <g
         transform="scale(2.1535293)"
         id="g1-29">
        <path
           d="M -1.55415,2.0722 C -1.42464,1.29512 0,0.1295 0.38852,0 0,-0.1295 -1.42464,-1.29512 -1.55415,-2.0722"
           style="fill:none;stroke:#000000;stroke-width:0.6;stroke-linecap:round;stroke-linejoin:round;stroke-miterlimit:10;stroke-dasharray:none;stroke-opacity:1"
           id="path1-12" />
      </g>
    </marker>
    <marker
       id="marker-arrow-0.5308-7"
       orient="auto-start-reverse"
       refY="0"
       refX="0"
       markerHeight="1.6900001"
       markerWidth="0.91100001">
      <g
         transform="scale(2.1535293)"
         id="g1-0">
        <path
           d="M -1.55415,2.0722 C -1.42464,1.29512 0,0.1295 0.38852,0 0,-0.1295 -1.42464,-1.29512 -1.55415,-2.0722"
           style="fill:none;stroke:#000000;stroke-width:0.6;stroke-linecap:round;stroke-linejoin:round;stroke-miterlimit:10;stroke-dasharray:none;stroke-opacity:1"
           id="path1-93" />
      </g>
    </marker>
    <g
       id="g1-3">
      <g
         id="glyph-0-0-6">
        <path
           d="m 3.546875,-3.890625 h 1.15625 c 0.90625,0 0.96875,0.203125 0.96875,0.546875 0,0.15625 -0.015625,0.3125 -0.078125,0.578125 C 5.5625,-2.71875 5.5625,-2.65625 5.5625,-2.625 c 0,0.078125 0.046875,0.125 0.125,0.125 0.09375,0 0.109375,-0.046875 0.15625,-0.234375 l 0.6875,-2.78125 c 0,-0.046875 -0.03125,-0.125 -0.109375,-0.125 -0.109375,0 -0.125,0.046875 -0.171875,0.25 C 6,-4.5 5.765625,-4.25 4.71875,-4.25 H 3.640625 L 4.40625,-7.34375 C 4.515625,-7.75 4.546875,-7.796875 5.03125,-7.796875 h 1.609375 c 1.484375,0 1.703125,0.453125 1.703125,1.296875 0,0.0625 0,0.328125 -0.03125,0.640625 -0.015625,0.046875 -0.046875,0.203125 -0.046875,0.25 0,0.09375 0.0625,0.140625 0.140625,0.140625 0.078125,0 0.125,-0.046875 0.15625,-0.265625 l 0.25,-2.09375 c 0,-0.03125 0.015625,-0.15625 0.015625,-0.1875 0,-0.125 -0.109375,-0.125 -0.3125,-0.125 H 2.84375 c -0.21875,0 -0.34375,0 -0.34375,0.21875 0,0.125 0.078125,0.125 0.28125,0.125 0.75,0 0.75,0.09375 0.75,0.21875 0,0.0625 -0.015625,0.109375 -0.046875,0.234375 l -1.625,6.453125 C 1.75,-0.46875 1.734375,-0.34375 0.890625,-0.34375 c -0.21875,0 -0.34375,0 -0.34375,0.21875 C 0.546875,0 0.65625,0 0.734375,0 0.953125,0 1.1875,-0.03125 1.421875,-0.03125 H 2.96875 C 3.234375,-0.03125 3.53125,0 3.796875,0 c 0.09375,0 0.25,0 0.25,-0.21875 0,-0.125 -0.078125,-0.125 -0.34375,-0.125 -0.9375,0 -0.96875,-0.09375 -0.96875,-0.265625 0,-0.0625 0.03125,-0.15625 0.046875,-0.234375 z m 0,0"
           id="path1-75" />
      </g>
    </g>
    <g
       id="g2">
      <g
         id="glyph-0-0-5">
        <path
           d="m 3.546875,-3.890625 h 1.15625 c 0.90625,0 0.96875,0.203125 0.96875,0.546875 0,0.15625 -0.015625,0.3125 -0.078125,0.578125 C 5.5625,-2.71875 5.5625,-2.65625 5.5625,-2.625 c 0,0.078125 0.046875,0.125 0.125,0.125 0.09375,0 0.109375,-0.046875 0.15625,-0.234375 l 0.6875,-2.78125 c 0,-0.046875 -0.03125,-0.125 -0.109375,-0.125 -0.109375,0 -0.125,0.046875 -0.171875,0.25 C 6,-4.5 5.765625,-4.25 4.71875,-4.25 H 3.640625 L 4.40625,-7.34375 C 4.515625,-7.75 4.546875,-7.796875 5.03125,-7.796875 h 1.609375 c 1.484375,0 1.703125,0.453125 1.703125,1.296875 0,0.0625 0,0.328125 -0.03125,0.640625 -0.015625,0.046875 -0.046875,0.203125 -0.046875,0.25 0,0.09375 0.0625,0.140625 0.140625,0.140625 0.078125,0 0.125,-0.046875 0.15625,-0.265625 l 0.25,-2.09375 c 0,-0.03125 0.015625,-0.15625 0.015625,-0.1875 0,-0.125 -0.109375,-0.125 -0.3125,-0.125 H 2.84375 c -0.21875,0 -0.34375,0 -0.34375,0.21875 0,0.125 0.078125,0.125 0.28125,0.125 0.75,0 0.75,0.09375 0.75,0.21875 0,0.0625 -0.015625,0.109375 -0.046875,0.234375 l -1.625,6.453125 C 1.75,-0.46875 1.734375,-0.34375 0.890625,-0.34375 c -0.21875,0 -0.34375,0 -0.34375,0.21875 C 0.546875,0 0.65625,0 0.734375,0 0.953125,0 1.1875,-0.03125 1.421875,-0.03125 H 2.96875 C 3.234375,-0.03125 3.53125,0 3.796875,0 c 0.09375,0 0.25,0 0.25,-0.21875 0,-0.125 -0.078125,-0.125 -0.34375,-0.125 -0.9375,0 -0.96875,-0.09375 -0.96875,-0.265625 0,-0.0625 0.03125,-0.15625 0.046875,-0.234375 z m 0,0"
           id="path1-629" />
      </g>
      <g
         id="glyph-1-0-1">
        <path
           d="m 3.46875,-5.234375 c 0,-0.125 0,-0.296875 -0.171875,-0.296875 -0.1875,0 -0.1875,0.171875 -0.1875,0.3125 v 4.859375 H 0.78125 c -0.140625,0 -0.3125,0 -0.3125,0.171875 C 0.46875,0 0.640625,0 0.78125,0 H 5.8125 c 0.125,0 0.296875,0 0.296875,-0.1875 0,-0.171875 -0.171875,-0.171875 -0.296875,-0.171875 H 3.46875 Z m 0,0"
           id="path2-27" />
      </g>
    </g>
    <g
       id="g1-93">
      <g
         id="glyph-0-0-60">
        <path
           d="m 5.671875,-4.875 c -0.390625,0.0625 -0.53125,0.359375 -0.53125,0.578125 0,0.296875 0.21875,0.390625 0.390625,0.390625 0.359375,0 0.609375,-0.3125 0.609375,-0.640625 0,-0.5 -0.578125,-0.71875 -1.078125,-0.71875 -0.71875,0 -1.125,0.71875 -1.234375,0.9375 -0.28125,-0.890625 -1.015625,-0.9375 -1.234375,-0.9375 -1.21875,0 -1.859375,1.5625 -1.859375,1.828125 0,0.046875 0.046875,0.109375 0.125,0.109375 0.09375,0 0.125,-0.078125 0.140625,-0.125 0.40625,-1.328125 1.21875,-1.578125 1.5625,-1.578125 0.53125,0 0.640625,0.5 0.640625,0.78125 0,0.265625 -0.078125,0.546875 -0.21875,1.125 L 2.578125,-1.5 c -0.171875,0.71875 -0.515625,1.375 -1.15625,1.375 -0.0625,0 -0.359375,0 -0.609375,-0.15625 C 1.25,-0.359375 1.34375,-0.71875 1.34375,-0.859375 1.34375,-1.09375 1.15625,-1.25 0.9375,-1.25 c -0.296875,0 -0.609375,0.265625 -0.609375,0.640625 0,0.5 0.5625,0.734375 1.078125,0.734375 0.578125,0 0.984375,-0.453125 1.234375,-0.953125 C 2.828125,-0.125 3.4375,0.125 3.875,0.125 5.09375,0.125 5.734375,-1.453125 5.734375,-1.703125 5.734375,-1.765625 5.6875,-1.8125 5.625,-1.8125 5.515625,-1.8125 5.5,-1.75 5.46875,-1.65625 5.140625,-0.609375 4.453125,-0.125 3.90625,-0.125 3.484375,-0.125 3.265625,-0.4375 3.265625,-0.921875 3.265625,-1.1875 3.3125,-1.375 3.5,-2.15625 L 3.921875,-3.796875 C 4.09375,-4.5 4.5,-5.03125 5.0625,-5.03125 c 0.015625,0 0.359375,0 0.609375,0.15625 z m 0,0"
           id="path1-626" />
      </g>
    </g>
    <g
       id="g5-7">
      <g
         id="glyph-0-0-92">
        <path
           d="m 2.71875,-2.390625 c 0.203125,0.03125 0.53125,0.109375 0.609375,0.125 0.15625,0.046875 0.6875,0.234375 0.6875,0.8125 0,0.359375 -0.328125,1.328125 -1.71875,1.328125 -0.25,0 -1.15625,-0.03125 -1.390625,-0.6875 C 1.390625,-0.75 1.625,-1.125 1.625,-1.390625 c 0,-0.25 -0.171875,-0.375 -0.40625,-0.375 -0.265625,0 -0.609375,0.203125 -0.609375,0.734375 0,0.703125 0.71875,1.15625 1.671875,1.15625 1.8125,0 2.359375,-1.34375 2.359375,-1.96875 0,-0.171875 0,-0.515625 -0.390625,-0.890625 C 3.953125,-3.03125 3.671875,-3.078125 3.03125,-3.21875 2.703125,-3.28125 2.1875,-3.390625 2.1875,-3.9375 c 0,-0.234375 0.21875,-1.09375 1.34375,-1.09375 0.515625,0 1,0.1875 1.125,0.625 -0.53125,0 -0.5625,0.453125 -0.5625,0.46875 0,0.25 0.234375,0.3125 0.34375,0.3125 0.171875,0 0.5,-0.125 0.5,-0.625 0,-0.5 -0.453125,-1.015625 -1.390625,-1.015625 -1.5625,0 -1.984375,1.21875 -1.984375,1.71875 0,0.90625 0.890625,1.09375 1.15625,1.15625 z m 0,0"
           id="path1-02" />
      </g>
      <g
         id="glyph-0-1-3">
        <path
           d="m 5.671875,-4.875 c -0.390625,0.0625 -0.53125,0.359375 -0.53125,0.578125 0,0.296875 0.21875,0.390625 0.390625,0.390625 0.359375,0 0.609375,-0.3125 0.609375,-0.640625 0,-0.5 -0.578125,-0.71875 -1.078125,-0.71875 -0.71875,0 -1.125,0.71875 -1.234375,0.9375 -0.28125,-0.890625 -1.015625,-0.9375 -1.234375,-0.9375 -1.21875,0 -1.859375,1.5625 -1.859375,1.828125 0,0.046875 0.046875,0.109375 0.125,0.109375 0.09375,0 0.125,-0.078125 0.140625,-0.125 0.40625,-1.328125 1.21875,-1.578125 1.5625,-1.578125 0.53125,0 0.640625,0.5 0.640625,0.78125 0,0.265625 -0.078125,0.546875 -0.21875,1.125 L 2.578125,-1.5 c -0.171875,0.71875 -0.515625,1.375 -1.15625,1.375 -0.0625,0 -0.359375,0 -0.609375,-0.15625 C 1.25,-0.359375 1.34375,-0.71875 1.34375,-0.859375 1.34375,-1.09375 1.15625,-1.25 0.9375,-1.25 c -0.296875,0 -0.609375,0.265625 -0.609375,0.640625 0,0.5 0.5625,0.734375 1.078125,0.734375 0.578125,0 0.984375,-0.453125 1.234375,-0.953125 C 2.828125,-0.125 3.4375,0.125 3.875,0.125 5.09375,0.125 5.734375,-1.453125 5.734375,-1.703125 5.734375,-1.765625 5.6875,-1.8125 5.625,-1.8125 5.515625,-1.8125 5.5,-1.75 5.46875,-1.65625 5.140625,-0.609375 4.453125,-0.125 3.90625,-0.125 3.484375,-0.125 3.265625,-0.4375 3.265625,-0.921875 3.265625,-1.1875 3.3125,-1.375 3.5,-2.15625 L 3.921875,-3.796875 C 4.09375,-4.5 4.5,-5.03125 5.0625,-5.03125 c 0.015625,0 0.359375,0 0.609375,0.15625 z m 0,0"
           id="path2-75" />
      </g>
      <g
         id="glyph-1-0-9">
        <path
           d="M 2.515625,-2.578125 H 3.34375 c 0.65625,0 0.6875,0.125 0.6875,0.359375 0,0.046875 0,0.125 -0.0625,0.34375 0,0.03125 -0.015625,0.09375 -0.015625,0.109375 0,0.015625 0,0.109375 0.125,0.109375 0.09375,0 0.125,-0.078125 0.140625,-0.171875 L 4.640625,-3.53125 c 0.015625,-0.015625 0.03125,-0.125 0.03125,-0.140625 0,-0.03125 -0.015625,-0.109375 -0.125,-0.109375 -0.09375,0 -0.109375,0.078125 -0.125,0.171875 -0.171875,0.625 -0.34375,0.765625 -1.0625,0.765625 H 2.59375 l 0.5,-2.015625 C 3.15625,-5.140625 3.171875,-5.15625 3.5,-5.15625 h 1.171875 c 0.953125,0 1.21875,0.203125 1.21875,0.890625 0,0.15625 -0.046875,0.375 -0.046875,0.515625 0,0.09375 0.0625,0.140625 0.125,0.140625 0.109375,0 0.125,-0.078125 0.140625,-0.203125 L 6.25,-5.171875 c 0,-0.046875 0,-0.09375 0,-0.140625 0,-0.109375 -0.09375,-0.109375 -0.234375,-0.109375 h -4.09375 c -0.140625,0 -0.234375,0 -0.234375,0.140625 0,0.125 0.09375,0.125 0.21875,0.125 0.0625,0 0.171875,0 0.3125,0.015625 0.15625,0.015625 0.1875,0.03125 0.1875,0.109375 0,0.046875 0,0.078125 -0.03125,0.15625 l -1.0625,4.25 c -0.0625,0.296875 -0.078125,0.359375 -0.671875,0.359375 -0.15625,0 -0.25,0 -0.25,0.15625 C 0.390625,-0.078125 0.421875,0 0.515625,0 0.6875,0 0.875,-0.03125 1.046875,-0.03125 H 2.15625 C 2.296875,-0.015625 2.59375,0 2.734375,0 c 0.0625,0 0.171875,0 0.171875,-0.15625 0,-0.109375 -0.09375,-0.109375 -0.265625,-0.109375 -0.15625,0 -0.21875,0 -0.40625,-0.015625 -0.21875,-0.015625 -0.25,-0.046875 -0.25,-0.140625 0,-0.015625 0,-0.0625 0.046875,-0.171875 z m 0,0"
           id="path3-22" />
      </g>
      <g
         id="glyph-2-0-8">
        <path
           d="m 3.890625,2.90625 c 0,-0.03125 0,-0.0625 -0.203125,-0.265625 C 2.484375,1.4375 1.8125,-0.53125 1.8125,-2.96875 c 0,-2.328125 0.5625,-4.328125 1.953125,-5.734375 0.125,-0.109375 0.125,-0.125 0.125,-0.171875 0,-0.0625 -0.0625,-0.09375 -0.109375,-0.09375 -0.15625,0 -1.140625,0.859375 -1.71875,2.03125 -0.609375,1.21875 -0.890625,2.484375 -0.890625,3.96875 0,1.0625 0.171875,2.484375 0.78125,3.75 C 2.671875,2.21875 3.640625,3 3.78125,3 3.828125,3 3.890625,2.96875 3.890625,2.90625 Z m 0,0"
           id="path4-9" />
      </g>
      <g
         id="glyph-2-1-7">
        <path
           d="M 3.375,-2.96875 C 3.375,-3.890625 3.25,-5.359375 2.578125,-6.75 1.875,-8.1875 0.890625,-8.96875 0.765625,-8.96875 c -0.046875,0 -0.109375,0.03125 -0.109375,0.09375 0,0.046875 0,0.0625 0.203125,0.265625 1.203125,1.203125 1.859375,3.1875 1.859375,5.625 0,2.3125 -0.5625,4.3125 -1.9375,5.71875 C 0.65625,2.84375 0.65625,2.875 0.65625,2.90625 0.65625,2.96875 0.71875,3 0.765625,3 0.921875,3 1.90625,2.140625 2.484375,0.96875 3.09375,-0.25 3.375,-1.546875 3.375,-2.96875 Z m 0,0"
           id="path5-3" />
      </g>
    </g>
    <g
       id="g5-9">
      <g
         id="glyph-0-0-31">
        <path
           d="M 0.515625,1.515625 C 0.4375,1.875 0.375,1.96875 -0.109375,1.96875 c -0.140625,0 -0.265625,0 -0.265625,0.234375 0,0.015625 0.015625,0.109375 0.140625,0.109375 0.15625,0 0.328125,-0.015625 0.484375,-0.015625 h 0.515625 c 0.25,0 0.859375,0.015625 1.109375,0.015625 0.078125,0 0.21875,0 0.21875,-0.203125 C 2.09375,1.96875 2.015625,1.96875 1.8125,1.96875 1.25,1.96875 1.21875,1.890625 1.21875,1.796875 1.21875,1.65625 1.75,-0.40625 1.828125,-0.6875 c 0.125,0.34375 0.453125,0.8125 1.078125,0.8125 1.34375,0 2.8125,-1.765625 2.8125,-3.515625 0,-1.109375 -0.625,-1.875 -1.515625,-1.875 -0.765625,0 -1.421875,0.734375 -1.546875,0.90625 -0.09375,-0.59375 -0.5625,-0.90625 -1.046875,-0.90625 -0.34375,0 -0.625,0.15625 -0.84375,0.609375 C 0.546875,-4.21875 0.375,-3.484375 0.375,-3.4375 c 0,0.046875 0.0625,0.109375 0.140625,0.109375 0.09375,0 0.109375,-0.015625 0.171875,-0.296875 0.1875,-0.703125 0.40625,-1.40625 0.890625,-1.40625 0.28125,0 0.375,0.1875 0.375,0.546875 0,0.28125 -0.046875,0.40625 -0.09375,0.625 z m 2.0625,-5.25 C 2.671875,-4.0625 3,-4.40625 3.1875,-4.578125 c 0.140625,-0.125 0.53125,-0.453125 0.984375,-0.453125 0.53125,0 0.765625,0.53125 0.765625,1.140625 0,0.578125 -0.328125,1.9375 -0.640625,2.546875 C 4,-0.6875 3.453125,-0.125 2.90625,-0.125 c -0.8125,0 -0.953125,-1.015625 -0.953125,-1.0625 0,-0.046875 0.03125,-0.140625 0.046875,-0.203125 z m 0,0"
           id="path1-94" />
      </g>
      <g
         id="glyph-0-1-7">
        <path
           d="m 5.671875,-4.875 c -0.390625,0.0625 -0.53125,0.359375 -0.53125,0.578125 0,0.296875 0.21875,0.390625 0.390625,0.390625 0.359375,0 0.609375,-0.3125 0.609375,-0.640625 0,-0.5 -0.578125,-0.71875 -1.078125,-0.71875 -0.71875,0 -1.125,0.71875 -1.234375,0.9375 -0.28125,-0.890625 -1.015625,-0.9375 -1.234375,-0.9375 -1.21875,0 -1.859375,1.5625 -1.859375,1.828125 0,0.046875 0.046875,0.109375 0.125,0.109375 0.09375,0 0.125,-0.078125 0.140625,-0.125 0.40625,-1.328125 1.21875,-1.578125 1.5625,-1.578125 0.53125,0 0.640625,0.5 0.640625,0.78125 0,0.265625 -0.078125,0.546875 -0.21875,1.125 L 2.578125,-1.5 c -0.171875,0.71875 -0.515625,1.375 -1.15625,1.375 -0.0625,0 -0.359375,0 -0.609375,-0.15625 C 1.25,-0.359375 1.34375,-0.71875 1.34375,-0.859375 1.34375,-1.09375 1.15625,-1.25 0.9375,-1.25 c -0.296875,0 -0.609375,0.265625 -0.609375,0.640625 0,0.5 0.5625,0.734375 1.078125,0.734375 0.578125,0 0.984375,-0.453125 1.234375,-0.953125 C 2.828125,-0.125 3.4375,0.125 3.875,0.125 5.09375,0.125 5.734375,-1.453125 5.734375,-1.703125 5.734375,-1.765625 5.6875,-1.8125 5.625,-1.8125 5.515625,-1.8125 5.5,-1.75 5.46875,-1.65625 5.140625,-0.609375 4.453125,-0.125 3.90625,-0.125 3.484375,-0.125 3.265625,-0.4375 3.265625,-0.921875 3.265625,-1.1875 3.3125,-1.375 3.5,-2.15625 L 3.921875,-3.796875 C 4.09375,-4.5 4.5,-5.03125 5.0625,-5.03125 c 0.015625,0 0.359375,0 0.609375,0.15625 z m 0,0"
           id="path2-8" />
      </g>
      <g
         id="glyph-1-0-4">
        <path
           d="M 2.515625,-2.578125 H 3.34375 c 0.65625,0 0.6875,0.125 0.6875,0.359375 0,0.046875 0,0.125 -0.0625,0.34375 0,0.03125 -0.015625,0.09375 -0.015625,0.109375 0,0.015625 0,0.109375 0.125,0.109375 0.09375,0 0.125,-0.078125 0.140625,-0.171875 L 4.640625,-3.53125 c 0.015625,-0.015625 0.03125,-0.125 0.03125,-0.140625 0,-0.03125 -0.015625,-0.109375 -0.125,-0.109375 -0.09375,0 -0.109375,0.078125 -0.125,0.171875 -0.171875,0.625 -0.34375,0.765625 -1.0625,0.765625 H 2.59375 l 0.5,-2.015625 C 3.15625,-5.140625 3.171875,-5.15625 3.5,-5.15625 h 1.171875 c 0.953125,0 1.21875,0.203125 1.21875,0.890625 0,0.15625 -0.046875,0.375 -0.046875,0.515625 0,0.09375 0.0625,0.140625 0.125,0.140625 0.109375,0 0.125,-0.078125 0.140625,-0.203125 L 6.25,-5.171875 c 0,-0.046875 0,-0.09375 0,-0.140625 0,-0.109375 -0.09375,-0.109375 -0.234375,-0.109375 h -4.09375 c -0.140625,0 -0.234375,0 -0.234375,0.140625 0,0.125 0.09375,0.125 0.21875,0.125 0.0625,0 0.171875,0 0.3125,0.015625 0.15625,0.015625 0.1875,0.03125 0.1875,0.109375 0,0.046875 0,0.078125 -0.03125,0.15625 l -1.0625,4.25 c -0.0625,0.296875 -0.078125,0.359375 -0.671875,0.359375 -0.15625,0 -0.25,0 -0.25,0.15625 C 0.390625,-0.078125 0.421875,0 0.515625,0 0.6875,0 0.875,-0.03125 1.046875,-0.03125 H 2.15625 C 2.296875,-0.015625 2.59375,0 2.734375,0 c 0.0625,0 0.171875,0 0.171875,-0.15625 0,-0.109375 -0.09375,-0.109375 -0.265625,-0.109375 -0.15625,0 -0.21875,0 -0.40625,-0.015625 -0.21875,-0.015625 -0.25,-0.046875 -0.25,-0.140625 0,-0.015625 0,-0.0625 0.046875,-0.171875 z m 0,0"
           id="path3-50" />
      </g>
      <g
         id="glyph-2-0-3">
        <path
           d="m 3.890625,2.90625 c 0,-0.03125 0,-0.0625 -0.203125,-0.265625 C 2.484375,1.4375 1.8125,-0.53125 1.8125,-2.96875 c 0,-2.328125 0.5625,-4.328125 1.953125,-5.734375 0.125,-0.109375 0.125,-0.125 0.125,-0.171875 0,-0.0625 -0.0625,-0.09375 -0.109375,-0.09375 -0.15625,0 -1.140625,0.859375 -1.71875,2.03125 -0.609375,1.21875 -0.890625,2.484375 -0.890625,3.96875 0,1.0625 0.171875,2.484375 0.78125,3.75 C 2.671875,2.21875 3.640625,3 3.78125,3 3.828125,3 3.890625,2.96875 3.890625,2.90625 Z m 0,0"
           id="path4-61" />
      </g>
      <g
         id="glyph-2-1-0">
        <path
           d="M 3.375,-2.96875 C 3.375,-3.890625 3.25,-5.359375 2.578125,-6.75 1.875,-8.1875 0.890625,-8.96875 0.765625,-8.96875 c -0.046875,0 -0.109375,0.03125 -0.109375,0.09375 0,0.046875 0,0.0625 0.203125,0.265625 1.203125,1.203125 1.859375,3.1875 1.859375,5.625 0,2.3125 -0.5625,4.3125 -1.9375,5.71875 C 0.65625,2.84375 0.65625,2.875 0.65625,2.90625 0.65625,2.96875 0.71875,3 0.765625,3 0.921875,3 1.90625,2.140625 2.484375,0.96875 3.09375,-0.25 3.375,-1.546875 3.375,-2.96875 Z m 0,0"
           id="path5-63" />
      </g>
    </g>
    <g
       id="g5-3">
      <g
         id="glyph-0-0-67">
        <path
           d="M 6.078125,-4.5 C 6.234375,-4.5 6.625,-4.5 6.625,-4.890625 6.625,-5.15625 6.390625,-5.15625 6.1875,-5.15625 H 3.53125 c -1.78125,0 -3.078125,2 -3.078125,3.40625 0,1.015625 0.65625,1.875 1.734375,1.875 1.40625,0 2.953125,-1.53125 2.953125,-3.3125 C 5.140625,-3.65625 5.03125,-4.109375 4.75,-4.5 Z m -3.875,4.375 c -0.609375,0 -1.0625,-0.453125 -1.0625,-1.28125 0,-0.71875 0.4375,-3.09375 2.1875,-3.09375 0.515625,0 1.09375,0.25 1.09375,1.171875 0,0.40625 -0.1875,1.421875 -0.609375,2.109375 C 3.375,-0.515625 2.734375,-0.125 2.203125,-0.125 Z m 0,0"
           id="path1-53" />
      </g>
      <g
         id="glyph-0-1-5">
        <path
           d="m 5.671875,-4.875 c -0.390625,0.0625 -0.53125,0.359375 -0.53125,0.578125 0,0.296875 0.21875,0.390625 0.390625,0.390625 0.359375,0 0.609375,-0.3125 0.609375,-0.640625 0,-0.5 -0.578125,-0.71875 -1.078125,-0.71875 -0.71875,0 -1.125,0.71875 -1.234375,0.9375 -0.28125,-0.890625 -1.015625,-0.9375 -1.234375,-0.9375 -1.21875,0 -1.859375,1.5625 -1.859375,1.828125 0,0.046875 0.046875,0.109375 0.125,0.109375 0.09375,0 0.125,-0.078125 0.140625,-0.125 0.40625,-1.328125 1.21875,-1.578125 1.5625,-1.578125 0.53125,0 0.640625,0.5 0.640625,0.78125 0,0.265625 -0.078125,0.546875 -0.21875,1.125 L 2.578125,-1.5 c -0.171875,0.71875 -0.515625,1.375 -1.15625,1.375 -0.0625,0 -0.359375,0 -0.609375,-0.15625 C 1.25,-0.359375 1.34375,-0.71875 1.34375,-0.859375 1.34375,-1.09375 1.15625,-1.25 0.9375,-1.25 c -0.296875,0 -0.609375,0.265625 -0.609375,0.640625 0,0.5 0.5625,0.734375 1.078125,0.734375 0.578125,0 0.984375,-0.453125 1.234375,-0.953125 C 2.828125,-0.125 3.4375,0.125 3.875,0.125 5.09375,0.125 5.734375,-1.453125 5.734375,-1.703125 5.734375,-1.765625 5.6875,-1.8125 5.625,-1.8125 5.515625,-1.8125 5.5,-1.75 5.46875,-1.65625 5.140625,-0.609375 4.453125,-0.125 3.90625,-0.125 3.484375,-0.125 3.265625,-0.4375 3.265625,-0.921875 3.265625,-1.1875 3.3125,-1.375 3.5,-2.15625 L 3.921875,-3.796875 C 4.09375,-4.5 4.5,-5.03125 5.0625,-5.03125 c 0.015625,0 0.359375,0 0.609375,0.15625 z m 0,0"
           id="path2-62" />
      </g>
      <g
         id="glyph-1-0-91">
        <path
           d="M 2.515625,-2.578125 H 3.34375 c 0.65625,0 0.6875,0.125 0.6875,0.359375 0,0.046875 0,0.125 -0.0625,0.34375 0,0.03125 -0.015625,0.09375 -0.015625,0.109375 0,0.015625 0,0.109375 0.125,0.109375 0.09375,0 0.125,-0.078125 0.140625,-0.171875 L 4.640625,-3.53125 c 0.015625,-0.015625 0.03125,-0.125 0.03125,-0.140625 0,-0.03125 -0.015625,-0.109375 -0.125,-0.109375 -0.09375,0 -0.109375,0.078125 -0.125,0.171875 -0.171875,0.625 -0.34375,0.765625 -1.0625,0.765625 H 2.59375 l 0.5,-2.015625 C 3.15625,-5.140625 3.171875,-5.15625 3.5,-5.15625 h 1.171875 c 0.953125,0 1.21875,0.203125 1.21875,0.890625 0,0.15625 -0.046875,0.375 -0.046875,0.515625 0,0.09375 0.0625,0.140625 0.125,0.140625 0.109375,0 0.125,-0.078125 0.140625,-0.203125 L 6.25,-5.171875 c 0,-0.046875 0,-0.09375 0,-0.140625 0,-0.109375 -0.09375,-0.109375 -0.234375,-0.109375 h -4.09375 c -0.140625,0 -0.234375,0 -0.234375,0.140625 0,0.125 0.09375,0.125 0.21875,0.125 0.0625,0 0.171875,0 0.3125,0.015625 0.15625,0.015625 0.1875,0.03125 0.1875,0.109375 0,0.046875 0,0.078125 -0.03125,0.15625 l -1.0625,4.25 c -0.0625,0.296875 -0.078125,0.359375 -0.671875,0.359375 -0.15625,0 -0.25,0 -0.25,0.15625 C 0.390625,-0.078125 0.421875,0 0.515625,0 0.6875,0 0.875,-0.03125 1.046875,-0.03125 H 2.15625 C 2.296875,-0.015625 2.59375,0 2.734375,0 c 0.0625,0 0.171875,0 0.171875,-0.15625 0,-0.109375 -0.09375,-0.109375 -0.265625,-0.109375 -0.15625,0 -0.21875,0 -0.40625,-0.015625 -0.21875,-0.015625 -0.25,-0.046875 -0.25,-0.140625 0,-0.015625 0,-0.0625 0.046875,-0.171875 z m 0,0"
           id="path3-27" />
      </g>
      <g
         id="glyph-2-0-0">
        <path
           d="m 3.890625,2.90625 c 0,-0.03125 0,-0.0625 -0.203125,-0.265625 C 2.484375,1.4375 1.8125,-0.53125 1.8125,-2.96875 c 0,-2.328125 0.5625,-4.328125 1.953125,-5.734375 0.125,-0.109375 0.125,-0.125 0.125,-0.171875 0,-0.0625 -0.0625,-0.09375 -0.109375,-0.09375 -0.15625,0 -1.140625,0.859375 -1.71875,2.03125 -0.609375,1.21875 -0.890625,2.484375 -0.890625,3.96875 0,1.0625 0.171875,2.484375 0.78125,3.75 C 2.671875,2.21875 3.640625,3 3.78125,3 3.828125,3 3.890625,2.96875 3.890625,2.90625 Z m 0,0"
           id="path4" />
      </g>
      <g
         id="glyph-2-1-9">
        <path
           d="M 3.375,-2.96875 C 3.375,-3.890625 3.25,-5.359375 2.578125,-6.75 1.875,-8.1875 0.890625,-8.96875 0.765625,-8.96875 c -0.046875,0 -0.109375,0.03125 -0.109375,0.09375 0,0.046875 0,0.0625 0.203125,0.265625 1.203125,1.203125 1.859375,3.1875 1.859375,5.625 0,2.3125 -0.5625,4.3125 -1.9375,5.71875 C 0.65625,2.84375 0.65625,2.875 0.65625,2.90625 0.65625,2.96875 0.71875,3 0.765625,3 0.921875,3 1.90625,2.140625 2.484375,0.96875 3.09375,-0.25 3.375,-1.546875 3.375,-2.96875 Z m 0,0"
           id="path5-36" />
      </g>
    </g>
    <marker
       id="marker-arrow-0.5308-367"
       orient="auto-start-reverse"
       refY="0"
       refX="0"
       markerHeight="1.6900001"
       markerWidth="0.91100001">
      <g
         transform="scale(2.1535293)"
         id="g1-53">
        <path
           d="M -1.55415,2.0722 C -1.42464,1.29512 0,0.1295 0.38852,0 0,-0.1295 -1.42464,-1.29512 -1.55415,-2.0722"
           style="fill:none;stroke:#000000;stroke-width:0.6;stroke-linecap:round;stroke-linejoin:round;stroke-miterlimit:10;stroke-dasharray:none;stroke-opacity:1"
           id="path1" />
      </g>
    </marker>
    <marker
       id="marker-arrow-0.5308-5"
       orient="auto-start-reverse"
       refY="0"
       refX="0"
       markerHeight="1.6900001"
       markerWidth="0.91100001">
      <g
         transform="scale(2.1535293)"
         id="g1-6">
        <path
           d="M -1.55415,2.0722 C -1.42464,1.29512 0,0.1295 0.38852,0 0,-0.1295 -1.42464,-1.29512 -1.55415,-2.0722"
           style="fill:none;stroke:#000000;stroke-width:0.6;stroke-linecap:round;stroke-linejoin:round;stroke-miterlimit:10;stroke-dasharray:none;stroke-opacity:1"
           id="path1-29" />
      </g>
    </marker>
    <marker
       id="marker-arrow-1.0616-1"
       orient="auto-start-reverse"
       refY="0"
       refX="0"
       markerHeight="1.6900001"
       markerWidth="0.91100001">
      <g
         transform="scale(1.3434313)"
         id="g1-27">
        <path
           d="M -1.55415,2.0722 C -1.42464,1.29512 0,0.1295 0.38852,0 0,-0.1295 -1.42464,-1.29512 -1.55415,-2.0722"
           style="fill:none;stroke:#000000;stroke-width:0.6;stroke-linecap:round;stroke-linejoin:round;stroke-miterlimit:10;stroke-dasharray:none;stroke-opacity:1"
           id="path1-09" />
      </g>
    </marker>
    <marker
       id="marker-arrow-1.0616-3"
       orient="auto-start-reverse"
       refY="0"
       refX="0"
       markerHeight="1.6900001"
       markerWidth="0.91100001">
      <g
         transform="scale(1.3434313)"
         id="g1-60">
        <path
           d="M -1.55415,2.0722 C -1.42464,1.29512 0,0.1295 0.38852,0 0,-0.1295 -1.42464,-1.29512 -1.55415,-2.0722"
           style="fill:none;stroke:#000000;stroke-width:0.6;stroke-linecap:round;stroke-linejoin:round;stroke-miterlimit:10;stroke-dasharray:none;stroke-opacity:1"
           id="path1-6261" />
      </g>
    </marker>
    <marker
       id="marker-arrow-1.0616-8"
       orient="auto-start-reverse"
       refY="0"
       refX="0"
       markerHeight="1.6900001"
       markerWidth="0.91100001">
      <g
         transform="scale(1.3434313)"
         id="g1-79">
        <path
           d="M -1.55415,2.0722 C -1.42464,1.29512 0,0.1295 0.38852,0 0,-0.1295 -1.42464,-1.29512 -1.55415,-2.0722"
           style="fill:none;stroke:#000000;stroke-width:0.6;stroke-linecap:round;stroke-linejoin:round;stroke-miterlimit:10;stroke-dasharray:none;stroke-opacity:1"
           id="path1-20" />
      </g>
    </marker>
    <marker
       id="marker-arrow-1.0616-2"
       orient="auto-start-reverse"
       refY="0"
       refX="0"
       markerHeight="1.6900001"
       markerWidth="0.91100001">
      <g
         transform="scale(1.3434313)"
         id="g1-37">
        <path
           d="M -1.55415,2.0722 C -1.42464,1.29512 0,0.1295 0.38852,0 0,-0.1295 -1.42464,-1.29512 -1.55415,-2.0722"
           style="fill:none;stroke:#000000;stroke-width:0.6;stroke-linecap:round;stroke-linejoin:round;stroke-miterlimit:10;stroke-dasharray:none;stroke-opacity:1"
           id="path1-592" />
      </g>
    </marker>
    <g
       id="g1-28">
      <g
         id="glyph-0-0-97">
        <path
           d="m 3.359375,-8 c 0.015625,-0.046875 0.03125,-0.109375 0.03125,-0.171875 0,-0.125 -0.109375,-0.125 -0.140625,-0.125 -0.015625,0 -0.4375,0.03125 -0.65625,0.0625 C 2.390625,-8.21875 2.21875,-8.203125 2,-8.1875 c -0.296875,0.03125 -0.375,0.03125 -0.375,0.25 0,0.125 0.125,0.125 0.234375,0.125 0.609375,0 0.609375,0.109375 0.609375,0.21875 0,0.046875 0,0.078125 -0.046875,0.296875 L 0.703125,-0.46875 C 0.65625,-0.28125 0.65625,-0.265625 0.65625,-0.1875 c 0,0.265625 0.203125,0.3125 0.328125,0.3125 0.328125,0 0.40625,-0.265625 0.5,-0.640625 L 2.046875,-2.75 c 0.859375,0.09375 1.375,0.453125 1.375,1.03125 0,0.0625 0,0.109375 -0.046875,0.296875 -0.046875,0.171875 -0.046875,0.328125 -0.046875,0.375 0,0.703125 0.46875,1.171875 1.078125,1.171875 0.546875,0 0.828125,-0.5 0.921875,-0.671875 0.25,-0.4375 0.40625,-1.109375 0.40625,-1.15625 0,-0.0625 -0.046875,-0.109375 -0.109375,-0.109375 -0.109375,0 -0.125,0.046875 -0.171875,0.234375 C 5.28125,-0.953125 5.03125,-0.125 4.421875,-0.125 4.1875,-0.125 4.03125,-0.234375 4.03125,-0.6875 c 0,-0.234375 0.046875,-0.5 0.09375,-0.671875 0.046875,-0.21875 0.046875,-0.234375 0.046875,-0.375 0,-0.703125 -0.640625,-1.09375 -1.734375,-1.234375 0.4375,-0.265625 0.859375,-0.734375 1.03125,-0.921875 0.671875,-0.765625 1.140625,-1.140625 1.6875,-1.140625 0.28125,0 0.359375,0.078125 0.4375,0.140625 -0.4375,0.046875 -0.609375,0.359375 -0.609375,0.59375 0,0.296875 0.234375,0.390625 0.390625,0.390625 0.328125,0 0.609375,-0.28125 0.609375,-0.65625 0,-0.34375 -0.265625,-0.703125 -0.8125,-0.703125 -0.65625,0 -1.1875,0.453125 -2.046875,1.421875 -0.109375,0.140625 -0.5625,0.59375 -1,0.765625 z m 0,0"
           id="path1-36" />
      </g>
    </g>
    <g
       id="g2-9">
      <g
         id="glyph-0-0-319">
        <path
           d="m 2.140625,-2.765625 c 0.328125,0 1.140625,-0.03125 1.703125,-0.25 0.90625,-0.34375 1,-1.03125 1,-1.25 0,-0.53125 -0.453125,-1 -1.25,-1 -1.25,0 -3.0625,1.125 -3.0625,3.25 C 0.53125,-0.75 1.25,0.125 2.34375,0.125 3.96875,0.125 5,-1.140625 5,-1.296875 5,-1.375 4.921875,-1.4375 4.875,-1.4375 c -0.03125,0 -0.046875,0.015625 -0.15625,0.125 -0.765625,1.015625 -1.890625,1.1875 -2.359375,1.1875 -0.671875,0 -1.03125,-0.53125 -1.03125,-1.421875 0,-0.15625 0,-0.46875 0.171875,-1.21875 z m -0.578125,-0.25 c 0.515625,-1.84375 1.65625,-2.015625 2.03125,-2.015625 0.53125,0 0.890625,0.3125 0.890625,0.765625 0,1.25 -1.921875,1.25 -2.421875,1.25 z m 0,0"
           id="path1-4" />
      </g>
      <g
         id="glyph-1-0-7">
        <path
           d="m 2.25,-1.625 c 0.125,-0.125 0.453125,-0.390625 0.59375,-0.5 0.484375,-0.453125 0.953125,-0.890625 0.953125,-1.609375 0,-0.953125 -0.796875,-1.5625 -1.78125,-1.5625 -0.96875,0 -1.59375,0.71875 -1.59375,1.4375 0,0.390625 0.3125,0.4375 0.421875,0.4375 0.171875,0 0.421875,-0.109375 0.421875,-0.421875 0,-0.40625 -0.40625,-0.40625 -0.5,-0.40625 C 1,-4.84375 1.53125,-5.03125 1.921875,-5.03125 c 0.734375,0 1.125,0.625 1.125,1.296875 0,0.828125 -0.578125,1.4375 -1.53125,2.390625 l -1,1.046875 C 0.421875,-0.21875 0.421875,-0.203125 0.421875,0 H 3.5625 l 0.234375,-1.421875 h -0.25 C 3.53125,-1.265625 3.46875,-0.875 3.375,-0.71875 c -0.046875,0.0625 -0.65625,0.0625 -0.78125,0.0625 H 1.171875 Z m 0,0"
           id="path2-84" />
      </g>
    </g>
    <g
       id="g2-0">
      <g
         id="glyph-0-0-36">
        <path
           d="m 2.140625,-2.765625 c 0.328125,0 1.140625,-0.03125 1.703125,-0.25 0.90625,-0.34375 1,-1.03125 1,-1.25 0,-0.53125 -0.453125,-1 -1.25,-1 -1.25,0 -3.0625,1.125 -3.0625,3.25 C 0.53125,-0.75 1.25,0.125 2.34375,0.125 3.96875,0.125 5,-1.140625 5,-1.296875 5,-1.375 4.921875,-1.4375 4.875,-1.4375 c -0.03125,0 -0.046875,0.015625 -0.15625,0.125 -0.765625,1.015625 -1.890625,1.1875 -2.359375,1.1875 -0.671875,0 -1.03125,-0.53125 -1.03125,-1.421875 0,-0.15625 0,-0.46875 0.171875,-1.21875 z m -0.578125,-0.25 c 0.515625,-1.84375 1.65625,-2.015625 2.03125,-2.015625 0.53125,0 0.890625,0.3125 0.890625,0.765625 0,1.25 -1.921875,1.25 -2.421875,1.25 z m 0,0"
           id="path1-10" />
      </g>
      <g
         id="glyph-1-0-6">
        <path
           d="m 2.015625,-2.65625 c 0.625,0 1.03125,0.453125 1.03125,1.296875 0,1 -0.5625,1.28125 -0.984375,1.28125 -0.4375,0 -1.046875,-0.15625 -1.328125,-0.578125 0.296875,0 0.5,-0.1875 0.5,-0.4375 0,-0.265625 -0.1875,-0.4375 -0.453125,-0.4375 -0.203125,0 -0.4375,0.125 -0.4375,0.453125 0,0.75 0.8125,1.25 1.734375,1.25 C 3.125,0.171875 3.875,-0.5625 3.875,-1.359375 3.875,-2.03125 3.34375,-2.625 2.53125,-2.8125 c 0.625,-0.21875 1.109375,-0.75 1.109375,-1.390625 0,-0.640625 -0.71875,-1.09375 -1.546875,-1.09375 -0.859375,0 -1.5,0.453125 -1.5,1.0625 0,0.296875 0.1875,0.421875 0.40625,0.421875 0.25,0 0.40625,-0.171875 0.40625,-0.40625 0,-0.296875 -0.265625,-0.40625 -0.4375,-0.40625 0.34375,-0.4375 0.953125,-0.46875 1.09375,-0.46875 0.203125,0 0.8125,0.0625 0.8125,0.890625 0,0.546875 -0.234375,0.890625 -0.34375,1.015625 -0.234375,0.25 -0.421875,0.265625 -0.90625,0.296875 -0.15625,0 -0.21875,0.015625 -0.21875,0.125 0,0.109375 0.078125,0.109375 0.21875,0.109375 z m 0,0"
           id="path2-3" />
      </g>
    </g>
    <g
       id="g2-1">
      <g
         id="glyph-0-0-55">
        <path
           d="m 2.140625,-2.765625 c 0.328125,0 1.140625,-0.03125 1.703125,-0.25 0.90625,-0.34375 1,-1.03125 1,-1.25 0,-0.53125 -0.453125,-1 -1.25,-1 -1.25,0 -3.0625,1.125 -3.0625,3.25 C 0.53125,-0.75 1.25,0.125 2.34375,0.125 3.96875,0.125 5,-1.140625 5,-1.296875 5,-1.375 4.921875,-1.4375 4.875,-1.4375 c -0.03125,0 -0.046875,0.015625 -0.15625,0.125 -0.765625,1.015625 -1.890625,1.1875 -2.359375,1.1875 -0.671875,0 -1.03125,-0.53125 -1.03125,-1.421875 0,-0.15625 0,-0.46875 0.171875,-1.21875 z m -0.578125,-0.25 c 0.515625,-1.84375 1.65625,-2.015625 2.03125,-2.015625 0.53125,0 0.890625,0.3125 0.890625,0.765625 0,1.25 -1.921875,1.25 -2.421875,1.25 z m 0,0"
           id="path1-47" />
      </g>
      <g
         id="glyph-1-0-65">
        <path
           d="m 1.59375,-1.3125 c 0.03125,-0.109375 0.109375,-0.421875 0.125,-0.53125 0.109375,-0.4375 0.109375,-0.4375 0.296875,-0.703125 0.265625,-0.390625 0.640625,-0.75 1.171875,-0.75 0.28125,0 0.453125,0.171875 0.453125,0.546875 0,0.4375 -0.328125,1.34375 -0.484375,1.734375 -0.109375,0.265625 -0.109375,0.3125 -0.109375,0.421875 0,0.453125 0.375,0.671875 0.71875,0.671875 0.78125,0 1.109375,-1.109375 1.109375,-1.21875 C 4.875,-1.21875 4.8125,-1.25 4.75,-1.25 c -0.09375,0 -0.109375,0.0625 -0.125,0.140625 -0.1875,0.65625 -0.53125,0.96875 -0.828125,0.96875 -0.125,0 -0.1875,-0.078125 -0.1875,-0.265625 0,-0.1875 0.0625,-0.359375 0.140625,-0.5625 0.109375,-0.296875 0.46875,-1.21875 0.46875,-1.65625 0,-0.609375 -0.421875,-0.890625 -0.984375,-0.890625 -0.65625,0 -1.0625,0.390625 -1.296875,0.6875 -0.0625,-0.4375 -0.40625,-0.6875 -0.8125,-0.6875 -0.28125,0 -0.484375,0.1875 -0.609375,0.4375 -0.203125,0.375 -0.28125,0.765625 -0.28125,0.78125 0,0.078125 0.0625,0.109375 0.125,0.109375 0.109375,0 0.109375,-0.03125 0.171875,-0.25 0.09375,-0.390625 0.234375,-0.859375 0.5625,-0.859375 0.21875,0 0.265625,0.203125 0.265625,0.375 0,0.15625 -0.046875,0.296875 -0.109375,0.5625 -0.015625,0.0625 -0.140625,0.53125 -0.171875,0.640625 L 0.78125,-0.515625 c -0.03125,0.125 -0.078125,0.3125 -0.078125,0.34375 0,0.1875 0.15625,0.25 0.265625,0.25 0.140625,0 0.265625,-0.09375 0.3125,-0.1875 C 1.3125,-0.15625 1.375,-0.4375 1.40625,-0.59375 Z m 0,0"
           id="path2-69" />
      </g>
    </g>
    <g
       id="g1-4">
      <g
         id="glyph-0-0-52">
        <path
           d="m 1.53125,-1.15625 c -0.25,0.046875 -0.484375,0.265625 -0.484375,0.5625 0,0.3125 0.25,0.578125 0.5625,0.578125 0.3125,0 0.59375,-0.234375 0.59375,-0.5625 0,-0.3125 -0.265625,-0.59375 -0.578125,-0.59375 -0.03125,0 -0.0625,0.015625 -0.09375,0.015625 z m 0,0"
           id="path1-54" />
      </g>
    </g>
    <g
       id="g2-6">
      <g
         id="glyph-0-0-75">
        <path
           d="m 2.140625,-2.765625 c 0.328125,0 1.140625,-0.03125 1.703125,-0.25 0.90625,-0.34375 1,-1.03125 1,-1.25 0,-0.53125 -0.453125,-1 -1.25,-1 -1.25,0 -3.0625,1.125 -3.0625,3.25 C 0.53125,-0.75 1.25,0.125 2.34375,0.125 3.96875,0.125 5,-1.140625 5,-1.296875 5,-1.375 4.921875,-1.4375 4.875,-1.4375 c -0.03125,0 -0.046875,0.015625 -0.15625,0.125 -0.765625,1.015625 -1.890625,1.1875 -2.359375,1.1875 -0.671875,0 -1.03125,-0.53125 -1.03125,-1.421875 0,-0.15625 0,-0.46875 0.171875,-1.21875 z m -0.578125,-0.25 c 0.515625,-1.84375 1.65625,-2.015625 2.03125,-2.015625 0.53125,0 0.890625,0.3125 0.890625,0.765625 0,1.25 -1.921875,1.25 -2.421875,1.25 z m 0,0"
           id="path1-356" />
      </g>
      <g
         id="glyph-1-0-2">
        <path
           d="m 2.5,-5.078125 c 0,-0.21875 -0.015625,-0.21875 -0.234375,-0.21875 -0.328125,0.3125 -0.75,0.5 -1.5,0.5 v 0.265625 c 0.21875,0 0.640625,0 1.109375,-0.203125 v 4.078125 c 0,0.296875 -0.03125,0.390625 -0.78125,0.390625 H 0.8125 V 0 c 0.328125,-0.03125 1.015625,-0.03125 1.375,-0.03125 0.359375,0 1.046875,0 1.375,0.03125 V -0.265625 H 3.28125 c -0.75,0 -0.78125,-0.09375 -0.78125,-0.390625 z m 0,0"
           id="path2-9" />
      </g>
    </g>
    <marker
       id="marker-arrow-0.5308-70"
       orient="auto-start-reverse"
       refY="0"
       refX="0"
       markerHeight="1.6900001"
       markerWidth="0.91100001">
      <g
         transform="scale(2.1535293)"
         id="g1-936">
        <path
           d="M -1.55415,2.0722 C -1.42464,1.29512 0,0.1295 0.38852,0 0,-0.1295 -1.42464,-1.29512 -1.55415,-2.0722"
           style="fill:none;stroke:#000000;stroke-width:0.6;stroke-linecap:round;stroke-linejoin:round;stroke-miterlimit:10;stroke-dasharray:none;stroke-opacity:1"
           id="path1-06" />
      </g>
    </marker>
    <marker
       id="marker-arrow-0.5308-2"
       orient="auto-start-reverse"
       refY="0"
       refX="0"
       markerHeight="1.6900001"
       markerWidth="0.91100001">
      <g
         transform="scale(2.1535293)"
         id="g1-61">
        <path
           d="M -1.55415,2.0722 C -1.42464,1.29512 0,0.1295 0.38852,0 0,-0.1295 -1.42464,-1.29512 -1.55415,-2.0722"
           style="fill:none;stroke:#000000;stroke-width:0.6;stroke-linecap:round;stroke-linejoin:round;stroke-miterlimit:10;stroke-dasharray:none;stroke-opacity:1"
           id="path1-8" />
      </g>
    </marker>
    <g
       id="g1-792">
      <g
         id="glyph-0-0-0">
        <path
           d="m 5.296875,-6.015625 c 0,-1.21875 -0.390625,-2.40625 -1.359375,-2.40625 -1.671875,0 -3.453125,3.515625 -3.453125,6.140625 0,0.546875 0.109375,2.40625 1.375,2.40625 1.625,0 3.4375,-3.421875 3.4375,-6.140625 z m -3.625,1.6875 c 0.1875,-0.703125 0.4375,-1.703125 0.90625,-2.5625 0.390625,-0.71875 0.8125,-1.28125 1.34375,-1.28125 0.390625,0 0.65625,0.328125 0.65625,1.484375 0,0.421875 -0.03125,1.015625 -0.375,2.359375 z m 2.4375,0.359375 C 3.8125,-2.796875 3.5625,-2.046875 3.125,-1.296875 2.78125,-0.6875 2.359375,-0.125 1.859375,-0.125 1.5,-0.125 1.1875,-0.40625 1.1875,-1.59375 c 0,-0.765625 0.203125,-1.578125 0.390625,-2.375 z m 0,0"
           id="path1-23" />
      </g>
    </g>
  </defs>
  <metadata
     id="metadata5">
    <rdf:RDF>
      <cc:Work
         rdf:about="">
        <dc:format>image/svg+xml</dc:format>
        <dc:type
           rdf:resource="http://purl.org/dc/dcmitype/StillImage" />
        <dc:title />
      </cc:Work>
    </rdf:RDF>
  </metadata>
  <g
     id="layer1"
     transform="translate(-202.23138,-130.87999)">
    <rect
       style="fill:none;fill-opacity:1;stroke:#000000;stroke-width:0.370609;stroke-linecap:round;stroke-linejoin:round;stroke-dasharray:none;stroke-opacity:1;marker-start:none;marker-end:none;paint-order:markers stroke fill"
       id="rect1"
       width="80.248116"
       height="36.435703"
       x="248.79771"
       y="164.0383"
       transform="matrix(0.9999992,-0.00126293,-0.23133144,0.972875,0,0)" />
    <path
       style="fill:none;fill-opacity:1;stroke:#000000;stroke-width:0.280059;stroke-linecap:round;stroke-linejoin:round;stroke-dasharray:2.10046, 2.10046;stroke-opacity:1;marker-start:none;marker-end:none;paint-order:markers stroke fill"
       d="m 243.37309,170.40326 v 27.2606"
       id="path2" />
    <path
       style="fill:none;fill-opacity:1;stroke:#000000;stroke-width:0.280059;stroke-linecap:round;stroke-linejoin:round;stroke-dasharray:none;stroke-opacity:1;marker-start:none;marker-end:none;paint-order:markers stroke fill"
       d="m 243.37309,197.66386 v 10.54545"
       id="path3" />
    <path
       style="fill:none;fill-opacity:1;stroke:#000000;stroke-width:0.280059;stroke-linecap:round;stroke-linejoin:round;stroke-dasharray:none;stroke-opacity:1;marker-start:none;marker-end:none;paint-order:markers stroke fill"
       d="M 243.37309,170.40326 V 131.02002"
       id="path8" />
    <g
       id="path9"
       style="opacity:1">
      <g
         id="g32">
        <g
           transform="matrix(-0.66393572,0.35414342,-0.35414342,-0.66393572,219.35045,183.21694)"
           id="g33">
          <path
             style="baseline-shift:baseline;display:inline;overflow:visible;opacity:1;vector-effect:none;stroke-linecap:round;stroke-linejoin:round;stroke-miterlimit:10;enable-background:accumulate;stop-color:#000000;stop-opacity:1"
             d="m -1.6035156,-2.3671875 a 0.30000001,0.30000001 0 0 0 -0.2460938,0.34375 c 0.090081,0.5404981 0.5200776,1.023359 0.96093752,1.44726563 0.22042997,0.21195332 0.44821888,0.40042472 0.65039063,0.54882812 0.0178005,0.01306637 0.0297375,0.01494132 0.046875,0.02734375 -0.0171375,0.01240243 -0.0290745,0.01427738 -0.046875,0.02734375 C -0.440453,0.17574715 -0.66824191,0.36421855 -0.88867188,0.57617187 -1.3295318,1.0000785 -1.7595287,1.4829394 -1.8496094,2.0234375 a 0.30000001,0.30000001 0 0 0 0.2460938,0.34375 0.30000001,0.30000001 0 0 0 0.3457031,-0.2460937 C -1.2183832,1.8845119 -0.87362381,1.395314 -0.47265625,1.0097656 -0.27217247,0.81699145 -0.06107918,0.64257473 0.1171875,0.51171875 0.29545418,0.38086277 0.46119455,0.29223166 0.48242188,0.28515625 a 0.30003001,0.30003001 0 0 0 0,-0.5703125 C 0.46119455,-0.29223166 0.29545418,-0.38086277 0.1171875,-0.51171875 -0.06107918,-0.64257473 -0.27217247,-0.81699145 -0.47265625,-1.0097656 -0.87362381,-1.395314 -1.2183832,-1.8845119 -1.2578125,-2.1210938 a 0.30000001,0.30000001 0 0 0 -0.3457031,-0.2460937 z"
             id="path33" />
        </g>
      </g>
      <path
         style="baseline-shift:baseline;display:inline;overflow:visible;vector-effect:none;stroke-linecap:round;stroke-linejoin:round;paint-order:markers stroke fill;enable-background:accumulate;stop-color:#000000;stop-opacity:1"
         d="m 243.24219,170.15625 -24.02344,12.81445 a 0.28005949,0.28005949 0 0 0 -0.11523,0.37891 0.28005949,0.28005949 0 0 0 0.3789,0.11523 l 24.02344,-12.81445 a 0.28005949,0.28005949 0 0 0 0.11523,-0.37891 0.28005949,0.28005949 0 0 0 -0.3789,-0.11523 z"
         id="path34" />
    </g>
    <g
       id="path11"
       style="opacity:1">
      <g
         id="g35">
        <g
           transform="matrix(0.47518675,0.58346015,-0.58346015,0.47518675,257.21355,187.39733)"
           id="g36">
          <path
             style="baseline-shift:baseline;display:inline;overflow:visible;opacity:1;vector-effect:none;stroke-linecap:round;stroke-linejoin:round;stroke-miterlimit:10;enable-background:accumulate;stop-color:#000000;stop-opacity:1"
             d="m -1.6035156,-2.3671875 a 0.30000001,0.30000001 0 0 0 -0.2460938,0.34375 c 0.090081,0.5404981 0.5200776,1.023359 0.96093752,1.44726563 0.22042997,0.21195332 0.44821888,0.40042472 0.65039063,0.54882812 0.0178005,0.01306637 0.0297375,0.01494132 0.046875,0.02734375 -0.0171375,0.01240243 -0.0290745,0.01427738 -0.046875,0.02734375 C -0.440453,0.17574715 -0.66824191,0.36421855 -0.88867188,0.57617187 -1.3295318,1.0000785 -1.7595287,1.4829394 -1.8496094,2.0234375 a 0.30000001,0.30000001 0 0 0 0.2460938,0.34375 0.30000001,0.30000001 0 0 0 0.3457031,-0.2460937 C -1.2183832,1.8845119 -0.87362381,1.395314 -0.47265625,1.0097656 -0.27217247,0.81699145 -0.06107918,0.64257473 0.1171875,0.51171875 0.29545418,0.38086277 0.46119455,0.29223166 0.48242188,0.28515625 a 0.30003001,0.30003001 0 0 0 0,-0.5703125 C 0.46119455,-0.29223166 0.29545418,-0.38086277 0.1171875,-0.51171875 -0.06107918,-0.64257473 -0.27217247,-0.81699145 -0.47265625,-1.0097656 -0.87362381,-1.395314 -1.2183832,-1.8845119 -1.2578125,-2.1210938 a 0.30000001,0.30000001 0 0 0 -0.3457031,-0.2460937 z"
             id="path35" />
        </g>
      </g>
      <path
         style="baseline-shift:baseline;display:inline;overflow:visible;vector-effect:none;stroke-linecap:round;stroke-linejoin:round;paint-order:markers stroke fill;enable-background:accumulate;stop-color:#000000;stop-opacity:1"
         d="m 243.19531,170.18555 a 0.28005949,0.28005949 0 0 0 -0.0391,0.39453 l 13.83984,16.99414 a 0.28005949,0.28005949 0 0 0 0.39453,0.041 0.28005949,0.28005949 0 0 0 0.041,-0.39453 l -13.8418,-16.99414 a 0.28005949,0.28005949 0 0 0 -0.39453,-0.041 z"
         id="path37" />
    </g>
    <g
       id="path12"
       style="opacity:1">
      <g
         id="g4">
        <g
           transform="matrix(0,-0.75248136,0.75248136,0,243.37309,146.40269)"
           id="g23">
          <path
             style="baseline-shift:baseline;display:inline;overflow:visible;opacity:1;vector-effect:none;stroke-linecap:round;stroke-linejoin:round;stroke-miterlimit:10;enable-background:accumulate;stop-color:#000000;stop-opacity:1"
             d="m -1.6035156,-2.3671875 a 0.30000001,0.30000001 0 0 0 -0.2460938,0.34375 c 0.090081,0.5404981 0.5200776,1.023359 0.96093752,1.44726563 0.22042997,0.21195332 0.44821888,0.40042472 0.65039063,0.54882812 0.0178005,0.01306637 0.0297375,0.01494132 0.046875,0.02734375 -0.0171375,0.01240243 -0.0290745,0.01427738 -0.046875,0.02734375 C -0.440453,0.17574715 -0.66824191,0.36421855 -0.88867188,0.57617187 -1.3295318,1.0000785 -1.7595287,1.4829394 -1.8496094,2.0234375 a 0.30000001,0.30000001 0 0 0 0.2460938,0.34375 0.30000001,0.30000001 0 0 0 0.3457031,-0.2460937 C -1.2183832,1.8845119 -0.87362381,1.395314 -0.47265625,1.0097656 -0.27217247,0.81699145 -0.06107918,0.64257473 0.1171875,0.51171875 0.29545418,0.38086277 0.46119455,0.29223166 0.48242188,0.28515625 a 0.30003001,0.30003001 0 0 0 0,-0.5703125 C 0.46119455,-0.29223166 0.29545418,-0.38086277 0.1171875,-0.51171875 -0.06107918,-0.64257473 -0.27217247,-0.81699145 -0.47265625,-1.0097656 -0.87362381,-1.395314 -1.2183832,-1.8845119 -1.2578125,-2.1210938 a 0.30000001,0.30000001 0 0 0 -0.3457031,-0.2460937 z"
             id="path22" />
        </g>
      </g>
      <path
         style="baseline-shift:baseline;display:inline;overflow:visible;vector-effect:none;stroke-linecap:round;stroke-linejoin:round;paint-order:markers stroke fill;enable-background:accumulate;stop-color:#000000;stop-opacity:1"
         d="m 243.37305,146.12305 a 0.28005949,0.28005949 0 0 0 -0.2793,0.27929 v 24.28125 a 0.28005949,0.28005949 0 0 0 0.2793,0.2793 0.28005949,0.28005949 0 0 0 0.27929,-0.2793 v -24.28125 a 0.28005949,0.28005949 0 0 0 -0.27929,-0.27929 z"
         id="path28" />
    </g>
    <use
       xlink:href="#glyph-0-0-319"
       x="11.955"
       y="17.103001"
       id="use2"
       transform="matrix(0.52761767,0,0,0.52761767,209.92103,169.2589)"
       style="fill:#000000;fill-opacity:1" />
    <use
       xlink:href="#glyph-1-0-7"
       x="17.381001"
       y="18.896"
       id="use3"
       transform="matrix(0.52761767,0,0,0.52761767,209.92103,169.2589)"
       style="fill:#000000;fill-opacity:1" />
    <use
       xlink:href="#glyph-0-0-36"
       x="11.955"
       y="17.103001"
       id="use2-2"
       transform="matrix(0.52761767,0,0,0.52761767,254.02045,177.41753)"
       style="fill:#000000;fill-opacity:1" />
    <use
       xlink:href="#glyph-1-0-6"
       x="17.381001"
       y="18.896"
       id="use3-0"
       transform="matrix(0.52761767,0,0,0.52761767,254.02045,177.41753)"
       style="fill:#000000;fill-opacity:1" />
    <use
       xlink:href="#glyph-0-0-75"
       x="11.955"
       y="17.103001"
       id="use2-1"
       transform="matrix(0.52761767,0,0,0.52761767,240.68066,137.52853)"
       style="fill:#000000;fill-opacity:1" />
    <use
       xlink:href="#glyph-1-0-2"
       x="17.381001"
       y="18.896"
       id="use3-2"
       transform="matrix(0.52761767,0,0,0.52761767,240.68066,137.52853)"
       style="fill:#000000;fill-opacity:1" />
    <path
       style="fill:none;fill-opacity:1;stroke:#000000;stroke-width:0.280059;stroke-linecap:round;stroke-linejoin:round;stroke-dasharray:none;stroke-opacity:1;marker-start:none;marker-end:none;paint-order:markers stroke fill"
       d="m 241.02175,171.62467 1.55518,1.79922 2.29957,-1.28052"
       id="path10" />
    <path
       style="fill:none;fill-opacity:1;stroke:#000000;stroke-width:0.280059;stroke-linecap:round;stroke-linejoin:round;stroke-dasharray:none;stroke-opacity:1;marker-start:none;marker-end:none;paint-order:markers stroke fill"
       d="m 244.97557,172.30272 8e-5,-2.59364 -1.63676,-1.83822"
       id="path13" />
    <g
       id="path14"
       style="opacity:1;fill:#0000ff"
       transform="matrix(1.9941456,0,0,1.9941456,-201.22789,-207.12899)">
      <g
         id="g30"
         style="fill:#0000ff">
        <g
           transform="matrix(0.30195963,-0.01710679,0.01710679,0.30195963,231.06369,188.93199)"
           id="g31"
           style="fill:#0000ff">
          <path
             style="baseline-shift:baseline;display:inline;overflow:visible;opacity:1;vector-effect:none;fill:#0000ff;stroke-linecap:round;stroke-linejoin:round;stroke-miterlimit:10;enable-background:accumulate;stop-color:#000000;stop-opacity:1"
             d="m -1.6035156,-2.3671875 a 0.30000001,0.30000001 0 0 0 -0.2460938,0.34375 c 0.090081,0.5404981 0.5200776,1.023359 0.96093752,1.44726563 0.22042997,0.21195332 0.44821888,0.40042472 0.65039063,0.54882812 0.0178005,0.01306637 0.0297375,0.01494132 0.046875,0.02734375 -0.0171375,0.01240243 -0.0290745,0.01427738 -0.046875,0.02734375 C -0.440453,0.17574715 -0.66824191,0.36421855 -0.88867188,0.57617187 -1.3295318,1.0000785 -1.7595287,1.4829394 -1.8496094,2.0234375 a 0.30000001,0.30000001 0 0 0 0.2460938,0.34375 0.30000001,0.30000001 0 0 0 0.3457031,-0.2460937 C -1.2183832,1.8845119 -0.87362381,1.395314 -0.47265625,1.0097656 -0.27217247,0.81699145 -0.06107918,0.64257473 0.1171875,0.51171875 0.29545418,0.38086277 0.46119455,0.29223166 0.48242188,0.28515625 a 0.30003001,0.30003001 0 0 0 0,-0.5703125 C 0.46119455,-0.29223166 0.29545418,-0.38086277 0.1171875,-0.51171875 -0.06107918,-0.64257473 -0.27217247,-0.81699145 -0.47265625,-1.0097656 -0.87362381,-1.395314 -1.2183832,-1.8845119 -1.2578125,-2.1210938 a 0.30000001,0.30000001 0 0 0 -0.3457031,-0.2460937 z"
             id="path30" />
        </g>
      </g>
      <path
         style="baseline-shift:baseline;display:inline;overflow:visible;vector-effect:none;fill:#0000ff;stroke-linecap:round;stroke-linejoin:round;paint-order:markers stroke fill;enable-background:accumulate;stop-color:#000000;stop-opacity:1"
         d="m 231.06055,188.86133 -8.10743,0.45898 a 0.0702205,0.0702205 0 0 0 -0.0664,0.0742 0.0702205,0.0702205 0 0 0 0.0742,0.0664 l 8.10742,-0.45899 a 0.0702205,0.0702205 0 0 0 0.0664,-0.0742 0.0702205,0.0702205 0 0 0 -0.0742,-0.0664 z"
         id="path32" />
    </g>
    <g
       id="path15"
       style="opacity:1;fill:#0000ff"
       transform="matrix(1.9941456,0,0,1.9941456,-201.2084,-206.91111)">
      <g
         id="g21"
         style="fill:#0000ff">
        <g
           transform="matrix(0.07818643,0.29216287,-0.29216287,0.07818643,225.09914,197.25378)"
           id="g22"
           style="fill:#0000ff">
          <path
             style="baseline-shift:baseline;display:inline;overflow:visible;opacity:1;vector-effect:none;fill:#0000ff;stroke-linecap:round;stroke-linejoin:round;stroke-miterlimit:10;enable-background:accumulate;stop-color:#000000;stop-opacity:1"
             d="m -1.6035156,-2.3671875 a 0.30000001,0.30000001 0 0 0 -0.2460938,0.34375 c 0.090081,0.5404981 0.5200776,1.023359 0.96093752,1.44726563 0.22042997,0.21195332 0.44821888,0.40042472 0.65039063,0.54882812 0.0178005,0.01306637 0.0297375,0.01494132 0.046875,0.02734375 -0.0171375,0.01240243 -0.0290745,0.01427738 -0.046875,0.02734375 C -0.440453,0.17574715 -0.66824191,0.36421855 -0.88867188,0.57617187 -1.3295318,1.0000785 -1.7595287,1.4829394 -1.8496094,2.0234375 a 0.30000001,0.30000001 0 0 0 0.2460938,0.34375 0.30000001,0.30000001 0 0 0 0.3457031,-0.2460937 C -1.2183832,1.8845119 -0.87362381,1.395314 -0.47265625,1.0097656 -0.27217247,0.81699145 -0.06107918,0.64257473 0.1171875,0.51171875 0.29545418,0.38086277 0.46119455,0.29223166 0.48242188,0.28515625 a 0.30003001,0.30003001 0 0 0 0,-0.5703125 C 0.46119455,-0.29223166 0.29545418,-0.38086277 0.1171875,-0.51171875 -0.06107918,-0.64257473 -0.27217247,-0.81699145 -0.47265625,-1.0097656 -0.87362381,-1.395314 -1.2183832,-1.8845119 -1.2578125,-2.1210938 a 0.30000001,0.30000001 0 0 0 -0.3457031,-0.2460937 z"
             id="path21" />
        </g>
      </g>
      <path
         style="baseline-shift:baseline;display:inline;overflow:visible;vector-effect:none;fill:#0000ff;stroke-linecap:round;stroke-linejoin:round;paint-order:markers stroke fill;enable-background:accumulate;stop-color:#000000;stop-opacity:1"
         d="m 222.93945,189.18359 a 0.0702205,0.0702205 0 0 0 -0.0508,0.0859 l 2.14258,8.00195 a 0.0702205,0.0702205 0 0 0 0.0859,0.0508 0.0702205,0.0702205 0 0 0 0.0488,-0.0859 l -2.14063,-8.00391 a 0.0702205,0.0702205 0 0 0 -0.0859,-0.0488 z"
         id="path23" />
    </g>
    <g
       id="path16"
       style="opacity:1">
      <g
         id="g8">
        <g
           transform="matrix(0.08432186,-0.59719165,0.59719165,0.08432186,249.75327,170.60919)"
           id="g26">
          <path
             style="baseline-shift:baseline;display:inline;overflow:visible;opacity:1;vector-effect:none;stroke-linecap:round;stroke-linejoin:round;stroke-miterlimit:10;enable-background:accumulate;stop-color:#000000;stop-opacity:1"
             d="m -1.6035156,-2.3671875 a 0.30000001,0.30000001 0 0 0 -0.2460938,0.34375 c 0.090081,0.5404981 0.5200776,1.023359 0.96093752,1.44726563 0.22042997,0.21195332 0.44821888,0.40042472 0.65039063,0.54882812 0.0178005,0.01306637 0.0297375,0.01494132 0.046875,0.02734375 -0.0171375,0.01240243 -0.0290745,0.01427738 -0.046875,0.02734375 C -0.440453,0.17574715 -0.66824191,0.36421855 -0.88867188,0.57617187 -1.3295318,1.0000785 -1.7595287,1.4829394 -1.8496094,2.0234375 a 0.30000001,0.30000001 0 0 0 0.2460938,0.34375 0.30000001,0.30000001 0 0 0 0.3457031,-0.2460937 C -1.2183832,1.8845119 -0.87362381,1.395314 -0.47265625,1.0097656 -0.27217247,0.81699145 -0.06107918,0.64257473 0.1171875,0.51171875 0.29545418,0.38086277 0.46119455,0.29223166 0.48242188,0.28515625 a 0.30003001,0.30003001 0 0 0 0,-0.5703125 C 0.46119455,-0.29223166 0.29545418,-0.38086277 0.1171875,-0.51171875 -0.06107918,-0.64257473 -0.27217247,-0.81699145 -0.47265625,-1.0097656 -0.87362381,-1.395314 -1.2183832,-1.8845119 -1.2578125,-2.1210938 a 0.30000001,0.30000001 0 0 0 -0.3457031,-0.2460937 z"
             id="path25" />
        </g>
      </g>
      <path
         style="baseline-shift:baseline;display:inline;overflow:visible;vector-effect:none;stroke-linecap:round;stroke-linejoin:round;paint-order:markers stroke fill;enable-background:accumulate;stop-color:#000000;stop-opacity:1"
         d="m 249.77344,170.4707 a 0.1400295,0.1400295 0 0 0 -0.15821,0.11914 c -0.22815,1.61583 -0.67929,2.94115 -1.41406,3.96094 -0.73476,1.01979 -1.75263,1.73938 -3.14648,2.14844 a 0.1400295,0.1400295 0 0 0 -0.0957,0.17383 0.1400295,0.1400295 0 0 0 0.17383,0.0957 c 1.44417,-0.42383 2.52663,-1.18486 3.29688,-2.25391 0.77025,-1.06904 1.23058,-2.44065 1.46289,-4.08593 a 0.1400295,0.1400295 0 0 0 -0.11914,-0.15821 z"
         id="path31" />
    </g>
    <use
       xlink:href="#glyph-0-0-0"
       x="11.955"
       y="20.257999"
       id="use1"
       transform="matrix(0.41250456,0,0,0.41250456,245.90937,167.17073)"
       style="fill:#000000;fill-opacity:1" />
    <g
       id="path17"
       style="opacity:1;fill:#0000ff"
       transform="matrix(1.9941456,0,0,1.9941456,-201.2085,-207.12544)">
      <g
         id="g27"
         style="fill:#0000ff">
        <g
           transform="matrix(0.06326637,-0.29575264,0.29575264,0.06326637,225.09914,179.37938)"
           id="g28"
           style="fill:#0000ff">
          <path
             style="baseline-shift:baseline;display:inline;overflow:visible;opacity:1;vector-effect:none;fill:#0000ff;stroke-linecap:round;stroke-linejoin:round;stroke-miterlimit:10;enable-background:accumulate;stop-color:#000000;stop-opacity:1"
             d="m -1.6035156,-2.3671875 a 0.30000001,0.30000001 0 0 0 -0.2460938,0.34375 c 0.090081,0.5404981 0.5200776,1.023359 0.96093752,1.44726563 0.22042997,0.21195332 0.44821888,0.40042472 0.65039063,0.54882812 0.0178005,0.01306637 0.0297375,0.01494132 0.046875,0.02734375 -0.0171375,0.01240243 -0.0290745,0.01427738 -0.046875,0.02734375 C -0.440453,0.17574715 -0.66824191,0.36421855 -0.88867188,0.57617187 -1.3295318,1.0000785 -1.7595287,1.4829394 -1.8496094,2.0234375 a 0.30000001,0.30000001 0 0 0 0.2460938,0.34375 0.30000001,0.30000001 0 0 0 0.3457031,-0.2460937 C -1.2183832,1.8845119 -0.87362381,1.395314 -0.47265625,1.0097656 -0.27217247,0.81699145 -0.06107918,0.64257473 0.1171875,0.51171875 0.29545418,0.38086277 0.46119455,0.29223166 0.48242188,0.28515625 a 0.30003001,0.30003001 0 0 0 0,-0.5703125 C 0.46119455,-0.29223166 0.29545418,-0.38086277 0.1171875,-0.51171875 -0.06107918,-0.64257473 -0.27217247,-0.81699145 -0.47265625,-1.0097656 -0.87362381,-1.395314 -1.2183832,-1.8845119 -1.2578125,-2.1210938 a 0.30000001,0.30000001 0 0 0 -0.3457031,-0.2460937 z"
             id="path27" />
        </g>
      </g>
      <path
         style="baseline-shift:baseline;display:inline;overflow:visible;vector-effect:none;fill:#0000ff;stroke-linecap:round;stroke-linejoin:round;paint-order:markers stroke fill;enable-background:accumulate;stop-color:#000000;stop-opacity:1"
         d="m 225.11328,179.31055 a 0.0702205,0.0702205 0 0 0 -0.082,0.0547 l -2.14258,10.01172 a 0.0702205,0.0702205 0 0 0 0.0547,0.082 0.0702205,0.0702205 0 0 0 0.082,-0.0527 l 2.14258,-10.01172 a 0.0702205,0.0702205 0 0 0 -0.0547,-0.084 z"
         id="path29" />
    </g>
    <g
       id="path18"
       style="opacity:1;fill:#0000ff"
       transform="matrix(1.9941456,0,0,1.9941456,-201.1929,-206.88779)">
      <g
         id="g24"
         style="fill:#0000ff">
        <g
           transform="matrix(0.154369,-0.26008166,0.26008166,0.154369,231.06369,175.59334)"
           id="g25"
           style="fill:#0000ff">
          <path
             style="baseline-shift:baseline;display:inline;overflow:visible;opacity:1;vector-effect:none;fill:#0000ff;stroke-linecap:round;stroke-linejoin:round;stroke-miterlimit:10;enable-background:accumulate;stop-color:#000000;stop-opacity:1"
             d="m -1.6035156,-2.3671875 a 0.30000001,0.30000001 0 0 0 -0.2460938,0.34375 c 0.090081,0.5404981 0.5200776,1.023359 0.96093752,1.44726563 0.22042997,0.21195332 0.44821888,0.40042472 0.65039063,0.54882812 0.0178005,0.01306637 0.0297375,0.01494132 0.046875,0.02734375 -0.0171375,0.01240243 -0.0290745,0.01427738 -0.046875,0.02734375 C -0.440453,0.17574715 -0.66824191,0.36421855 -0.88867188,0.57617187 -1.3295318,1.0000785 -1.7595287,1.4829394 -1.8496094,2.0234375 a 0.30000001,0.30000001 0 0 0 0.2460938,0.34375 0.30000001,0.30000001 0 0 0 0.3457031,-0.2460937 C -1.2183832,1.8845119 -0.87362381,1.395314 -0.47265625,1.0097656 -0.27217247,0.81699145 -0.06107918,0.64257473 0.1171875,0.51171875 0.29545418,0.38086277 0.46119455,0.29223166 0.48242188,0.28515625 a 0.30003001,0.30003001 0 0 0 0,-0.5703125 C 0.46119455,-0.29223166 0.29545418,-0.38086277 0.1171875,-0.51171875 -0.06107918,-0.64257473 -0.27217247,-0.81699145 -0.47265625,-1.0097656 -0.87362381,-1.395314 -1.2183832,-1.8845119 -1.2578125,-2.1210938 a 0.30000001,0.30000001 0 0 0 -0.3457031,-0.2460937 z"
             id="path24" />
        </g>
      </g>
      <path
         style="baseline-shift:baseline;display:inline;overflow:visible;vector-effect:none;fill:#0000ff;stroke-linecap:round;stroke-linejoin:round;paint-order:markers stroke fill;enable-background:accumulate;stop-color:#000000;stop-opacity:1"
         d="m 231.09961,175.5332 a 0.0702205,0.0702205 0 0 0 -0.0957,0.0234 l -8.10743,13.6582 a 0.0702205,0.0702205 0 0 0 0.0254,0.0957 0.0702205,0.0702205 0 0 0 0.0957,-0.0234 l 8.10742,-13.6582 a 0.0702205,0.0702205 0 0 0 -0.0254,-0.0957 z"
         id="path26" />
    </g>
    <path
       style="fill:#0000ff;fill-opacity:1;stroke:#0000ff;stroke-width:0.280059;stroke-linecap:round;stroke-linejoin:round;stroke-dasharray:2.10046, 2.10046;stroke-opacity:1;marker-start:none;marker-end:none;paint-order:markers stroke fill"
       d="M 259.68843,169.62038 V 143.02117"
       id="path19" />
    <path
       style="fill:#0000ff;fill-opacity:1;stroke:#0000ff;stroke-width:0.280059;stroke-linecap:round;stroke-linejoin:round;stroke-dasharray:2.10046, 2.10046;stroke-opacity:1;marker-start:none;marker-end:none;paint-order:markers stroke fill"
       d="m 247.64395,150.71823 v 35.64416"
       id="path20" />
  </g>
</svg>
