<?xml version="1.0" encoding="UTF-8" standalone="no"?>
<!-- Created with Inkscape (http://www.inkscape.org/) -->

<svg
   width="66.997841mm"
   height="50.524906mm"
   viewBox="0 0 66.997841 50.524907"
   version="1.1"
   id="svg8"
   inkscape:version="1.4.3 (0d15f75042, 2025-12-25)"
   sodipodi:docname="sym-ortho-2.svg"
   xmlns:inkscape="http://www.inkscape.org/namespaces/inkscape"
   xmlns:sodipodi="http://sodipodi.sourceforge.net/DTD/sodipodi-0.dtd"
   xmlns:xlink="http://www.w3.org/1999/xlink"
   xmlns="http://www.w3.org/2000/svg"
   xmlns:svg="http://www.w3.org/2000/svg"
   xmlns:rdf="http://www.w3.org/1999/02/22-rdf-syntax-ns#"
   xmlns:cc="http://creativecommons.org/ns#"
   xmlns:dc="http://purl.org/dc/elements/1.1/">
  <defs
     id="defs2">
    <marker
       id="marker-arrow-0.5308"
       orient="auto-start-reverse"
       refY="0"
       refX="0"
       markerHeight="1.6900001"
       markerWidth="0.91100001">
      <g
         transform="scale(2.1535293)"
         id="g1">
        <path
           d="M -1.55415,2.0722 C -1.42464,1.29512 0,0.1295 0.38852,0 0,-0.1295 -1.42464,-1.29512 -1.55415,-2.0722"
           style="fill:none;stroke:#000000;stroke-width:0.6;stroke-linecap:round;stroke-linejoin:round;stroke-miterlimit:10;stroke-dasharray:none;stroke-opacity:1"
           inkscape:connector-curvature="0"
           id="path1-6" />
      </g>
    </marker>
    <marker
       id="marker-arrow-1.0616"
       orient="auto-start-reverse"
       refY="0"
       refX="0"
       markerHeight="1.6900001"
       markerWidth="0.91100001">
      <g
         transform="scale(1.3434313)"
         id="g1-7">
        <path
           d="M -1.55415,2.0722 C -1.42464,1.29512 0,0.1295 0.38852,0 0,-0.1295 -1.42464,-1.29512 -1.55415,-2.0722"
           style="fill:none;stroke:#000000;stroke-width:0.6;stroke-linecap:round;stroke-linejoin:round;stroke-miterlimit:10;stroke-dasharray:none;stroke-opacity:1"
           inkscape:connector-curvature="0"
           id="path1-5" />
      </g>
    </marker>
    <marker
       id="marker-arrow-0.5308-3"
       orient="auto-start-reverse"
       refY="0"
       refX="0"
       markerHeight="1.6900001"
       markerWidth="0.91100001">
      <g
         transform="scale(2.1535293)"
         id="g1-5">
        <path
           d="M -1.55415,2.0722 C -1.42464,1.29512 0,0.1295 0.38852,0 0,-0.1295 -1.42464,-1.29512 -1.55415,-2.0722"
           style="fill:none;stroke:#000000;stroke-width:0.6;stroke-linecap:round;stroke-linejoin:round;stroke-miterlimit:10;stroke-dasharray:none;stroke-opacity:1"
           inkscape:connector-curvature="0"
           id="path1-62" />
      </g>
    </marker>
    <g
       id="g1-9">
      <g
         id="glyph-0-0">
        <path
           d="M 6.046875,-2.75 C 5.625,-1.078125 4.25,-0.09375 3.125,-0.09375 c -0.859375,0 -1.453125,-0.578125 -1.453125,-1.5625 0,-0.046875 0,-0.40625 0.140625,-0.9375 L 2.96875,-7.296875 C 3.078125,-7.703125 3.109375,-7.8125 3.953125,-7.8125 c 0.21875,0 0.34375,0 0.34375,-0.21875 0,-0.125 -0.109375,-0.125 -0.1875,-0.125 -0.21875,0 -0.46875,0.015625 -0.6875,0.015625 h -1.40625 c -0.234375,0 -0.484375,-0.015625 -0.71875,-0.015625 -0.078125,0 -0.21875,0 -0.21875,0.21875 0,0.125 0.078125,0.125 0.3125,0.125 0.71875,0 0.71875,0.09375 0.71875,0.21875 0,0.078125 -0.09375,0.421875 -0.15625,0.625 l -1.03125,4.1875 C 0.890625,-2.65625 0.8125,-2.328125 0.8125,-2.015625 0.8125,-0.6875 1.75,0.25 3.0625,0.25 c 1.203125,0 2.546875,-0.953125 3.15625,-2.46875 0.078125,-0.203125 0.1875,-0.625 0.265625,-0.953125 C 6.59375,-3.59375 6.84375,-4.65625 6.9375,-4.953125 L 7.390625,-6.75 c 0.15625,-0.625 0.25,-1.015625 1.296875,-1.0625 0.09375,-0.015625 0.140625,-0.109375 0.140625,-0.21875 0,-0.125 -0.109375,-0.125 -0.15625,-0.125 -0.15625,0 -0.375,0.015625 -0.546875,0.015625 H 7.5625 c -0.734375,0 -1.125,-0.015625 -1.125,-0.015625 -0.078125,0 -0.21875,0 -0.21875,0.21875 0,0.125 0.09375,0.125 0.171875,0.125 0.71875,0.015625 0.765625,0.296875 0.765625,0.515625 0,0.09375 0,0.140625 -0.046875,0.296875 z m 0,0"
           id="path1-1" />
      </g>
    </g>
    <g
       id="g1-2">
      <g
         id="glyph-0-0-7">
        <path
           d="m 3.546875,-3.890625 h 1.15625 c 0.90625,0 0.96875,0.203125 0.96875,0.546875 0,0.15625 -0.015625,0.3125 -0.078125,0.578125 C 5.5625,-2.71875 5.5625,-2.65625 5.5625,-2.625 c 0,0.078125 0.046875,0.125 0.125,0.125 0.09375,0 0.109375,-0.046875 0.15625,-0.234375 l 0.6875,-2.78125 c 0,-0.046875 -0.03125,-0.125 -0.109375,-0.125 -0.109375,0 -0.125,0.046875 -0.171875,0.25 C 6,-4.5 5.765625,-4.25 4.71875,-4.25 H 3.640625 L 4.40625,-7.34375 C 4.515625,-7.75 4.546875,-7.796875 5.03125,-7.796875 h 1.609375 c 1.484375,0 1.703125,0.453125 1.703125,1.296875 0,0.0625 0,0.328125 -0.03125,0.640625 -0.015625,0.046875 -0.046875,0.203125 -0.046875,0.25 0,0.09375 0.0625,0.140625 0.140625,0.140625 0.078125,0 0.125,-0.046875 0.15625,-0.265625 l 0.25,-2.09375 c 0,-0.03125 0.015625,-0.15625 0.015625,-0.1875 0,-0.125 -0.109375,-0.125 -0.3125,-0.125 H 2.84375 c -0.21875,0 -0.34375,0 -0.34375,0.21875 0,0.125 0.078125,0.125 0.28125,0.125 0.75,0 0.75,0.09375 0.75,0.21875 0,0.0625 -0.015625,0.109375 -0.046875,0.234375 l -1.625,6.453125 C 1.75,-0.46875 1.734375,-0.34375 0.890625,-0.34375 c -0.21875,0 -0.34375,0 -0.34375,0.21875 C 0.546875,0 0.65625,0 0.734375,0 0.953125,0 1.1875,-0.03125 1.421875,-0.03125 H 2.96875 C 3.234375,-0.03125 3.53125,0 3.796875,0 c 0.09375,0 0.25,0 0.25,-0.21875 0,-0.125 -0.078125,-0.125 -0.34375,-0.125 -0.9375,0 -0.96875,-0.09375 -0.96875,-0.265625 0,-0.0625 0.03125,-0.15625 0.046875,-0.234375 z m 0,0"
           id="path1-0" />
      </g>
    </g>
    <g
       id="g7">
      <g
         id="glyph-0-0-3">
        <path
           d="m 3.890625,2.90625 c 0,-0.03125 0,-0.0625 -0.203125,-0.265625 C 2.484375,1.4375 1.8125,-0.53125 1.8125,-2.96875 c 0,-2.328125 0.5625,-4.328125 1.953125,-5.734375 0.125,-0.109375 0.125,-0.125 0.125,-0.171875 0,-0.0625 -0.0625,-0.09375 -0.109375,-0.09375 -0.15625,0 -1.140625,0.859375 -1.71875,2.03125 -0.609375,1.21875 -0.890625,2.484375 -0.890625,3.96875 0,1.0625 0.171875,2.484375 0.78125,3.75 C 2.671875,2.21875 3.640625,3 3.78125,3 3.828125,3 3.890625,2.96875 3.890625,2.90625 Z m 0,0"
           id="path1-60" />
      </g>
      <g
         id="glyph-0-1">
        <path
           d="M 3.375,-2.96875 C 3.375,-3.890625 3.25,-5.359375 2.578125,-6.75 1.875,-8.1875 0.890625,-8.96875 0.765625,-8.96875 c -0.046875,0 -0.109375,0.03125 -0.109375,0.09375 0,0.046875 0,0.0625 0.203125,0.265625 1.203125,1.203125 1.859375,3.1875 1.859375,5.625 0,2.3125 -0.5625,4.3125 -1.9375,5.71875 C 0.65625,2.84375 0.65625,2.875 0.65625,2.90625 0.65625,2.96875 0.71875,3 0.765625,3 0.921875,3 1.90625,2.140625 2.484375,0.96875 3.09375,-0.25 3.375,-1.546875 3.375,-2.96875 Z m 0,0"
           id="path2-6" />
      </g>
      <g
         id="glyph-1-0">
        <path
           d="m 5.328125,-4.8125 c 0.234375,0 0.34375,0 0.34375,-0.21875 0,-0.125 -0.109375,-0.125 -0.3125,-0.125 H 4.390625 C 4.609375,-6.390625 4.78125,-7.234375 4.875,-7.609375 c 0.078125,-0.296875 0.328125,-0.5625 0.640625,-0.5625 0.25,0 0.5,0.109375 0.609375,0.21875 -0.453125,0.046875 -0.609375,0.390625 -0.609375,0.59375 0,0.234375 0.1875,0.375 0.40625,0.375 0.25,0 0.609375,-0.203125 0.609375,-0.65625 0,-0.5 -0.5,-0.78125 -1.03125,-0.78125 -0.515625,0 -1.015625,0.390625 -1.25,0.859375 -0.21875,0.421875 -0.34375,0.84375 -0.609375,2.40625 h -0.8125 c -0.21875,0 -0.34375,0 -0.34375,0.21875 0,0.125 0.078125,0.125 0.3125,0.125 H 3.5625 C 3.34375,-3.6875 2.859375,-0.984375 2.578125,0.28125 2.375,1.328125 2.203125,2.203125 1.609375,2.203125 1.5625,2.203125 1.21875,2.203125 1,1.96875 1.609375,1.921875 1.609375,1.40625 1.609375,1.390625 1.609375,1.140625 1.4375,1 1.203125,1 0.96875,1 0.609375,1.203125 0.609375,1.65625 c 0,0.515625 0.53125,0.78125 1,0.78125 1.21875,0 1.71875,-2.1875 1.84375,-2.78125 C 3.671875,-1.265625 4.25,-4.453125 4.3125,-4.8125 Z m 0,0"
           id="path3-2" />
      </g>
      <g
         id="glyph-1-1">
        <path
           d="M 4.515625,-1.453125 C 4.5,-2.046875 4.46875,-2.96875 4.015625,-4.046875 3.78125,-4.640625 3.375,-5.265625 2.5,-5.265625 c -1.46875,0 -2.265625,1.875 -2.265625,2.1875 0,0.109375 0.078125,0.109375 0.109375,0.109375 0.109375,0 0.109375,-0.03125 0.171875,-0.1875 0.25,-0.734375 1.015625,-1.328125 1.84375,-1.328125 1.65625,0 1.890625,1.859375 1.890625,3.03125 0,0.765625 -0.078125,1.015625 -0.15625,1.25 -0.21875,0.734375 -0.609375,2.21875 -0.609375,2.5625 0,0.09375 0.03125,0.203125 0.125,0.203125 0.1875,0 0.28125,-0.40625 0.421875,-0.875 0.28125,-1.046875 0.359375,-1.578125 0.421875,-2.0625 0.03125,-0.28125 0.703125,-2.25 1.65625,-4.125 0.078125,-0.203125 0.25,-0.515625 0.25,-0.5625 0,0 -0.015625,-0.09375 -0.125,-0.09375 -0.015625,0 -0.078125,0 -0.109375,0.046875 -0.015625,0.03125 -0.4375,0.84375 -0.796875,1.65625 -0.171875,0.40625 -0.421875,0.9375 -0.8125,2 z m 0,0"
           id="path4-6" />
      </g>
      <g
         id="glyph-1-2">
        <path
           d="M 2.40625,-4.8125 H 3.5 c 0.234375,0 0.34375,0 0.34375,-0.203125 0,-0.140625 -0.0625,-0.140625 -0.3125,-0.140625 H 2.484375 l 0.4375,-1.734375 C 2.96875,-7.0625 2.96875,-7.09375 2.96875,-7.171875 c 0,-0.1875 -0.140625,-0.296875 -0.296875,-0.296875 -0.109375,0 -0.375,0.03125 -0.46875,0.421875 l -0.46875,1.890625 h -1.125 c -0.234375,0 -0.34375,0 -0.34375,0.234375 0,0.109375 0.078125,0.109375 0.3125,0.109375 h 1.0625 L 0.84375,-1.65625 c -0.09375,0.421875 -0.125,0.546875 -0.125,0.703125 0,0.5625 0.390625,1.078125 1.0625,1.078125 1.203125,0 1.859375,-1.75 1.859375,-1.828125 0,-0.078125 -0.0625,-0.109375 -0.125,-0.109375 -0.03125,0 -0.078125,0 -0.09375,0.046875 C 3.40625,-1.75 3.390625,-1.75 3.3125,-1.546875 c -0.25,0.59375 -0.796875,1.421875 -1.5,1.421875 -0.359375,0 -0.375,-0.296875 -0.375,-0.5625 0,0 0,-0.234375 0.03125,-0.375 z m 0,0"
           id="path5" />
      </g>
      <g
         id="glyph-2-0">
        <path
           d="m 5.3125,-2.984375 c 0,-1.28125 -1.0625,-2.328125 -2.328125,-2.328125 -1.28125,0 -2.328125,1.0625 -2.328125,2.328125 0,1.265625 1.046875,2.3125 2.328125,2.3125 1.265625,0 2.328125,-1.03125 2.328125,-2.3125 z m -2.328125,1.84375 c -1.03125,0 -1.84375,-0.84375 -1.84375,-1.84375 0,-1.015625 0.8125,-1.84375 1.84375,-1.84375 1,0 1.84375,0.8125 1.84375,1.84375 0,1.03125 -0.84375,1.84375 -1.84375,1.84375 z m 0,0"
           id="path6" />
      </g>
      <g
         id="glyph-3-0">
        <path
           d="M 2.109375,-3.78125 C 2.15625,-3.875 2.1875,-3.9375 2.1875,-4.015625 c 0,-0.265625 -0.25,-0.4375 -0.46875,-0.4375 -0.3125,0 -0.40625,0.28125 -0.4375,0.390625 L 0.265625,-0.625 c -0.03125,0.09375 -0.03125,0.109375 -0.03125,0.125 0,0.0625 0.046875,0.078125 0.125,0.109375 0.15625,0.0625 0.171875,0.0625 0.1875,0.0625 0.015625,0 0.0625,0 0.125,-0.140625 z m 0,0"
           id="path7" />
      </g>
    </g>
    <marker
       id="marker-arrow-0.5308-1"
       orient="auto-start-reverse"
       refY="0"
       refX="0"
       markerHeight="1.6900001"
       markerWidth="0.91100001">
      <g
         transform="scale(2.1535293)"
         id="g1-8">
        <path
           d="M -1.55415,2.0722 C -1.42464,1.29512 0,0.1295 0.38852,0 0,-0.1295 -1.42464,-1.29512 -1.55415,-2.0722"
           style="fill:none;stroke:#000000;stroke-width:0.6;stroke-linecap:round;stroke-linejoin:round;stroke-miterlimit:10;stroke-dasharray:none;stroke-opacity:1"
           inkscape:connector-curvature="0"
           id="path1-7" />
      </g>
    </marker>
    <marker
       id="marker-arrow-1.0616-9"
       orient="auto-start-reverse"
       refY="0"
       refX="0"
       markerHeight="1.6900001"
       markerWidth="0.91100001">
      <g
         transform="scale(1.3434313)"
         id="g1-20">
        <path
           d="M -1.55415,2.0722 C -1.42464,1.29512 0,0.1295 0.38852,0 0,-0.1295 -1.42464,-1.29512 -1.55415,-2.0722"
           style="fill:none;stroke:#000000;stroke-width:0.6;stroke-linecap:round;stroke-linejoin:round;stroke-miterlimit:10;stroke-dasharray:none;stroke-opacity:1"
           inkscape:connector-curvature="0"
           id="path1-2" />
      </g>
    </marker>
    <g
       id="g5">
      <g
         id="glyph-0-0-37">
        <path
           d="M 4.515625,-1.453125 C 4.5,-2.046875 4.46875,-2.96875 4.015625,-4.046875 3.78125,-4.640625 3.375,-5.265625 2.5,-5.265625 c -1.46875,0 -2.265625,1.875 -2.265625,2.1875 0,0.109375 0.078125,0.109375 0.109375,0.109375 0.109375,0 0.109375,-0.03125 0.171875,-0.1875 0.25,-0.734375 1.015625,-1.328125 1.84375,-1.328125 1.65625,0 1.890625,1.859375 1.890625,3.03125 0,0.765625 -0.078125,1.015625 -0.15625,1.25 -0.21875,0.734375 -0.609375,2.21875 -0.609375,2.5625 0,0.09375 0.03125,0.203125 0.125,0.203125 0.1875,0 0.28125,-0.40625 0.421875,-0.875 0.28125,-1.046875 0.359375,-1.578125 0.421875,-2.0625 0.03125,-0.28125 0.703125,-2.25 1.65625,-4.125 0.078125,-0.203125 0.25,-0.515625 0.25,-0.5625 0,0 -0.015625,-0.09375 -0.125,-0.09375 -0.015625,0 -0.078125,0 -0.109375,0.046875 -0.015625,0.03125 -0.4375,0.84375 -0.796875,1.65625 -0.171875,0.40625 -0.421875,0.9375 -0.8125,2 z m 0,0"
           id="path1-59" />
      </g>
      <g
         id="glyph-0-1-2">
        <path
           d="M 2.40625,-4.8125 H 3.5 c 0.234375,0 0.34375,0 0.34375,-0.203125 0,-0.140625 -0.0625,-0.140625 -0.3125,-0.140625 H 2.484375 l 0.4375,-1.734375 C 2.96875,-7.0625 2.96875,-7.09375 2.96875,-7.171875 c 0,-0.1875 -0.140625,-0.296875 -0.296875,-0.296875 -0.109375,0 -0.375,0.03125 -0.46875,0.421875 l -0.46875,1.890625 h -1.125 c -0.234375,0 -0.34375,0 -0.34375,0.234375 0,0.109375 0.078125,0.109375 0.3125,0.109375 h 1.0625 L 0.84375,-1.65625 c -0.09375,0.421875 -0.125,0.546875 -0.125,0.703125 0,0.5625 0.390625,1.078125 1.0625,1.078125 1.203125,0 1.859375,-1.75 1.859375,-1.828125 0,-0.078125 -0.0625,-0.109375 -0.125,-0.109375 -0.03125,0 -0.078125,0 -0.09375,0.046875 C 3.40625,-1.75 3.390625,-1.75 3.3125,-1.546875 c -0.25,0.59375 -0.796875,1.421875 -1.5,1.421875 -0.359375,0 -0.375,-0.296875 -0.375,-0.5625 0,0 0,-0.234375 0.03125,-0.375 z m 0,0"
           id="path2-2" />
      </g>
      <g
         id="glyph-1-0-8">
        <path
           d="M 2.109375,-3.78125 C 2.15625,-3.875 2.1875,-3.9375 2.1875,-4.015625 c 0,-0.265625 -0.25,-0.4375 -0.46875,-0.4375 -0.3125,0 -0.40625,0.28125 -0.4375,0.390625 L 0.265625,-0.625 c -0.03125,0.09375 -0.03125,0.109375 -0.03125,0.125 0,0.0625 0.046875,0.078125 0.125,0.109375 0.15625,0.0625 0.171875,0.0625 0.1875,0.0625 0.015625,0 0.0625,0 0.125,-0.140625 z m 0,0"
           id="path3-9" />
      </g>
      <g
         id="glyph-2-0-7">
        <path
           d="m 3.890625,2.90625 c 0,-0.03125 0,-0.0625 -0.203125,-0.265625 C 2.484375,1.4375 1.8125,-0.53125 1.8125,-2.96875 c 0,-2.328125 0.5625,-4.328125 1.953125,-5.734375 0.125,-0.109375 0.125,-0.125 0.125,-0.171875 0,-0.0625 -0.0625,-0.09375 -0.109375,-0.09375 -0.15625,0 -1.140625,0.859375 -1.71875,2.03125 -0.609375,1.21875 -0.890625,2.484375 -0.890625,3.96875 0,1.0625 0.171875,2.484375 0.78125,3.75 C 2.671875,2.21875 3.640625,3 3.78125,3 3.828125,3 3.890625,2.96875 3.890625,2.90625 Z m 0,0"
           id="path4-3" />
      </g>
      <g
         id="glyph-2-1">
        <path
           d="M 3.375,-2.96875 C 3.375,-3.890625 3.25,-5.359375 2.578125,-6.75 1.875,-8.1875 0.890625,-8.96875 0.765625,-8.96875 c -0.046875,0 -0.109375,0.03125 -0.109375,0.09375 0,0.046875 0,0.0625 0.203125,0.265625 1.203125,1.203125 1.859375,3.1875 1.859375,5.625 0,2.3125 -0.5625,4.3125 -1.9375,5.71875 C 0.65625,2.84375 0.65625,2.875 0.65625,2.90625 0.65625,2.96875 0.71875,3 0.765625,3 0.921875,3 1.90625,2.140625 2.484375,0.96875 3.09375,-0.25 3.375,-1.546875 3.375,-2.96875 Z m 0,0"
           id="path5-6" />
      </g>
    </g>
    <g
       id="g6">
      <g
         id="glyph-0-0-1">
        <path
           d="m 3.890625,2.90625 c 0,-0.03125 0,-0.0625 -0.203125,-0.265625 C 2.484375,1.4375 1.8125,-0.53125 1.8125,-2.96875 c 0,-2.328125 0.5625,-4.328125 1.953125,-5.734375 0.125,-0.109375 0.125,-0.125 0.125,-0.171875 0,-0.0625 -0.0625,-0.09375 -0.109375,-0.09375 -0.15625,0 -1.140625,0.859375 -1.71875,2.03125 -0.609375,1.21875 -0.890625,2.484375 -0.890625,3.96875 0,1.0625 0.171875,2.484375 0.78125,3.75 C 2.671875,2.21875 3.640625,3 3.78125,3 3.828125,3 3.890625,2.96875 3.890625,2.90625 Z m 0,0"
           id="path1-9" />
      </g>
      <g
         id="glyph-0-1-4">
        <path
           d="M 3.375,-2.96875 C 3.375,-3.890625 3.25,-5.359375 2.578125,-6.75 1.875,-8.1875 0.890625,-8.96875 0.765625,-8.96875 c -0.046875,0 -0.109375,0.03125 -0.109375,0.09375 0,0.046875 0,0.0625 0.203125,0.265625 1.203125,1.203125 1.859375,3.1875 1.859375,5.625 0,2.3125 -0.5625,4.3125 -1.9375,5.71875 C 0.65625,2.84375 0.65625,2.875 0.65625,2.90625 0.65625,2.96875 0.71875,3 0.765625,3 0.921875,3 1.90625,2.140625 2.484375,0.96875 3.09375,-0.25 3.375,-1.546875 3.375,-2.96875 Z m 0,0"
           id="path2-7" />
      </g>
      <g
         id="glyph-1-0-84">
        <path
           d="m 5.328125,-4.8125 c 0.234375,0 0.34375,0 0.34375,-0.21875 0,-0.125 -0.109375,-0.125 -0.3125,-0.125 H 4.390625 C 4.609375,-6.390625 4.78125,-7.234375 4.875,-7.609375 c 0.078125,-0.296875 0.328125,-0.5625 0.640625,-0.5625 0.25,0 0.5,0.109375 0.609375,0.21875 -0.453125,0.046875 -0.609375,0.390625 -0.609375,0.59375 0,0.234375 0.1875,0.375 0.40625,0.375 0.25,0 0.609375,-0.203125 0.609375,-0.65625 0,-0.5 -0.5,-0.78125 -1.03125,-0.78125 -0.515625,0 -1.015625,0.390625 -1.25,0.859375 -0.21875,0.421875 -0.34375,0.84375 -0.609375,2.40625 h -0.8125 c -0.21875,0 -0.34375,0 -0.34375,0.21875 0,0.125 0.078125,0.125 0.3125,0.125 H 3.5625 C 3.34375,-3.6875 2.859375,-0.984375 2.578125,0.28125 2.375,1.328125 2.203125,2.203125 1.609375,2.203125 1.5625,2.203125 1.21875,2.203125 1,1.96875 1.609375,1.921875 1.609375,1.40625 1.609375,1.390625 1.609375,1.140625 1.4375,1 1.203125,1 0.96875,1 0.609375,1.203125 0.609375,1.65625 c 0,0.515625 0.53125,0.78125 1,0.78125 1.21875,0 1.71875,-2.1875 1.84375,-2.78125 C 3.671875,-1.265625 4.25,-4.453125 4.3125,-4.8125 Z m 0,0"
           id="path3-5" />
      </g>
      <g
         id="glyph-1-1-0">
        <path
           d="M 4.515625,-1.453125 C 4.5,-2.046875 4.46875,-2.96875 4.015625,-4.046875 3.78125,-4.640625 3.375,-5.265625 2.5,-5.265625 c -1.46875,0 -2.265625,1.875 -2.265625,2.1875 0,0.109375 0.078125,0.109375 0.109375,0.109375 0.109375,0 0.109375,-0.03125 0.171875,-0.1875 0.25,-0.734375 1.015625,-1.328125 1.84375,-1.328125 1.65625,0 1.890625,1.859375 1.890625,3.03125 0,0.765625 -0.078125,1.015625 -0.15625,1.25 -0.21875,0.734375 -0.609375,2.21875 -0.609375,2.5625 0,0.09375 0.03125,0.203125 0.125,0.203125 0.1875,0 0.28125,-0.40625 0.421875,-0.875 0.28125,-1.046875 0.359375,-1.578125 0.421875,-2.0625 0.03125,-0.28125 0.703125,-2.25 1.65625,-4.125 0.078125,-0.203125 0.25,-0.515625 0.25,-0.5625 0,0 -0.015625,-0.09375 -0.125,-0.09375 -0.015625,0 -0.078125,0 -0.109375,0.046875 -0.015625,0.03125 -0.4375,0.84375 -0.796875,1.65625 -0.171875,0.40625 -0.421875,0.9375 -0.8125,2 z m 0,0"
           id="path4-36" />
      </g>
      <g
         id="glyph-1-2-1">
        <path
           d="M 2.40625,-4.8125 H 3.5 c 0.234375,0 0.34375,0 0.34375,-0.203125 0,-0.140625 -0.0625,-0.140625 -0.3125,-0.140625 H 2.484375 l 0.4375,-1.734375 C 2.96875,-7.0625 2.96875,-7.09375 2.96875,-7.171875 c 0,-0.1875 -0.140625,-0.296875 -0.296875,-0.296875 -0.109375,0 -0.375,0.03125 -0.46875,0.421875 l -0.46875,1.890625 h -1.125 c -0.234375,0 -0.34375,0 -0.34375,0.234375 0,0.109375 0.078125,0.109375 0.3125,0.109375 h 1.0625 L 0.84375,-1.65625 c -0.09375,0.421875 -0.125,0.546875 -0.125,0.703125 0,0.5625 0.390625,1.078125 1.0625,1.078125 1.203125,0 1.859375,-1.75 1.859375,-1.828125 0,-0.078125 -0.0625,-0.109375 -0.125,-0.109375 -0.03125,0 -0.078125,0 -0.09375,0.046875 C 3.40625,-1.75 3.390625,-1.75 3.3125,-1.546875 c -0.25,0.59375 -0.796875,1.421875 -1.5,1.421875 -0.359375,0 -0.375,-0.296875 -0.375,-0.5625 0,0 0,-0.234375 0.03125,-0.375 z m 0,0"
           id="path5-0" />
      </g>
      <g
         id="glyph-2-0-6">
        <path
           d="m 5.3125,-2.984375 c 0,-1.28125 -1.0625,-2.328125 -2.328125,-2.328125 -1.28125,0 -2.328125,1.0625 -2.328125,2.328125 0,1.265625 1.046875,2.3125 2.328125,2.3125 1.265625,0 2.328125,-1.03125 2.328125,-2.3125 z m -2.328125,1.84375 c -1.03125,0 -1.84375,-0.84375 -1.84375,-1.84375 0,-1.015625 0.8125,-1.84375 1.84375,-1.84375 1,0 1.84375,0.8125 1.84375,1.84375 0,1.03125 -0.84375,1.84375 -1.84375,1.84375 z m 0,0"
           id="path6-3" />
      </g>
    </g>
    <g
       id="g1-56">
      <g
         id="glyph-0-0-9">
        <path
           d="m 5.328125,-4.8125 c 0.234375,0 0.34375,0 0.34375,-0.21875 0,-0.125 -0.109375,-0.125 -0.3125,-0.125 H 4.390625 C 4.609375,-6.390625 4.78125,-7.234375 4.875,-7.609375 c 0.078125,-0.296875 0.328125,-0.5625 0.640625,-0.5625 0.25,0 0.5,0.109375 0.609375,0.21875 -0.453125,0.046875 -0.609375,0.390625 -0.609375,0.59375 0,0.234375 0.1875,0.375 0.40625,0.375 0.25,0 0.609375,-0.203125 0.609375,-0.65625 0,-0.5 -0.5,-0.78125 -1.03125,-0.78125 -0.515625,0 -1.015625,0.390625 -1.25,0.859375 -0.21875,0.421875 -0.34375,0.84375 -0.609375,2.40625 h -0.8125 c -0.21875,0 -0.34375,0 -0.34375,0.21875 0,0.125 0.078125,0.125 0.3125,0.125 H 3.5625 C 3.34375,-3.6875 2.859375,-0.984375 2.578125,0.28125 2.375,1.328125 2.203125,2.203125 1.609375,2.203125 1.5625,2.203125 1.21875,2.203125 1,1.96875 1.609375,1.921875 1.609375,1.40625 1.609375,1.390625 1.609375,1.140625 1.4375,1 1.203125,1 0.96875,1 0.609375,1.203125 0.609375,1.65625 c 0,0.515625 0.53125,0.78125 1,0.78125 1.21875,0 1.71875,-2.1875 1.84375,-2.78125 C 3.671875,-1.265625 4.25,-4.453125 4.3125,-4.8125 Z m 0,0"
           id="path1-3" />
      </g>
    </g>
    <marker
       id="marker-arrow-0.5308-36"
       orient="auto-start-reverse"
       refY="0"
       refX="0"
       markerHeight="1.6900001"
       markerWidth="0.91100001">
      <g
         transform="scale(2.1535293)"
         id="g1-75">
        <path
           d="M -1.55415,2.0722 C -1.42464,1.29512 0,0.1295 0.38852,0 0,-0.1295 -1.42464,-1.29512 -1.55415,-2.0722"
           style="fill:none;stroke:#000000;stroke-width:0.6;stroke-linecap:round;stroke-linejoin:round;stroke-miterlimit:10;stroke-dasharray:none;stroke-opacity:1"
           inkscape:connector-curvature="0"
           id="path1-35" />
      </g>
    </marker>
    <marker
       id="marker-arrow-0.5308-6"
       orient="auto-start-reverse"
       refY="0"
       refX="0"
       markerHeight="1.6900001"
       markerWidth="0.91100001">
      <g
         transform="scale(2.1535293)"
         id="g1-29">
        <path
           d="M -1.55415,2.0722 C -1.42464,1.29512 0,0.1295 0.38852,0 0,-0.1295 -1.42464,-1.29512 -1.55415,-2.0722"
           style="fill:none;stroke:#000000;stroke-width:0.6;stroke-linecap:round;stroke-linejoin:round;stroke-miterlimit:10;stroke-dasharray:none;stroke-opacity:1"
           inkscape:connector-curvature="0"
           id="path1-12" />
      </g>
    </marker>
    <marker
       id="marker-arrow-0.5308-7"
       orient="auto-start-reverse"
       refY="0"
       refX="0"
       markerHeight="1.6900001"
       markerWidth="0.91100001">
      <g
         transform="scale(2.1535293)"
         id="g1-0">
        <path
           d="M -1.55415,2.0722 C -1.42464,1.29512 0,0.1295 0.38852,0 0,-0.1295 -1.42464,-1.29512 -1.55415,-2.0722"
           style="fill:none;stroke:#000000;stroke-width:0.6;stroke-linecap:round;stroke-linejoin:round;stroke-miterlimit:10;stroke-dasharray:none;stroke-opacity:1"
           inkscape:connector-curvature="0"
           id="path1-93" />
      </g>
    </marker>
    <g
       id="g1-3">
      <g
         id="glyph-0-0-6">
        <path
           d="m 3.546875,-3.890625 h 1.15625 c 0.90625,0 0.96875,0.203125 0.96875,0.546875 0,0.15625 -0.015625,0.3125 -0.078125,0.578125 C 5.5625,-2.71875 5.5625,-2.65625 5.5625,-2.625 c 0,0.078125 0.046875,0.125 0.125,0.125 0.09375,0 0.109375,-0.046875 0.15625,-0.234375 l 0.6875,-2.78125 c 0,-0.046875 -0.03125,-0.125 -0.109375,-0.125 -0.109375,0 -0.125,0.046875 -0.171875,0.25 C 6,-4.5 5.765625,-4.25 4.71875,-4.25 H 3.640625 L 4.40625,-7.34375 C 4.515625,-7.75 4.546875,-7.796875 5.03125,-7.796875 h 1.609375 c 1.484375,0 1.703125,0.453125 1.703125,1.296875 0,0.0625 0,0.328125 -0.03125,0.640625 -0.015625,0.046875 -0.046875,0.203125 -0.046875,0.25 0,0.09375 0.0625,0.140625 0.140625,0.140625 0.078125,0 0.125,-0.046875 0.15625,-0.265625 l 0.25,-2.09375 c 0,-0.03125 0.015625,-0.15625 0.015625,-0.1875 0,-0.125 -0.109375,-0.125 -0.3125,-0.125 H 2.84375 c -0.21875,0 -0.34375,0 -0.34375,0.21875 0,0.125 0.078125,0.125 0.28125,0.125 0.75,0 0.75,0.09375 0.75,0.21875 0,0.0625 -0.015625,0.109375 -0.046875,0.234375 l -1.625,6.453125 C 1.75,-0.46875 1.734375,-0.34375 0.890625,-0.34375 c -0.21875,0 -0.34375,0 -0.34375,0.21875 C 0.546875,0 0.65625,0 0.734375,0 0.953125,0 1.1875,-0.03125 1.421875,-0.03125 H 2.96875 C 3.234375,-0.03125 3.53125,0 3.796875,0 c 0.09375,0 0.25,0 0.25,-0.21875 0,-0.125 -0.078125,-0.125 -0.34375,-0.125 -0.9375,0 -0.96875,-0.09375 -0.96875,-0.265625 0,-0.0625 0.03125,-0.15625 0.046875,-0.234375 z m 0,0"
           id="path1-75" />
      </g>
    </g>
    <g
       id="g2">
      <g
         id="glyph-0-0-5">
        <path
           d="m 3.546875,-3.890625 h 1.15625 c 0.90625,0 0.96875,0.203125 0.96875,0.546875 0,0.15625 -0.015625,0.3125 -0.078125,0.578125 C 5.5625,-2.71875 5.5625,-2.65625 5.5625,-2.625 c 0,0.078125 0.046875,0.125 0.125,0.125 0.09375,0 0.109375,-0.046875 0.15625,-0.234375 l 0.6875,-2.78125 c 0,-0.046875 -0.03125,-0.125 -0.109375,-0.125 -0.109375,0 -0.125,0.046875 -0.171875,0.25 C 6,-4.5 5.765625,-4.25 4.71875,-4.25 H 3.640625 L 4.40625,-7.34375 C 4.515625,-7.75 4.546875,-7.796875 5.03125,-7.796875 h 1.609375 c 1.484375,0 1.703125,0.453125 1.703125,1.296875 0,0.0625 0,0.328125 -0.03125,0.640625 -0.015625,0.046875 -0.046875,0.203125 -0.046875,0.25 0,0.09375 0.0625,0.140625 0.140625,0.140625 0.078125,0 0.125,-0.046875 0.15625,-0.265625 l 0.25,-2.09375 c 0,-0.03125 0.015625,-0.15625 0.015625,-0.1875 0,-0.125 -0.109375,-0.125 -0.3125,-0.125 H 2.84375 c -0.21875,0 -0.34375,0 -0.34375,0.21875 0,0.125 0.078125,0.125 0.28125,0.125 0.75,0 0.75,0.09375 0.75,0.21875 0,0.0625 -0.015625,0.109375 -0.046875,0.234375 l -1.625,6.453125 C 1.75,-0.46875 1.734375,-0.34375 0.890625,-0.34375 c -0.21875,0 -0.34375,0 -0.34375,0.21875 C 0.546875,0 0.65625,0 0.734375,0 0.953125,0 1.1875,-0.03125 1.421875,-0.03125 H 2.96875 C 3.234375,-0.03125 3.53125,0 3.796875,0 c 0.09375,0 0.25,0 0.25,-0.21875 0,-0.125 -0.078125,-0.125 -0.34375,-0.125 -0.9375,0 -0.96875,-0.09375 -0.96875,-0.265625 0,-0.0625 0.03125,-0.15625 0.046875,-0.234375 z m 0,0"
           id="path1-629" />
      </g>
      <g
         id="glyph-1-0-1">
        <path
           d="m 3.46875,-5.234375 c 0,-0.125 0,-0.296875 -0.171875,-0.296875 -0.1875,0 -0.1875,0.171875 -0.1875,0.3125 v 4.859375 H 0.78125 c -0.140625,0 -0.3125,0 -0.3125,0.171875 C 0.46875,0 0.640625,0 0.78125,0 H 5.8125 c 0.125,0 0.296875,0 0.296875,-0.1875 0,-0.171875 -0.171875,-0.171875 -0.296875,-0.171875 H 3.46875 Z m 0,0"
           id="path2-27" />
      </g>
    </g>
    <g
       id="g1-93">
      <g
         id="glyph-0-0-60">
        <path
           d="m 5.671875,-4.875 c -0.390625,0.0625 -0.53125,0.359375 -0.53125,0.578125 0,0.296875 0.21875,0.390625 0.390625,0.390625 0.359375,0 0.609375,-0.3125 0.609375,-0.640625 0,-0.5 -0.578125,-0.71875 -1.078125,-0.71875 -0.71875,0 -1.125,0.71875 -1.234375,0.9375 -0.28125,-0.890625 -1.015625,-0.9375 -1.234375,-0.9375 -1.21875,0 -1.859375,1.5625 -1.859375,1.828125 0,0.046875 0.046875,0.109375 0.125,0.109375 0.09375,0 0.125,-0.078125 0.140625,-0.125 0.40625,-1.328125 1.21875,-1.578125 1.5625,-1.578125 0.53125,0 0.640625,0.5 0.640625,0.78125 0,0.265625 -0.078125,0.546875 -0.21875,1.125 L 2.578125,-1.5 c -0.171875,0.71875 -0.515625,1.375 -1.15625,1.375 -0.0625,0 -0.359375,0 -0.609375,-0.15625 C 1.25,-0.359375 1.34375,-0.71875 1.34375,-0.859375 1.34375,-1.09375 1.15625,-1.25 0.9375,-1.25 c -0.296875,0 -0.609375,0.265625 -0.609375,0.640625 0,0.5 0.5625,0.734375 1.078125,0.734375 0.578125,0 0.984375,-0.453125 1.234375,-0.953125 C 2.828125,-0.125 3.4375,0.125 3.875,0.125 5.09375,0.125 5.734375,-1.453125 5.734375,-1.703125 5.734375,-1.765625 5.6875,-1.8125 5.625,-1.8125 5.515625,-1.8125 5.5,-1.75 5.46875,-1.65625 5.140625,-0.609375 4.453125,-0.125 3.90625,-0.125 3.484375,-0.125 3.265625,-0.4375 3.265625,-0.921875 3.265625,-1.1875 3.3125,-1.375 3.5,-2.15625 L 3.921875,-3.796875 C 4.09375,-4.5 4.5,-5.03125 5.0625,-5.03125 c 0.015625,0 0.359375,0 0.609375,0.15625 z m 0,0"
           id="path1-626" />
      </g>
    </g>
    <g
       id="g5-7">
      <g
         id="glyph-0-0-92">
        <path
           d="m 2.71875,-2.390625 c 0.203125,0.03125 0.53125,0.109375 0.609375,0.125 0.15625,0.046875 0.6875,0.234375 0.6875,0.8125 0,0.359375 -0.328125,1.328125 -1.71875,1.328125 -0.25,0 -1.15625,-0.03125 -1.390625,-0.6875 C 1.390625,-0.75 1.625,-1.125 1.625,-1.390625 c 0,-0.25 -0.171875,-0.375 -0.40625,-0.375 -0.265625,0 -0.609375,0.203125 -0.609375,0.734375 0,0.703125 0.71875,1.15625 1.671875,1.15625 1.8125,0 2.359375,-1.34375 2.359375,-1.96875 0,-0.171875 0,-0.515625 -0.390625,-0.890625 C 3.953125,-3.03125 3.671875,-3.078125 3.03125,-3.21875 2.703125,-3.28125 2.1875,-3.390625 2.1875,-3.9375 c 0,-0.234375 0.21875,-1.09375 1.34375,-1.09375 0.515625,0 1,0.1875 1.125,0.625 -0.53125,0 -0.5625,0.453125 -0.5625,0.46875 0,0.25 0.234375,0.3125 0.34375,0.3125 0.171875,0 0.5,-0.125 0.5,-0.625 0,-0.5 -0.453125,-1.015625 -1.390625,-1.015625 -1.5625,0 -1.984375,1.21875 -1.984375,1.71875 0,0.90625 0.890625,1.09375 1.15625,1.15625 z m 0,0"
           id="path1-02" />
      </g>
      <g
         id="glyph-0-1-3">
        <path
           d="m 5.671875,-4.875 c -0.390625,0.0625 -0.53125,0.359375 -0.53125,0.578125 0,0.296875 0.21875,0.390625 0.390625,0.390625 0.359375,0 0.609375,-0.3125 0.609375,-0.640625 0,-0.5 -0.578125,-0.71875 -1.078125,-0.71875 -0.71875,0 -1.125,0.71875 -1.234375,0.9375 -0.28125,-0.890625 -1.015625,-0.9375 -1.234375,-0.9375 -1.21875,0 -1.859375,1.5625 -1.859375,1.828125 0,0.046875 0.046875,0.109375 0.125,0.109375 0.09375,0 0.125,-0.078125 0.140625,-0.125 0.40625,-1.328125 1.21875,-1.578125 1.5625,-1.578125 0.53125,0 0.640625,0.5 0.640625,0.78125 0,0.265625 -0.078125,0.546875 -0.21875,1.125 L 2.578125,-1.5 c -0.171875,0.71875 -0.515625,1.375 -1.15625,1.375 -0.0625,0 -0.359375,0 -0.609375,-0.15625 C 1.25,-0.359375 1.34375,-0.71875 1.34375,-0.859375 1.34375,-1.09375 1.15625,-1.25 0.9375,-1.25 c -0.296875,0 -0.609375,0.265625 -0.609375,0.640625 0,0.5 0.5625,0.734375 1.078125,0.734375 0.578125,0 0.984375,-0.453125 1.234375,-0.953125 C 2.828125,-0.125 3.4375,0.125 3.875,0.125 5.09375,0.125 5.734375,-1.453125 5.734375,-1.703125 5.734375,-1.765625 5.6875,-1.8125 5.625,-1.8125 5.515625,-1.8125 5.5,-1.75 5.46875,-1.65625 5.140625,-0.609375 4.453125,-0.125 3.90625,-0.125 3.484375,-0.125 3.265625,-0.4375 3.265625,-0.921875 3.265625,-1.1875 3.3125,-1.375 3.5,-2.15625 L 3.921875,-3.796875 C 4.09375,-4.5 4.5,-5.03125 5.0625,-5.03125 c 0.015625,0 0.359375,0 0.609375,0.15625 z m 0,0"
           id="path2-75" />
      </g>
      <g
         id="glyph-1-0-9">
        <path
           d="M 2.515625,-2.578125 H 3.34375 c 0.65625,0 0.6875,0.125 0.6875,0.359375 0,0.046875 0,0.125 -0.0625,0.34375 0,0.03125 -0.015625,0.09375 -0.015625,0.109375 0,0.015625 0,0.109375 0.125,0.109375 0.09375,0 0.125,-0.078125 0.140625,-0.171875 L 4.640625,-3.53125 c 0.015625,-0.015625 0.03125,-0.125 0.03125,-0.140625 0,-0.03125 -0.015625,-0.109375 -0.125,-0.109375 -0.09375,0 -0.109375,0.078125 -0.125,0.171875 -0.171875,0.625 -0.34375,0.765625 -1.0625,0.765625 H 2.59375 l 0.5,-2.015625 C 3.15625,-5.140625 3.171875,-5.15625 3.5,-5.15625 h 1.171875 c 0.953125,0 1.21875,0.203125 1.21875,0.890625 0,0.15625 -0.046875,0.375 -0.046875,0.515625 0,0.09375 0.0625,0.140625 0.125,0.140625 0.109375,0 0.125,-0.078125 0.140625,-0.203125 L 6.25,-5.171875 c 0,-0.046875 0,-0.09375 0,-0.140625 0,-0.109375 -0.09375,-0.109375 -0.234375,-0.109375 h -4.09375 c -0.140625,0 -0.234375,0 -0.234375,0.140625 0,0.125 0.09375,0.125 0.21875,0.125 0.0625,0 0.171875,0 0.3125,0.015625 0.15625,0.015625 0.1875,0.03125 0.1875,0.109375 0,0.046875 0,0.078125 -0.03125,0.15625 l -1.0625,4.25 c -0.0625,0.296875 -0.078125,0.359375 -0.671875,0.359375 -0.15625,0 -0.25,0 -0.25,0.15625 C 0.390625,-0.078125 0.421875,0 0.515625,0 0.6875,0 0.875,-0.03125 1.046875,-0.03125 H 2.15625 C 2.296875,-0.015625 2.59375,0 2.734375,0 c 0.0625,0 0.171875,0 0.171875,-0.15625 0,-0.109375 -0.09375,-0.109375 -0.265625,-0.109375 -0.15625,0 -0.21875,0 -0.40625,-0.015625 -0.21875,-0.015625 -0.25,-0.046875 -0.25,-0.140625 0,-0.015625 0,-0.0625 0.046875,-0.171875 z m 0,0"
           id="path3-22" />
      </g>
      <g
         id="glyph-2-0-8">
        <path
           d="m 3.890625,2.90625 c 0,-0.03125 0,-0.0625 -0.203125,-0.265625 C 2.484375,1.4375 1.8125,-0.53125 1.8125,-2.96875 c 0,-2.328125 0.5625,-4.328125 1.953125,-5.734375 0.125,-0.109375 0.125,-0.125 0.125,-0.171875 0,-0.0625 -0.0625,-0.09375 -0.109375,-0.09375 -0.15625,0 -1.140625,0.859375 -1.71875,2.03125 -0.609375,1.21875 -0.890625,2.484375 -0.890625,3.96875 0,1.0625 0.171875,2.484375 0.78125,3.75 C 2.671875,2.21875 3.640625,3 3.78125,3 3.828125,3 3.890625,2.96875 3.890625,2.90625 Z m 0,0"
           id="path4-9" />
      </g>
      <g
         id="glyph-2-1-7">
        <path
           d="M 3.375,-2.96875 C 3.375,-3.890625 3.25,-5.359375 2.578125,-6.75 1.875,-8.1875 0.890625,-8.96875 0.765625,-8.96875 c -0.046875,0 -0.109375,0.03125 -0.109375,0.09375 0,0.046875 0,0.0625 0.203125,0.265625 1.203125,1.203125 1.859375,3.1875 1.859375,5.625 0,2.3125 -0.5625,4.3125 -1.9375,5.71875 C 0.65625,2.84375 0.65625,2.875 0.65625,2.90625 0.65625,2.96875 0.71875,3 0.765625,3 0.921875,3 1.90625,2.140625 2.484375,0.96875 3.09375,-0.25 3.375,-1.546875 3.375,-2.96875 Z m 0,0"
           id="path5-3" />
      </g>
    </g>
    <g
       id="g5-9">
      <g
         id="glyph-0-0-31">
        <path
           d="M 0.515625,1.515625 C 0.4375,1.875 0.375,1.96875 -0.109375,1.96875 c -0.140625,0 -0.265625,0 -0.265625,0.234375 0,0.015625 0.015625,0.109375 0.140625,0.109375 0.15625,0 0.328125,-0.015625 0.484375,-0.015625 h 0.515625 c 0.25,0 0.859375,0.015625 1.109375,0.015625 0.078125,0 0.21875,0 0.21875,-0.203125 C 2.09375,1.96875 2.015625,1.96875 1.8125,1.96875 1.25,1.96875 1.21875,1.890625 1.21875,1.796875 1.21875,1.65625 1.75,-0.40625 1.828125,-0.6875 c 0.125,0.34375 0.453125,0.8125 1.078125,0.8125 1.34375,0 2.8125,-1.765625 2.8125,-3.515625 0,-1.109375 -0.625,-1.875 -1.515625,-1.875 -0.765625,0 -1.421875,0.734375 -1.546875,0.90625 -0.09375,-0.59375 -0.5625,-0.90625 -1.046875,-0.90625 -0.34375,0 -0.625,0.15625 -0.84375,0.609375 C 0.546875,-4.21875 0.375,-3.484375 0.375,-3.4375 c 0,0.046875 0.0625,0.109375 0.140625,0.109375 0.09375,0 0.109375,-0.015625 0.171875,-0.296875 0.1875,-0.703125 0.40625,-1.40625 0.890625,-1.40625 0.28125,0 0.375,0.1875 0.375,0.546875 0,0.28125 -0.046875,0.40625 -0.09375,0.625 z m 2.0625,-5.25 C 2.671875,-4.0625 3,-4.40625 3.1875,-4.578125 c 0.140625,-0.125 0.53125,-0.453125 0.984375,-0.453125 0.53125,0 0.765625,0.53125 0.765625,1.140625 0,0.578125 -0.328125,1.9375 -0.640625,2.546875 C 4,-0.6875 3.453125,-0.125 2.90625,-0.125 c -0.8125,0 -0.953125,-1.015625 -0.953125,-1.0625 0,-0.046875 0.03125,-0.140625 0.046875,-0.203125 z m 0,0"
           id="path1-94" />
      </g>
      <g
         id="glyph-0-1-7">
        <path
           d="m 5.671875,-4.875 c -0.390625,0.0625 -0.53125,0.359375 -0.53125,0.578125 0,0.296875 0.21875,0.390625 0.390625,0.390625 0.359375,0 0.609375,-0.3125 0.609375,-0.640625 0,-0.5 -0.578125,-0.71875 -1.078125,-0.71875 -0.71875,0 -1.125,0.71875 -1.234375,0.9375 -0.28125,-0.890625 -1.015625,-0.9375 -1.234375,-0.9375 -1.21875,0 -1.859375,1.5625 -1.859375,1.828125 0,0.046875 0.046875,0.109375 0.125,0.109375 0.09375,0 0.125,-0.078125 0.140625,-0.125 0.40625,-1.328125 1.21875,-1.578125 1.5625,-1.578125 0.53125,0 0.640625,0.5 0.640625,0.78125 0,0.265625 -0.078125,0.546875 -0.21875,1.125 L 2.578125,-1.5 c -0.171875,0.71875 -0.515625,1.375 -1.15625,1.375 -0.0625,0 -0.359375,0 -0.609375,-0.15625 C 1.25,-0.359375 1.34375,-0.71875 1.34375,-0.859375 1.34375,-1.09375 1.15625,-1.25 0.9375,-1.25 c -0.296875,0 -0.609375,0.265625 -0.609375,0.640625 0,0.5 0.5625,0.734375 1.078125,0.734375 0.578125,0 0.984375,-0.453125 1.234375,-0.953125 C 2.828125,-0.125 3.4375,0.125 3.875,0.125 5.09375,0.125 5.734375,-1.453125 5.734375,-1.703125 5.734375,-1.765625 5.6875,-1.8125 5.625,-1.8125 5.515625,-1.8125 5.5,-1.75 5.46875,-1.65625 5.140625,-0.609375 4.453125,-0.125 3.90625,-0.125 3.484375,-0.125 3.265625,-0.4375 3.265625,-0.921875 3.265625,-1.1875 3.3125,-1.375 3.5,-2.15625 L 3.921875,-3.796875 C 4.09375,-4.5 4.5,-5.03125 5.0625,-5.03125 c 0.015625,0 0.359375,0 0.609375,0.15625 z m 0,0"
           id="path2-8" />
      </g>
      <g
         id="glyph-1-0-4">
        <path
           d="M 2.515625,-2.578125 H 3.34375 c 0.65625,0 0.6875,0.125 0.6875,0.359375 0,0.046875 0,0.125 -0.0625,0.34375 0,0.03125 -0.015625,0.09375 -0.015625,0.109375 0,0.015625 0,0.109375 0.125,0.109375 0.09375,0 0.125,-0.078125 0.140625,-0.171875 L 4.640625,-3.53125 c 0.015625,-0.015625 0.03125,-0.125 0.03125,-0.140625 0,-0.03125 -0.015625,-0.109375 -0.125,-0.109375 -0.09375,0 -0.109375,0.078125 -0.125,0.171875 -0.171875,0.625 -0.34375,0.765625 -1.0625,0.765625 H 2.59375 l 0.5,-2.015625 C 3.15625,-5.140625 3.171875,-5.15625 3.5,-5.15625 h 1.171875 c 0.953125,0 1.21875,0.203125 1.21875,0.890625 0,0.15625 -0.046875,0.375 -0.046875,0.515625 0,0.09375 0.0625,0.140625 0.125,0.140625 0.109375,0 0.125,-0.078125 0.140625,-0.203125 L 6.25,-5.171875 c 0,-0.046875 0,-0.09375 0,-0.140625 0,-0.109375 -0.09375,-0.109375 -0.234375,-0.109375 h -4.09375 c -0.140625,0 -0.234375,0 -0.234375,0.140625 0,0.125 0.09375,0.125 0.21875,0.125 0.0625,0 0.171875,0 0.3125,0.015625 0.15625,0.015625 0.1875,0.03125 0.1875,0.109375 0,0.046875 0,0.078125 -0.03125,0.15625 l -1.0625,4.25 c -0.0625,0.296875 -0.078125,0.359375 -0.671875,0.359375 -0.15625,0 -0.25,0 -0.25,0.15625 C 0.390625,-0.078125 0.421875,0 0.515625,0 0.6875,0 0.875,-0.03125 1.046875,-0.03125 H 2.15625 C 2.296875,-0.015625 2.59375,0 2.734375,0 c 0.0625,0 0.171875,0 0.171875,-0.15625 0,-0.109375 -0.09375,-0.109375 -0.265625,-0.109375 -0.15625,0 -0.21875,0 -0.40625,-0.015625 -0.21875,-0.015625 -0.25,-0.046875 -0.25,-0.140625 0,-0.015625 0,-0.0625 0.046875,-0.171875 z m 0,0"
           id="path3-50" />
      </g>
      <g
         id="glyph-2-0-3">
        <path
           d="m 3.890625,2.90625 c 0,-0.03125 0,-0.0625 -0.203125,-0.265625 C 2.484375,1.4375 1.8125,-0.53125 1.8125,-2.96875 c 0,-2.328125 0.5625,-4.328125 1.953125,-5.734375 0.125,-0.109375 0.125,-0.125 0.125,-0.171875 0,-0.0625 -0.0625,-0.09375 -0.109375,-0.09375 -0.15625,0 -1.140625,0.859375 -1.71875,2.03125 -0.609375,1.21875 -0.890625,2.484375 -0.890625,3.96875 0,1.0625 0.171875,2.484375 0.78125,3.75 C 2.671875,2.21875 3.640625,3 3.78125,3 3.828125,3 3.890625,2.96875 3.890625,2.90625 Z m 0,0"
           id="path4-61" />
      </g>
      <g
         id="glyph-2-1-0">
        <path
           d="M 3.375,-2.96875 C 3.375,-3.890625 3.25,-5.359375 2.578125,-6.75 1.875,-8.1875 0.890625,-8.96875 0.765625,-8.96875 c -0.046875,0 -0.109375,0.03125 -0.109375,0.09375 0,0.046875 0,0.0625 0.203125,0.265625 1.203125,1.203125 1.859375,3.1875 1.859375,5.625 0,2.3125 -0.5625,4.3125 -1.9375,5.71875 C 0.65625,2.84375 0.65625,2.875 0.65625,2.90625 0.65625,2.96875 0.71875,3 0.765625,3 0.921875,3 1.90625,2.140625 2.484375,0.96875 3.09375,-0.25 3.375,-1.546875 3.375,-2.96875 Z m 0,0"
           id="path5-63" />
      </g>
    </g>
    <g
       id="g5-3">
      <g
         id="glyph-0-0-67">
        <path
           d="M 6.078125 -4.5 C 6.234375 -4.5 6.625 -4.5 6.625 -4.890625 C 6.625 -5.15625 6.390625 -5.15625 6.1875 -5.15625 L 3.53125 -5.15625 C 1.75 -5.15625 0.453125 -3.15625 0.453125 -1.75 C 0.453125 -0.734375 1.109375 0.125 2.1875 0.125 C 3.59375 0.125 5.140625 -1.40625 5.140625 -3.1875 C 5.140625 -3.65625 5.03125 -4.109375 4.75 -4.5 Z M 2.203125 -0.125 C 1.59375 -0.125 1.140625 -0.578125 1.140625 -1.40625 C 1.140625 -2.125 1.578125 -4.5 3.328125 -4.5 C 3.84375 -4.5 4.421875 -4.25 4.421875 -3.328125 C 4.421875 -2.921875 4.234375 -1.90625 3.8125 -1.21875 C 3.375 -0.515625 2.734375 -0.125 2.203125 -0.125 Z M 2.203125 -0.125 "
           id="path1-53" />
      </g>
      <g
         id="glyph-0-1-5">
        <path
           d="M 5.671875 -4.875 C 5.28125 -4.8125 5.140625 -4.515625 5.140625 -4.296875 C 5.140625 -4 5.359375 -3.90625 5.53125 -3.90625 C 5.890625 -3.90625 6.140625 -4.21875 6.140625 -4.546875 C 6.140625 -5.046875 5.5625 -5.265625 5.0625 -5.265625 C 4.34375 -5.265625 3.9375 -4.546875 3.828125 -4.328125 C 3.546875 -5.21875 2.8125 -5.265625 2.59375 -5.265625 C 1.375 -5.265625 0.734375 -3.703125 0.734375 -3.4375 C 0.734375 -3.390625 0.78125 -3.328125 0.859375 -3.328125 C 0.953125 -3.328125 0.984375 -3.40625 1 -3.453125 C 1.40625 -4.78125 2.21875 -5.03125 2.5625 -5.03125 C 3.09375 -5.03125 3.203125 -4.53125 3.203125 -4.25 C 3.203125 -3.984375 3.125 -3.703125 2.984375 -3.125 L 2.578125 -1.5 C 2.40625 -0.78125 2.0625 -0.125 1.421875 -0.125 C 1.359375 -0.125 1.0625 -0.125 0.8125 -0.28125 C 1.25 -0.359375 1.34375 -0.71875 1.34375 -0.859375 C 1.34375 -1.09375 1.15625 -1.25 0.9375 -1.25 C 0.640625 -1.25 0.328125 -0.984375 0.328125 -0.609375 C 0.328125 -0.109375 0.890625 0.125 1.40625 0.125 C 1.984375 0.125 2.390625 -0.328125 2.640625 -0.828125 C 2.828125 -0.125 3.4375 0.125 3.875 0.125 C 5.09375 0.125 5.734375 -1.453125 5.734375 -1.703125 C 5.734375 -1.765625 5.6875 -1.8125 5.625 -1.8125 C 5.515625 -1.8125 5.5 -1.75 5.46875 -1.65625 C 5.140625 -0.609375 4.453125 -0.125 3.90625 -0.125 C 3.484375 -0.125 3.265625 -0.4375 3.265625 -0.921875 C 3.265625 -1.1875 3.3125 -1.375 3.5 -2.15625 L 3.921875 -3.796875 C 4.09375 -4.5 4.5 -5.03125 5.0625 -5.03125 C 5.078125 -5.03125 5.421875 -5.03125 5.671875 -4.875 Z M 5.671875 -4.875 "
           id="path2-62" />
      </g>
      <g
         id="glyph-1-0-91">
        <path
           d="M 2.515625 -2.578125 L 3.34375 -2.578125 C 4 -2.578125 4.03125 -2.453125 4.03125 -2.21875 C 4.03125 -2.171875 4.03125 -2.09375 3.96875 -1.875 C 3.96875 -1.84375 3.953125 -1.78125 3.953125 -1.765625 C 3.953125 -1.75 3.953125 -1.65625 4.078125 -1.65625 C 4.171875 -1.65625 4.203125 -1.734375 4.21875 -1.828125 L 4.640625 -3.53125 C 4.65625 -3.546875 4.671875 -3.65625 4.671875 -3.671875 C 4.671875 -3.703125 4.65625 -3.78125 4.546875 -3.78125 C 4.453125 -3.78125 4.4375 -3.703125 4.421875 -3.609375 C 4.25 -2.984375 4.078125 -2.84375 3.359375 -2.84375 L 2.59375 -2.84375 L 3.09375 -4.859375 C 3.15625 -5.140625 3.171875 -5.15625 3.5 -5.15625 L 4.671875 -5.15625 C 5.625 -5.15625 5.890625 -4.953125 5.890625 -4.265625 C 5.890625 -4.109375 5.84375 -3.890625 5.84375 -3.75 C 5.84375 -3.65625 5.90625 -3.609375 5.96875 -3.609375 C 6.078125 -3.609375 6.09375 -3.6875 6.109375 -3.8125 L 6.25 -5.171875 C 6.25 -5.21875 6.25 -5.265625 6.25 -5.3125 C 6.25 -5.421875 6.15625 -5.421875 6.015625 -5.421875 L 1.921875 -5.421875 C 1.78125 -5.421875 1.6875 -5.421875 1.6875 -5.28125 C 1.6875 -5.15625 1.78125 -5.15625 1.90625 -5.15625 C 1.96875 -5.15625 2.078125 -5.15625 2.21875 -5.140625 C 2.375 -5.125 2.40625 -5.109375 2.40625 -5.03125 C 2.40625 -4.984375 2.40625 -4.953125 2.375 -4.875 L 1.3125 -0.625 C 1.25 -0.328125 1.234375 -0.265625 0.640625 -0.265625 C 0.484375 -0.265625 0.390625 -0.265625 0.390625 -0.109375 C 0.390625 -0.078125 0.421875 0 0.515625 0 C 0.6875 0 0.875 -0.03125 1.046875 -0.03125 L 2.15625 -0.03125 C 2.296875 -0.015625 2.59375 0 2.734375 0 C 2.796875 0 2.90625 0 2.90625 -0.15625 C 2.90625 -0.265625 2.8125 -0.265625 2.640625 -0.265625 C 2.484375 -0.265625 2.421875 -0.265625 2.234375 -0.28125 C 2.015625 -0.296875 1.984375 -0.328125 1.984375 -0.421875 C 1.984375 -0.4375 1.984375 -0.484375 2.03125 -0.59375 Z M 2.515625 -2.578125 "
           id="path3-27" />
      </g>
      <g
         id="glyph-2-0-0">
        <path
           d="M 3.890625 2.90625 C 3.890625 2.875 3.890625 2.84375 3.6875 2.640625 C 2.484375 1.4375 1.8125 -0.53125 1.8125 -2.96875 C 1.8125 -5.296875 2.375 -7.296875 3.765625 -8.703125 C 3.890625 -8.8125 3.890625 -8.828125 3.890625 -8.875 C 3.890625 -8.9375 3.828125 -8.96875 3.78125 -8.96875 C 3.625 -8.96875 2.640625 -8.109375 2.0625 -6.9375 C 1.453125 -5.71875 1.171875 -4.453125 1.171875 -2.96875 C 1.171875 -1.90625 1.34375 -0.484375 1.953125 0.78125 C 2.671875 2.21875 3.640625 3 3.78125 3 C 3.828125 3 3.890625 2.96875 3.890625 2.90625 Z M 3.890625 2.90625 "
           id="path4" />
      </g>
      <g
         id="glyph-2-1-9">
        <path
           d="M 3.375 -2.96875 C 3.375 -3.890625 3.25 -5.359375 2.578125 -6.75 C 1.875 -8.1875 0.890625 -8.96875 0.765625 -8.96875 C 0.71875 -8.96875 0.65625 -8.9375 0.65625 -8.875 C 0.65625 -8.828125 0.65625 -8.8125 0.859375 -8.609375 C 2.0625 -7.40625 2.71875 -5.421875 2.71875 -2.984375 C 2.71875 -0.671875 2.15625 1.328125 0.78125 2.734375 C 0.65625 2.84375 0.65625 2.875 0.65625 2.90625 C 0.65625 2.96875 0.71875 3 0.765625 3 C 0.921875 3 1.90625 2.140625 2.484375 0.96875 C 3.09375 -0.25 3.375 -1.546875 3.375 -2.96875 Z M 3.375 -2.96875 "
           id="path5-36" />
      </g>
    </g>
    <g
       id="g2-6">
      <g
         id="glyph-0-0-75">
        <path
           d="M 8.9375 -7.296875 C 9.046875 -7.703125 9.078125 -7.8125 9.921875 -7.8125 C 10.140625 -7.8125 10.25 -7.8125 10.25 -8.03125 C 10.25 -8.15625 10.140625 -8.15625 10.078125 -8.15625 C 9.859375 -8.15625 9.609375 -8.140625 9.390625 -8.140625 L 7.96875 -8.140625 C 7.75 -8.140625 7.5 -8.15625 7.265625 -8.15625 C 7.1875 -8.15625 7.046875 -8.15625 7.046875 -7.9375 C 7.046875 -7.8125 7.125 -7.8125 7.34375 -7.8125 C 8.0625 -7.8125 8.0625 -7.71875 8.0625 -7.59375 C 8.0625 -7.5625 8.0625 -7.5 8.015625 -7.3125 L 7.296875 -4.421875 L 3.6875 -4.421875 L 4.40625 -7.296875 C 4.5 -7.703125 4.53125 -7.8125 5.375 -7.8125 C 5.59375 -7.8125 5.71875 -7.8125 5.71875 -8.03125 C 5.71875 -8.15625 5.609375 -8.15625 5.53125 -8.15625 C 5.3125 -8.15625 5.0625 -8.140625 4.84375 -8.140625 L 3.4375 -8.140625 C 3.203125 -8.140625 2.953125 -8.15625 2.71875 -8.15625 C 2.640625 -8.15625 2.5 -8.15625 2.5 -7.9375 C 2.5 -7.8125 2.578125 -7.8125 2.8125 -7.8125 C 3.53125 -7.8125 3.53125 -7.71875 3.53125 -7.59375 C 3.53125 -7.5625 3.53125 -7.5 3.484375 -7.3125 L 1.859375 -0.890625 C 1.75 -0.46875 1.734375 -0.34375 0.90625 -0.34375 C 0.640625 -0.34375 0.546875 -0.34375 0.546875 -0.125 C 0.546875 0 0.6875 0 0.71875 0 C 0.9375 0 1.1875 -0.03125 1.40625 -0.03125 L 2.828125 -0.03125 C 3.046875 -0.03125 3.296875 0 3.53125 0 C 3.625 0 3.75 0 3.75 -0.234375 C 3.75 -0.34375 3.640625 -0.34375 3.46875 -0.34375 C 2.734375 -0.34375 2.734375 -0.4375 2.734375 -0.5625 C 2.734375 -0.578125 2.734375 -0.65625 2.765625 -0.75 L 3.578125 -4.078125 L 7.203125 -4.078125 C 7 -3.28125 6.390625 -0.78125 6.375 -0.71875 C 6.234375 -0.359375 6.046875 -0.359375 5.34375 -0.34375 C 5.203125 -0.34375 5.09375 -0.34375 5.09375 -0.125 C 5.09375 0 5.21875 0 5.265625 0 C 5.46875 0 5.71875 -0.03125 5.953125 -0.03125 L 7.359375 -0.03125 C 7.59375 -0.03125 7.84375 0 8.0625 0 C 8.15625 0 8.296875 0 8.296875 -0.234375 C 8.296875 -0.34375 8.1875 -0.34375 8.015625 -0.34375 C 7.28125 -0.34375 7.28125 -0.4375 7.28125 -0.5625 C 7.28125 -0.578125 7.28125 -0.65625 7.296875 -0.75 Z M 8.9375 -7.296875 "
           id="path1-356" />
      </g>
      <g
         id="glyph-1-0-2">
        <path
           d="M 3.46875 -5.234375 C 3.46875 -5.359375 3.46875 -5.53125 3.296875 -5.53125 C 3.109375 -5.53125 3.109375 -5.359375 3.109375 -5.21875 L 3.109375 -0.359375 L 0.78125 -0.359375 C 0.640625 -0.359375 0.46875 -0.359375 0.46875 -0.1875 C 0.46875 0 0.640625 0 0.78125 0 L 5.8125 0 C 5.9375 0 6.109375 0 6.109375 -0.1875 C 6.109375 -0.359375 5.9375 -0.359375 5.8125 -0.359375 L 3.46875 -0.359375 Z M 3.46875 -5.234375 "
           id="path2-9" />
      </g>
    </g>
  </defs>
  <sodipodi:namedview
     id="base"
     pagecolor="#ffffff"
     bordercolor="#666666"
     borderopacity="1.0"
     inkscape:pageopacity="0.0"
     inkscape:pageshadow="2"
     inkscape:zoom="2.6191268"
     inkscape:cx="137.45039"
     inkscape:cy="118.16915"
     inkscape:document-units="mm"
     inkscape:current-layer="layer1"
     showgrid="false"
     showborder="true"
     width="200mm"
     showguides="true"
     inkscape:guide-bbox="true"
     inkscape:window-width="1920"
     inkscape:window-height="1200"
     inkscape:window-x="0"
     inkscape:window-y="0"
     inkscape:window-maximized="1"
     inkscape:showpageshadow="2"
     inkscape:pagecheckerboard="0"
     inkscape:deskcolor="#d1d1d1">
    <inkscape:grid
       type="xygrid"
       id="grid815"
       units="mm"
       spacingx="10"
       spacingy="10"
       empspacing="4"
       dotted="false"
       originx="-203.02677"
       originy="13.927484" />
  </sodipodi:namedview>
  <metadata
     id="metadata5">
    <rdf:RDF>
      <cc:Work
         rdf:about="">
        <dc:format>image/svg+xml</dc:format>
        <dc:type
           rdf:resource="http://purl.org/dc/dcmitype/StillImage" />
        <dc:title />
      </cc:Work>
    </rdf:RDF>
  </metadata>
  <g
     inkscape:label="Layer 1"
     inkscape:groupmode="layer"
     id="layer1"
     transform="translate(-203.02675,-163.07251)">
    <rect
       style="fill:none;fill-opacity:1;stroke:#000000;stroke-width:0.185849;stroke-linecap:round;stroke-linejoin:round;stroke-dasharray:none;stroke-opacity:1;marker-start:none;marker-end:none;paint-order:markers stroke fill"
       id="rect1"
       width="60.066544"
       height="29.13826"
       x="251.45464"
       y="179.79272"
       transform="matrix(0.9999992,-0.00126293,-0.23133144,0.972875,0,0)" />
    <g
       id="path1"
       style="opacity:1"
       transform="matrix(1.4225511,0,0,1.4225511,-85.789174,-90.255818)">
      <g
         id="g21">
        <g
           transform="matrix(0,-0.30244381,0.30244381,0,217.03728,178.28873)"
           id="g22">
          <path
             style="baseline-shift:baseline;display:inline;overflow:visible;opacity:1;vector-effect:none;stroke-linecap:round;stroke-linejoin:round;stroke-miterlimit:10;enable-background:accumulate;stop-color:#000000;stop-opacity:1"
             d="m -1.6035156,-2.3671875 a 0.30000001,0.30000001 0 0 0 -0.2460938,0.34375 c 0.090081,0.5404981 0.5200776,1.023359 0.96093752,1.44726563 0.22042997,0.21195332 0.44821888,0.40042472 0.65039063,0.54882812 0.0178005,0.01306637 0.0297375,0.01494132 0.046875,0.02734375 -0.0171375,0.01240243 -0.0290745,0.01427738 -0.046875,0.02734375 C -0.440453,0.17574715 -0.66824191,0.36421855 -0.88867188,0.57617187 -1.3295318,1.0000785 -1.7595287,1.4829394 -1.8496094,2.0234375 a 0.30000001,0.30000001 0 0 0 0.2460938,0.34375 0.30000001,0.30000001 0 0 0 0.3457031,-0.2460937 C -1.2183832,1.8845119 -0.87362381,1.395314 -0.47265625,1.0097656 -0.27217247,0.81699145 -0.06107918,0.64257473 0.1171875,0.51171875 0.29545418,0.38086277 0.46119455,0.29223166 0.48242188,0.28515625 a 0.30003001,0.30003001 0 0 0 0,-0.5703125 C 0.46119455,-0.29223166 0.29545418,-0.38086277 0.1171875,-0.51171875 -0.06107918,-0.64257473 -0.27217247,-0.81699145 -0.47265625,-1.0097656 -0.87362381,-1.395314 -1.2183832,-1.8845119 -1.2578125,-2.1210938 a 0.30000001,0.30000001 0 0 0 -0.3457031,-0.2460937 z"
             id="path21" />
        </g>
      </g>
      <path
         style="baseline-shift:baseline;display:inline;overflow:visible;vector-effect:none;stroke-linecap:round;stroke-linejoin:round;paint-order:markers stroke fill;enable-background:accumulate;stop-color:#000000;stop-opacity:1"
         d="m 217.03711,178.21875 a 0.0702205,0.0702205 0 0 0 -0.0703,0.0703 v 23.21485 a 0.0702205,0.0702205 0 0 0 0.0703,0.0703 0.0702205,0.0702205 0 0 0 0.0703,-0.0703 v -23.21485 a 0.0702205,0.0702205 0 0 0 -0.0703,-0.0703 z"
         id="path23" />
    </g>
    <path
       style="fill:none;fill-opacity:1;stroke:#000000;stroke-width:0.199785;stroke-linecap:round;stroke-linejoin:round;stroke-dasharray:1.49839, 1.49839;stroke-opacity:1;marker-start:none;marker-end:none;paint-order:markers stroke fill"
       d="m 222.95744,196.39396 v 6.52715"
       id="path2"
       sodipodi:nodetypes="cc" />
    <path
       style="fill:none;fill-opacity:1;stroke:#000000;stroke-width:0.199785;stroke-linecap:round;stroke-linejoin:round;stroke-dasharray:none;stroke-opacity:1;marker-start:none;marker-end:none;paint-order:markers stroke fill"
       d="m 222.95744,202.92111 v 10.57641"
       id="path3"
       sodipodi:nodetypes="cc" />
    <g
       id="path8"
       style="opacity:1"
       transform="matrix(1.4225511,0,0,1.4225511,-85.789174,-90.255818)">
      <g
         id="g3">
        <g
           transform="matrix(0.18538801,-0.23896348,0.23896348,0.18538801,232.60939,181.43172)"
           id="g10">
          <path
             style="baseline-shift:baseline;display:inline;overflow:visible;opacity:1;vector-effect:none;stroke-linecap:round;stroke-linejoin:round;stroke-miterlimit:10;enable-background:accumulate;stop-color:#000000;stop-opacity:1"
             d="m -1.6035156,-2.3671875 a 0.30000001,0.30000001 0 0 0 -0.2460938,0.34375 c 0.090081,0.5404981 0.5200776,1.023359 0.96093752,1.44726563 0.22042997,0.21195332 0.44821888,0.40042472 0.65039063,0.54882812 0.0178005,0.01306637 0.0297375,0.01494132 0.046875,0.02734375 -0.0171375,0.01240243 -0.0290745,0.01427738 -0.046875,0.02734375 C -0.440453,0.17574715 -0.66824191,0.36421855 -0.88867188,0.57617187 -1.3295318,1.0000785 -1.7595287,1.4829394 -1.8496094,2.0234375 a 0.30000001,0.30000001 0 0 0 0.2460938,0.34375 0.30000001,0.30000001 0 0 0 0.3457031,-0.2460937 C -1.2183832,1.8845119 -0.87362381,1.395314 -0.47265625,1.0097656 -0.27217247,0.81699145 -0.06107918,0.64257473 0.1171875,0.51171875 0.29545418,0.38086277 0.46119455,0.29223166 0.48242188,0.28515625 a 0.30003001,0.30003001 0 0 0 0,-0.5703125 C 0.46119455,-0.29223166 0.29545418,-0.38086277 0.1171875,-0.51171875 -0.06107918,-0.64257473 -0.27217247,-0.81699145 -0.47265625,-1.0097656 -0.87362381,-1.395314 -1.2183832,-1.8845119 -1.2578125,-2.1210938 a 0.30000001,0.30000001 0 0 0 -0.3457031,-0.2460937 z"
             id="path10" />
        </g>
      </g>
      <path
         style="baseline-shift:baseline;display:inline;overflow:visible;vector-effect:none;stroke-linecap:round;stroke-linejoin:round;paint-order:markers stroke fill;enable-background:accumulate;stop-color:#000000;stop-opacity:1"
         d="m 232.65234,181.37695 a 0.0702205,0.0702205 0 0 0 -0.0977,0.0117 l -15.57227,20.07227 a 0.0702205,0.0702205 0 0 0 0.0117,0.0977 0.0702205,0.0702205 0 0 0 0.0977,-0.0117 l 15.57226,-20.07226 a 0.0702205,0.0702205 0 0 0 -0.0117,-0.0977 z"
         id="path14" />
    </g>
    <path
       style="fill:none;fill-opacity:1;stroke:#000000;stroke-width:0.199785;stroke-linecap:round;stroke-linejoin:round;stroke-dasharray:0.199785, 0.998921;stroke-opacity:1;marker-start:none;marker-end:none;paint-order:markers stroke fill"
       d="m 245.31279,209.47504 -0.20322,-41.63497"
       id="path9"
       sodipodi:nodetypes="cc" />
    <path
       style="fill:none;fill-opacity:1;stroke:#000000;stroke-width:0.199785;stroke-linecap:round;stroke-linejoin:round;stroke-dasharray:1.49839, 1.49839;stroke-opacity:1;marker-start:none;marker-end:none;paint-order:markers stroke fill"
       d="m 222.95744,196.39396 11.27928,6.55418"
       id="path12" />
    <g
       id="path13"
       style="opacity:1"
       transform="matrix(1.4225511,0,0,1.4225511,-85.789174,-90.255818)">
      <g
         id="g18">
        <g
           transform="matrix(0.26150048,0.15195313,-0.15195313,0.26150048,232.89511,210.71872)"
           id="g19">
          <path
             style="baseline-shift:baseline;display:inline;overflow:visible;opacity:1;vector-effect:none;stroke-linecap:round;stroke-linejoin:round;stroke-miterlimit:10;enable-background:accumulate;stop-color:#000000;stop-opacity:1"
             d="m -1.6035156,-2.3671875 a 0.30000001,0.30000001 0 0 0 -0.2460938,0.34375 c 0.090081,0.5404981 0.5200776,1.023359 0.96093752,1.44726563 0.22042997,0.21195332 0.44821888,0.40042472 0.65039063,0.54882812 0.0178005,0.01306637 0.0297375,0.01494132 0.046875,0.02734375 -0.0171375,0.01240243 -0.0290745,0.01427738 -0.046875,0.02734375 C -0.440453,0.17574715 -0.66824191,0.36421855 -0.88867188,0.57617187 -1.3295318,1.0000785 -1.7595287,1.4829394 -1.8496094,2.0234375 a 0.30000001,0.30000001 0 0 0 0.2460938,0.34375 0.30000001,0.30000001 0 0 0 0.3457031,-0.2460937 C -1.2183832,1.8845119 -0.87362381,1.395314 -0.47265625,1.0097656 -0.27217247,0.81699145 -0.06107918,0.64257473 0.1171875,0.51171875 0.29545418,0.38086277 0.46119455,0.29223166 0.48242188,0.28515625 a 0.30003001,0.30003001 0 0 0 0,-0.5703125 C 0.46119455,-0.29223166 0.29545418,-0.38086277 0.1171875,-0.51171875 -0.06107918,-0.64257473 -0.27217247,-0.81699145 -0.47265625,-1.0097656 -0.87362381,-1.395314 -1.2183832,-1.8845119 -1.2578125,-2.1210938 a 0.30000001,0.30000001 0 0 0 -0.3457031,-0.2460937 z"
             id="path18" />
        </g>
      </g>
      <path
         style="baseline-shift:baseline;display:inline;overflow:visible;vector-effect:none;stroke-linecap:round;stroke-linejoin:round;paint-order:markers stroke fill;enable-background:accumulate;stop-color:#000000;stop-opacity:1"
         d="m 225.00195,206.05078 a 0.0702205,0.0702205 0 0 0 -0.0957,0.0254 0.0702205,0.0702205 0 0 0 0.0254,0.0957 l 7.92773,4.60743 a 0.0702205,0.0702205 0 0 0 0.0957,-0.0254 0.0702205,0.0702205 0 0 0 -0.0254,-0.0957 z"
         id="path20" />
    </g>
    <use
       xlink:href="#glyph-0-0-60"
       x="11.955"
       y="17.103001"
       id="use1-8"
       transform="matrix(0.3763833,0,0,0.3763833,235.49332,162.5503)"
       style="fill:#000000;fill-opacity:1" />
    <use
       xlink:href="#glyph-0-0-67"
       x="11.955"
       y="20.922001"
       id="use5-6"
       transform="matrix(0.3517529,0,0,0.3517529,243.80744,202.59361)"
       style="fill:#000000;fill-opacity:1" />
    <use
       xlink:href="#glyph-2-0-0"
       x="25.642"
       y="20.922001"
       id="use7-1"
       transform="matrix(0.3517529,0,0,0.3517529,243.80744,202.59361)"
       style="fill:#000000;fill-opacity:1" />
    <use
       xlink:href="#glyph-0-1-5"
       x="30.19454"
       y="20.922001"
       id="use8-8"
       transform="matrix(0.3517529,0,0,0.3517529,243.80744,202.59361)"
       style="fill:#000000;fill-opacity:1" />
    <use
       xlink:href="#glyph-2-1-9"
       x="36.846413"
       y="20.922001"
       id="use9-9"
       transform="matrix(0.3517529,0,0,0.3517529,243.80744,202.59361)"
       style="fill:#000000;fill-opacity:1" />
    <use
       xlink:href="#glyph-0-0-75"
       x="11.955"
       y="21.829"
       id="use2-2"
       transform="matrix(0.37692797,0,0,0.37692797,219.83685,159.5134)"
       style="fill:#000000;fill-opacity:1" />
    <use
       xlink:href="#glyph-0-0-75"
       x="11.955"
       y="21.829"
       id="use2-2-9"
       transform="matrix(0.37692797,0,0,0.37692797,199.87567,193.35607)"
       style="fill:#000000;fill-opacity:1" />
    <use
       xlink:href="#glyph-1-0-2"
       x="22.577999"
       y="17.49"
       id="use3-7"
       transform="matrix(0.37692797,0,0,0.37692797,219.83685,159.5134)"
       style="fill:#000000;fill-opacity:1" />
    <use
       xlink:href="#glyph-0-0-75"
       x="11.955"
       y="21.829"
       id="use2-2-0"
       transform="matrix(0.22969356,0,0,0.22969356,247.66923,205.54481)"
       style="fill:#000000;fill-opacity:1" />
  </g>
</svg>
