<?xml version="1.0" encoding="UTF-8" standalone="no"?>
<!-- Created with Inkscape (http://www.inkscape.org/) -->

<svg
   width="500"
   height="100"
   viewBox="0 0 132.29167 26.458333"
   version="1.1"
   id="svg1"
   inkscape:version="1.4.2 (ebf0e940d0, 2025-05-08)"
   sodipodi:docname="cover.svg"
   xmlns:inkscape="http://www.inkscape.org/namespaces/inkscape"
   xmlns:sodipodi="http://sodipodi.sourceforge.net/DTD/sodipodi-0.dtd"
   xmlns="http://www.w3.org/2000/svg"
   xmlns:svg="http://www.w3.org/2000/svg">
  <sodipodi:namedview
     id="namedview1"
     pagecolor="#ffffff"
     bordercolor="#000000"
     borderopacity="0.25"
     inkscape:showpageshadow="2"
     inkscape:pageopacity="0.0"
     inkscape:pagecheckerboard="0"
     inkscape:deskcolor="#d1d1d1"
     inkscape:document-units="mm"
     inkscape:zoom="1.4142136"
     inkscape:cx="318.90515"
     inkscape:cy="52.679454"
     inkscape:window-width="898"
     inkscape:window-height="1006"
     inkscape:window-x="2926"
     inkscape:window-y="58"
     inkscape:window-maximized="1"
     inkscape:current-layer="layer1" />
  <defs
     id="defs1">
    <rect
       x="52.325902"
       y="193.74726"
       width="508.384"
       height="128.15487"
       id="rect5" />
    <rect
       x="71.417785"
       y="195.86858"
       width="387.49452"
       height="118.79394"
       id="rect2" />
  </defs>
  <g
     inkscape:label="Layer 1"
     inkscape:groupmode="layer"
     id="layer1">
    <path
       id="text5"
       style="line-height:1.8;font-family:'MonaspiceXe Nerd Font Mono';-inkscape-font-specification:'MonaspiceXe Nerd Font Mono';text-align:justify;letter-spacing:5.85px;word-spacing:0.09px;writing-mode:lr-tb;direction:ltr;text-anchor:start;white-space:pre;shape-inside:url(#rect5);display:inline;fill:#ff4274;fill-opacity:1;stroke-width:1.5924;stroke-dasharray:3.981, 3.981"
       d="M 57.543506 200.33537 C 57.839285 200.55532 58.058539 200.88202 58.211475 201.30412 L 58.356006 201.71819 L 59.027881 201.55608 L 58.766162 200.33537 L 57.543506 200.33537 z M 121.98491 200.33537 C 122.10546 200.39221 122.24911 200.42326 122.40679 200.42326 C 122.56639 200.42326 122.70918 200.39221 122.83062 200.33537 L 121.98491 200.33537 z M 134.93804 200.33537 L 134.31694 201.97014 L 132.61773 202.42131 L 132.61773 202.93694 L 134.35796 202.93694 L 134.35796 206.42326 C 134.35796 207.59926 134.85085 208.27664 136.32085 208.28264 C 137.00485 208.28264 137.70635 208.11959 138.25835 207.90959 L 138.66069 206.1342 L 138.0728 205.98381 L 137.92241 206.35686 C 137.62241 207.10086 137.14171 207.49734 136.45171 207.50334 C 135.73771 207.50934 135.47515 207.04561 135.47515 206.32561 L 135.47515 202.93694 L 138.32476 202.93694 L 138.49273 202.10295 L 135.48687 202.10295 L 135.48687 200.33537 L 134.93804 200.33537 z M 210.93023 200.33537 C 210.94275 200.99162 211.4138 201.39983 212.07085 201.39983 C 212.16685 201.39983 212.2561 201.38853 212.3521 201.37053 C 212.1601 202.08453 211.6028 202.72044 210.8228 203.37444 L 211.39312 203.84319 C 212.37712 203.09319 213.27593 201.97079 213.27593 200.69279 C 213.27593 200.56487 213.26745 200.44554 213.25054 200.33537 L 210.93023 200.33537 z M 251.07476 200.33537 L 250.45366 201.97014 L 248.75445 202.42131 L 248.75445 202.93694 L 250.49468 202.93694 L 250.49468 206.42326 C 250.49468 207.59926 250.98757 208.27664 252.45757 208.28264 C 253.14157 208.28264 253.84307 208.11959 254.39507 207.90959 L 254.79741 206.1342 L 254.20952 205.98381 L 254.05913 206.35686 C 253.75913 207.10086 253.27843 207.49734 252.58843 207.50334 C 251.87443 207.50934 251.60991 207.04561 251.60991 206.32561 L 251.60991 202.93694 L 254.46148 202.93694 L 254.62945 202.10295 L 251.62359 202.10295 L 251.62359 200.33537 L 251.07476 200.33537 z M 327.68023 200.33537 L 327.68023 207.17912 L 325.33257 207.53264 L 325.33257 208.13811 L 331.14703 208.13811 L 331.14703 207.53264 L 328.80132 207.17912 L 328.80132 200.33537 L 327.68023 200.33537 z M 428.80914 200.33537 C 428.22159 201.08911 427.86187 202.22546 427.86187 203.73381 C 427.86187 206.72181 429.2597 208.27678 431.0357 208.27678 C 432.8117 208.27678 434.20953 206.72181 434.20953 203.73381 C 434.20953 202.22546 433.84981 201.08911 433.26226 200.33537 L 431.88335 200.33537 C 432.53952 200.78537 432.9732 201.85777 432.9732 203.75334 C 432.9732 206.41734 432.1397 207.43108 431.0357 207.43108 C 429.9377 207.43108 429.0982 206.38734 429.0982 203.75334 C 429.0982 201.85777 429.53435 200.78537 430.19 200.33537 L 428.80914 200.33537 z M 480.21148 200.33537 L 480.21148 207.17912 L 477.86578 207.53264 L 477.86578 208.13811 L 483.68023 208.13811 L 483.68023 207.53264 L 481.33453 207.17912 L 481.33453 200.33537 L 480.21148 200.33537 z M 531.77007 200.33537 L 531.77007 201.9467 C 531.41007 201.8567 531.02029 201.79631 530.59429 201.79631 C 528.37429 201.79631 527.09625 203.16408 527.09625 205.30608 C 527.09625 207.04008 527.93759 208.27678 529.62359 208.27678 C 530.49959 208.27678 531.18376 207.93979 531.69976 207.56779 L 531.69976 208.21037 L 531.8189 208.21037 L 533.8775 207.76115 L 533.8775 207.09514 L 532.82672 206.90764 L 532.82672 200.33537 L 531.77007 200.33537 z M 543.18804 200.33537 C 543.30859 200.39221 543.45224 200.42326 543.60992 200.42326 C 543.76952 200.42326 543.91231 200.39221 544.03375 200.33537 L 543.18804 200.33537 z M 556.14117 200.33537 L 555.51812 201.97014 L 553.82086 202.42131 L 553.82086 202.93694 L 555.56109 202.93694 L 555.56109 206.42326 C 555.56109 207.50091 555.97411 208.15963 557.17437 208.26701 L 557.17437 207.40959 C 556.81844 207.24142 556.67632 206.85269 556.67632 206.32561 L 556.67632 202.93694 L 557.17437 202.93694 L 557.17437 202.10295 L 556.68804 202.10295 L 556.68804 200.33537 L 556.14117 200.33537 z M 69.336475 201.78459 C 67.668475 201.78459 66.275928 202.97869 66.275928 205.03069 C 66.275928 207.08869 67.668475 208.28264 69.336475 208.28264 C 71.004475 208.28264 72.397022 207.08869 72.397022 205.03069 C 72.397022 202.97869 71.004475 201.78459 69.336475 201.78459 z M 83.725147 201.78459 C 83.023147 201.78459 82.302163 202.07175 81.516163 202.56975 L 81.516163 201.88029 L 81.359913 201.81389 L 79.416553 202.26506 L 79.416553 202.93108 L 80.465381 203.09319 L 80.465381 207.20256 L 79.656788 207.53264 L 79.656788 208.13811 L 82.373585 208.13811 L 82.373585 207.53264 L 81.582569 207.21428 L 81.582569 203.17717 C 82.224569 202.82317 82.78771 202.69084 83.20171 202.69084 C 83.72971 202.69084 84.125538 202.95423 84.125538 203.71623 L 84.125538 207.20256 L 83.316944 207.53264 L 83.316944 208.13811 L 86.033741 208.13811 L 86.033741 207.53264 L 85.242725 207.21428 L 85.242725 203.48186 C 85.242725 202.36586 84.751147 201.78459 83.725147 201.78459 z M 97.01421 201.78459 C 96.31221 201.78459 95.591225 202.07175 94.805225 202.56975 L 94.805225 201.88029 L 94.650928 201.81389 L 92.705616 202.26506 L 92.705616 202.93108 L 93.756397 203.09319 L 93.756397 207.20256 L 92.94585 207.53264 L 92.94585 208.13811 L 95.6646 208.13811 L 95.6646 207.53264 L 94.871632 207.21428 L 94.871632 203.17717 C 95.513632 202.82317 96.078725 202.69084 96.492725 202.69084 C 97.020725 202.69084 97.416553 202.95423 97.416553 203.71623 L 97.416553 207.20256 L 96.606007 207.53264 L 96.606007 208.13811 L 99.324757 208.13811 L 99.324757 207.53264 L 98.531788 207.21428 L 98.531788 203.48186 C 98.531788 202.36586 98.04021 201.78459 97.01421 201.78459 z M 109.24858 201.78459 C 108.19258 201.78459 107.43104 202.00706 106.81304 202.26506 L 106.56108 203.61467 L 107.23296 203.78264 L 107.35796 203.49358 C 107.62796 202.85758 108.15063 202.56403 108.99663 202.55803 C 109.87263 202.55203 110.46538 202.83448 110.46538 203.87248 L 110.46538 204.47209 C 108.07138 204.56809 106.21148 204.97681 106.21148 206.60881 C 106.21148 207.67681 107.04093 208.27678 108.15093 208.27678 C 109.05093 208.27678 109.90151 207.83754 110.54351 207.41154 L 110.54351 208.21037 L 110.67046 208.21037 L 112.61382 207.75529 L 112.61382 207.08928 L 111.60015 206.93889 L 111.60015 203.83733 C 111.60015 202.29533 110.84458 201.78459 109.24858 201.78459 z M 150.42632 201.78459 C 149.50232 201.78459 148.85944 202.2584 148.37944 202.7924 L 148.37944 201.88615 L 148.21734 201.81389 L 146.15484 202.26506 L 146.15484 202.93108 L 147.37163 203.09904 L 147.37163 207.11272 L 146.15484 207.53264 L 146.15484 208.13811 L 150.25835 208.13811 L 150.25835 207.53264 L 148.49468 207.09514 L 148.49468 203.27873 C 148.84868 203.04473 149.29773 202.83537 149.86773 202.83537 C 150.35973 202.83537 150.85176 203.00908 151.19976 203.68108 L 151.40484 204.07561 L 151.9439 203.93889 L 151.53569 202.03654 C 151.21169 201.88054 150.84632 201.78459 150.42632 201.78459 z M 162.62944 201.78459 C 160.69144 201.78459 159.31304 203.02709 159.31304 205.09709 C 159.31304 207.13709 160.4753 208.28264 162.6353 208.28264 C 163.4633 208.28264 164.21932 208.08975 164.80132 207.81975 L 165.17437 206.46428 L 164.50249 206.30217 L 164.36382 206.58537 C 164.07582 207.25137 163.52957 207.47209 162.70757 207.47209 C 161.31557 207.47209 160.51282 206.50654 160.48882 205.03654 L 165.29937 205.03654 L 165.29937 204.62834 C 165.29937 202.70234 164.21944 201.78459 162.62944 201.78459 z M 199.1353 201.78459 C 197.1313 201.78459 195.76226 202.92469 195.76226 205.03069 C 195.76226 207.13669 197.03546 208.28264 199.04546 208.28264 C 199.83746 208.28264 200.59277 208.09547 201.24077 207.83147 L 201.58257 206.09319 L 200.89898 205.93108 L 200.79155 206.22404 C 200.49755 207.05804 199.90235 207.5092 199.00835 207.5092 C 197.85035 207.5092 196.95171 206.73469 196.95171 205.03069 C 196.95171 203.33269 197.85035 202.55803 199.00835 202.55803 C 199.90235 202.55803 200.49755 203.00919 200.79155 203.84319 L 200.89898 204.13615 L 201.58257 203.96819 L 201.24077 202.23381 C 200.64077 201.96981 199.9273 201.78459 199.1353 201.78459 z M 225.60601 201.78459 C 223.66801 201.78459 222.2896 203.02709 222.2896 205.09709 C 222.2896 207.13709 223.45187 208.28264 225.61187 208.28264 C 226.43987 208.28264 227.19588 208.08975 227.77788 207.81975 L 228.15093 206.46428 L 227.47906 206.30217 L 227.34038 206.58537 C 227.05238 207.25137 226.50613 207.47209 225.68413 207.47209 C 224.29213 207.47209 223.48938 206.50654 223.46538 205.03654 L 228.27593 205.03654 L 228.27593 204.62834 C 228.27593 202.70234 227.19601 201.78459 225.60601 201.78459 z M 238.95171 201.78459 C 237.19371 201.78459 236.14898 202.45611 236.14898 203.63811 C 236.14898 204.62811 236.88071 205.1739 238.32671 205.4799 C 239.73671 205.7799 240.28374 205.96737 240.28374 206.58537 C 240.28374 207.17937 239.77238 207.53278 238.59038 207.52678 C 237.57038 207.52078 236.9046 207.23812 236.6646 206.55412 L 236.54546 206.21233 L 235.87359 206.37444 L 236.17827 207.88615 C 236.76627 208.10215 237.51752 208.27678 238.45952 208.27678 C 240.48152 208.27678 241.42827 207.47775 241.42827 206.31975 C 241.42827 205.28775 240.65543 204.79651 238.96343 204.45451 C 237.77543 204.21451 237.27593 203.92573 237.27593 203.40373 C 237.27593 202.81573 237.89504 202.52859 238.81304 202.53459 C 239.76704 202.54059 240.3257 202.82745 240.5357 203.41545 L 240.6607 203.76506 L 241.32671 203.60295 L 241.05132 202.14983 C 240.37932 201.90983 239.70171 201.78459 238.95171 201.78459 z M 288.36187 201.78459 C 287.30587 201.78459 286.54237 202.00706 285.92437 202.26506 L 285.67242 203.61467 L 286.34624 203.78264 L 286.47124 203.49358 C 286.74124 202.85758 287.26392 202.56403 288.10992 202.55803 C 288.98592 202.55203 289.57867 202.83448 289.57867 203.87248 L 289.57867 204.47209 C 287.18467 204.56809 285.32476 204.97681 285.32476 206.60881 C 285.32476 207.67681 286.15421 208.27678 287.26421 208.27678 C 288.16421 208.27678 289.01479 207.83754 289.65679 207.41154 L 289.65679 208.21037 L 289.78374 208.21037 L 291.7271 207.75529 L 291.7271 207.08928 L 290.71343 206.93889 L 290.71343 203.83733 C 290.71343 202.29533 289.95787 201.78459 288.36187 201.78459 z M 302.70757 201.78459 C 302.00557 201.78459 301.28459 202.07175 300.49859 202.56975 L 300.49859 201.88029 L 300.34429 201.81389 L 298.39898 202.26506 L 298.39898 202.93108 L 299.44976 203.09319 L 299.44976 207.20256 L 298.63921 207.53264 L 298.63921 208.13811 L 301.35796 208.13811 L 301.35796 207.53264 L 300.56499 207.21428 L 300.56499 203.17717 C 301.20699 202.82317 301.77209 202.69084 302.18609 202.69084 C 302.71409 202.69084 303.10992 202.95423 303.10992 203.71623 L 303.10992 207.20256 L 302.29937 207.53264 L 302.29937 208.13811 L 305.01812 208.13811 L 305.01812 207.53264 L 304.22515 207.21428 L 304.22515 203.48186 C 304.22515 202.36586 303.73357 201.78459 302.70757 201.78459 z M 314.94195 201.78459 C 313.88595 201.78459 313.12245 202.00706 312.50445 202.26506 L 312.25249 203.61467 L 312.92632 203.78264 L 313.05132 203.49358 C 313.32132 202.85758 313.84399 202.56403 314.68999 202.55803 C 315.56599 202.55203 316.15874 202.83448 316.15874 203.87248 L 316.15874 204.47209 C 313.76474 204.56809 311.90484 204.97681 311.90484 206.60881 C 311.90484 207.67681 312.73429 208.27678 313.84429 208.27678 C 314.74429 208.27678 315.59487 207.83754 316.23687 207.41154 L 316.23687 208.21037 L 316.36382 208.21037 L 318.30718 207.75529 L 318.30718 207.08928 L 317.29351 206.93889 L 317.29351 203.83733 C 317.29351 202.29533 316.53795 201.78459 314.94195 201.78459 z M 355.08648 201.78459 C 353.32848 201.78459 352.2857 202.45611 352.2857 203.63811 C 352.2857 204.62811 353.01743 205.1739 354.46343 205.4799 C 355.87343 205.7799 356.41851 205.96737 356.41851 206.58537 C 356.41851 207.17937 355.9091 207.53278 354.7271 207.52678 C 353.7071 207.52078 353.04132 207.23812 352.80132 206.55412 L 352.68218 206.21233 L 352.01031 206.37444 L 352.31499 207.88615 C 352.90299 208.10215 353.65424 208.27678 354.59624 208.27678 C 356.61824 208.27678 357.56499 207.47775 357.56499 206.31975 C 357.56499 205.28775 356.79215 204.79651 355.10015 204.45451 C 353.91215 204.21451 353.41265 203.92573 353.41265 203.40373 C 353.41265 202.81573 354.03176 202.52859 354.94976 202.53459 C 355.90376 202.54059 356.46046 202.82745 356.67046 203.41545 L 356.79742 203.76506 L 357.46343 203.60295 L 357.18804 202.14983 C 356.51604 201.90983 355.83648 201.78459 355.08648 201.78459 z M 368.32281 201.78459 C 366.38481 201.78459 365.00445 203.02709 365.00445 205.09709 C 365.00445 207.13709 366.16867 208.28264 368.32867 208.28264 C 369.15667 208.28264 369.91268 208.08975 370.49468 207.81975 L 370.86773 206.46428 L 370.19585 206.30217 L 370.05718 206.58537 C 369.76918 207.25137 369.22293 207.47209 368.40093 207.47209 C 367.00893 207.47209 366.20618 206.50654 366.18218 205.03654 L 370.99273 205.03654 L 370.99273 204.62834 C 370.99273 202.70234 369.91281 201.78459 368.32281 201.78459 z M 382.69976 201.78459 C 381.77576 201.78459 381.13289 202.2584 380.65289 202.7924 L 380.65289 201.88615 L 380.49078 201.81389 L 378.42828 202.26506 L 378.42828 202.93108 L 379.64507 203.09904 L 379.64507 207.11272 L 378.42828 207.53264 L 378.42828 208.13811 L 382.53179 208.13811 L 382.53179 207.53264 L 380.76812 207.09514 L 380.76812 203.27873 C 381.12212 203.04473 381.57117 202.83537 382.14117 202.83537 C 382.63317 202.83537 383.1252 203.00908 383.4732 203.68108 L 383.67828 204.07561 L 384.21734 203.93889 L 383.80914 202.03654 C 383.48514 201.88054 383.11976 201.78459 382.69976 201.78459 z M 445.42437 201.78459 C 444.72237 201.78459 444.00139 202.07175 443.21539 202.56975 L 443.21539 201.88029 L 443.05914 201.81389 L 441.11578 202.26506 L 441.11578 202.93108 L 442.16656 203.09319 L 442.16656 207.20256 L 441.35601 207.53264 L 441.35601 208.13811 L 444.07476 208.13811 L 444.07476 207.53264 L 443.28179 207.21428 L 443.28179 203.17717 C 443.92379 202.82317 444.48889 202.69084 444.90289 202.69084 C 445.43089 202.69084 445.82671 202.95423 445.82671 203.71623 L 445.82671 207.20256 L 445.01617 207.53264 L 445.01617 208.13811 L 447.73296 208.13811 L 447.73296 207.53264 L 446.94195 207.21428 L 446.94195 203.48186 C 446.94195 202.36586 446.45037 201.78459 445.42437 201.78459 z M 494.27593 201.78459 C 492.33793 201.78459 490.95757 203.02709 490.95757 205.09709 C 490.95757 207.13709 492.12179 208.28264 494.28179 208.28264 C 495.10979 208.28264 495.86581 208.08975 496.44781 207.81975 L 496.82086 206.46428 L 496.14898 206.30217 L 496.01031 206.58537 C 495.72231 207.25137 495.17606 207.47209 494.35406 207.47209 C 492.96206 207.47209 492.15931 206.50654 492.13531 205.03654 L 496.94586 205.03654 L 496.94586 204.62834 C 496.94586 202.70234 495.86593 201.78459 494.27593 201.78459 z M 123.02984 201.81389 L 119.72515 202.29436 L 119.72515 202.89983 L 122.07085 203.14592 L 122.07085 207.06389 L 119.71733 207.53264 L 119.71733 208.13811 L 125.53179 208.13811 L 125.53179 207.53264 L 123.18609 207.06389 L 123.18609 201.88615 L 123.02984 201.81389 z M 544.23297 201.81389 L 540.92632 202.29436 L 540.92632 202.89983 L 543.27203 203.14592 L 543.27203 207.06389 L 540.92047 207.53264 L 540.92047 208.13811 L 546.73492 208.13811 L 546.73492 207.53264 L 544.38922 207.06389 L 544.38922 201.88615 L 544.23297 201.81389 z M 338.23882 201.92912 L 338.23882 202.53459 L 339.08453 202.87639 L 340.98101 208.23381 C 340.66901 209.15781 340.36979 209.73381 339.78179 209.73381 C 339.32579 209.73381 339.09795 209.46506 338.94195 209.01506 L 338.79742 208.58147 L 338.12554 208.74944 L 338.45562 210.48381 C 338.83962 210.59781 339.24054 210.67717 339.75054 210.67717 C 340.88454 210.67717 341.42023 209.75876 341.93023 208.36076 L 343.87359 202.88811 L 344.71343 202.53459 L 344.71343 201.92912 L 342.04937 201.92912 L 342.04937 202.53459 L 342.89507 202.87639 L 341.60601 206.82365 L 341.52788 206.82365 L 340.24273 202.8217 L 340.95757 202.53459 L 340.95757 201.92912 L 338.23882 201.92912 z M 530.59429 202.60686 C 530.99629 202.60686 531.35776 202.67869 531.69976 202.78069 L 531.69976 206.94475 C 531.19576 207.19075 530.6184 207.39397 530.0064 207.39397 C 528.8004 207.39397 528.27203 206.57195 528.27203 205.22795 C 528.27203 203.45795 529.21429 202.60686 530.59429 202.60686 z M 69.336475 202.61272 C 70.374475 202.61272 71.201709 203.34483 71.201709 205.02483 C 71.201709 206.69883 70.374475 207.43108 69.336475 207.43108 C 68.298475 207.43108 67.469287 206.69883 67.469287 205.02483 C 67.469287 203.34483 68.298475 202.61272 69.336475 202.61272 z M 162.52202 202.61858 C 163.49402 202.61858 164.14869 203.23137 164.16069 204.33537 L 160.54155 204.33537 C 160.72755 203.21337 161.44802 202.61858 162.52202 202.61858 z M 225.49859 202.61858 C 226.47059 202.61858 227.12526 203.23137 227.13726 204.33537 L 223.51812 204.33537 C 223.70412 203.21337 224.42459 202.61858 225.49859 202.61858 z M 368.21538 202.61858 C 369.18738 202.61858 369.84206 203.23137 369.85406 204.33537 L 366.23492 204.33537 C 366.42092 203.21337 367.14138 202.61858 368.21538 202.61858 z M 494.16851 202.61858 C 495.14051 202.61858 495.79518 203.23137 495.80718 204.33537 L 492.18804 204.33537 C 492.37404 203.21337 493.09451 202.61858 494.16851 202.61858 z M 110.46538 205.13811 L 110.46538 206.84904 C 109.87138 207.22104 109.25498 207.42522 108.64898 207.42522 C 107.89898 207.42522 107.45952 207.046 107.45952 206.476 C 107.45952 205.396 109.03738 205.15611 110.46538 205.13811 z M 289.57867 205.13811 L 289.57867 206.84904 C 288.98467 207.22104 288.36826 207.42522 287.76226 207.42522 C 287.01226 207.42522 286.57281 207.046 286.57281 206.476 C 286.57281 205.396 288.15067 205.15611 289.57867 205.13811 z M 316.15874 205.13811 L 316.15874 206.84904 C 315.56474 207.22104 314.94638 207.42522 314.34038 207.42522 C 313.59038 207.42522 313.15288 207.046 313.15288 206.476 C 313.15288 205.396 314.73074 205.15611 316.15874 205.13811 z M 58.356006 205.7924 L 58.205615 206.20647 C 58.001551 206.78118 57.662185 207.17857 57.174365 207.37053 L 57.174365 208.23186 C 57.711081 208.15798 58.214828 208.01111 58.625537 207.83928 L 59.027881 205.95451 L 58.356006 205.7924 z M 394.63921 206.18889 C 394.02721 206.18889 393.52984 206.57911 393.52984 207.26311 C 393.52984 207.94111 394.02721 208.34904 394.63921 208.34904 C 395.25721 208.34904 395.74859 207.94111 395.74859 207.26311 C 395.74859 206.57911 395.25721 206.18889 394.63921 206.18889 z M 519.13531 220.4135 C 517.53931 220.4135 516.09234 221.30153 516.09234 223.24553 L 516.09234 223.57561 L 513.87359 224.05608 L 513.87359 224.53654 L 516.09234 224.53654 L 516.09234 228.74748 L 514.71929 229.13225 L 514.71929 229.73772 L 518.92437 229.73772 L 518.92437 229.13225 L 517.20953 228.74162 L 517.20953 224.53654 L 519.85406 224.53654 L 520.02203 223.70256 L 517.21539 223.70256 L 517.22125 222.9467 C 517.22725 221.7407 517.88012 221.19475 518.76812 221.19475 C 519.51812 221.19475 519.95097 221.54197 520.23297 222.39397 L 520.29937 222.58733 L 520.93414 222.44865 L 520.61187 220.67326 C 520.12587 220.49326 519.61531 220.4135 519.13531 220.4135 z M 69.785694 220.46233 L 66.481006 220.91936 L 66.481006 221.52483 L 68.826709 221.68694 L 68.826709 228.77873 L 66.481006 229.13225 L 66.481006 229.73772 L 72.293506 229.73772 L 72.293506 229.13225 L 69.947803 228.77873 L 69.947803 220.53459 L 69.785694 220.46233 z M 154.02593 220.46233 L 150.72124 220.91936 L 150.72124 221.52483 L 153.06694 221.68694 L 153.06694 228.77873 L 150.72124 229.13225 L 150.72124 229.73772 L 156.53569 229.73772 L 156.53569 229.13225 L 154.18804 228.77873 L 154.18804 220.53459 L 154.02593 220.46233 z M 406.74859 220.46233 L 403.44195 220.91936 L 403.44195 221.52483 L 405.78765 221.68694 L 405.78765 228.77873 L 403.44195 229.13225 L 403.44195 229.73772 L 409.2564 229.73772 L 409.2564 229.13225 L 406.9107 228.77873 L 406.9107 220.53459 L 406.74859 220.46233 z M 206.64702 220.4799 C 206.15502 220.4799 205.81304 220.76748 205.81304 221.24748 C 205.81304 221.72748 206.15502 222.02287 206.64702 222.02287 C 207.14502 222.02287 207.48687 221.72748 207.48687 221.24748 C 207.48687 220.76748 207.14502 220.4799 206.64702 220.4799 z M 452.11578 220.4799 C 451.62378 220.4799 451.28179 220.76748 451.28179 221.24748 C 451.28179 221.72748 451.62378 222.02287 452.11578 222.02287 C 452.60778 222.02287 452.94976 221.72748 452.94976 221.24748 C 452.94976 220.76748 452.60778 220.4799 452.11578 220.4799 z M 503.73882 220.4799 C 503.24682 220.4799 502.90484 220.76748 502.90484 221.24748 C 502.90484 221.72748 503.24682 222.02287 503.73882 222.02287 C 504.23682 222.02287 504.57867 221.72748 504.57867 221.24748 C 504.57867 220.76748 504.23682 220.4799 503.73882 220.4799 z M 530.3189 220.4799 C 529.8269 220.4799 529.48492 220.76748 529.48492 221.24748 C 529.48492 221.72748 529.8269 222.02287 530.3189 222.02287 C 530.8169 222.02287 531.15875 221.72748 531.15875 221.24748 C 531.15875 220.76748 530.8169 220.4799 530.3189 220.4799 z M 304.26226 220.83537 C 303.63826 220.83537 303.14507 221.22364 303.14507 221.90764 C 303.14507 222.57964 303.6197 223.00139 304.2857 223.00139 C 304.3817 223.00139 304.47095 222.98814 304.56695 222.97014 C 304.37495 223.68414 303.81765 224.32004 303.03765 224.97404 L 303.60796 225.44279 C 304.59196 224.69279 305.49077 223.5704 305.49077 222.2924 C 305.49077 221.2844 304.94026 220.83537 304.26226 220.83537 z M 192.68999 221.69279 L 191.9771 223.56975 L 190.27788 224.02092 L 190.27788 224.53654 L 192.01812 224.53654 L 192.01812 228.02287 C 192.01812 229.19887 192.51101 229.87625 193.98101 229.88225 C 194.66501 229.88225 195.36651 229.72115 195.91851 229.51115 L 196.32085 227.73381 L 195.73296 227.58537 L 195.58257 227.95647 C 195.28257 228.70047 194.80187 229.09695 194.11187 229.10295 C 193.39787 229.10895 193.1353 228.64717 193.1353 227.92717 L 193.1353 224.53654 L 195.98491 224.53654 L 196.15288 223.70256 L 193.14702 223.70256 L 193.14702 221.69279 L 192.68999 221.69279 z M 489.78375 221.69279 L 489.0689 223.56975 L 487.37164 224.02092 L 487.37164 224.53654 L 489.11187 224.53654 L 489.11187 228.02287 C 489.11187 229.19887 489.60281 229.87625 491.07281 229.88225 C 491.75681 229.88225 492.45831 229.72115 493.01031 229.51115 L 493.41265 227.73381 L 492.82476 227.58537 L 492.67437 227.95647 C 492.37437 228.70047 491.89562 229.09695 491.20562 229.10295 C 490.49162 229.10895 490.22711 228.64717 490.22711 227.92717 L 490.22711 224.53654 L 493.07671 224.53654 L 493.24468 223.70256 L 490.23882 223.70256 L 490.23882 221.69279 L 489.78375 221.69279 z M 96.234913 223.3842 C 94.476913 223.3842 93.432178 224.05572 93.432178 225.23772 C 93.432178 226.22772 94.163913 226.77351 95.609913 227.07951 C 97.019913 227.37951 97.566944 227.56698 97.566944 228.18498 C 97.566944 228.77898 97.055585 229.13239 95.873585 229.12639 C 94.853585 229.12039 94.187803 228.83773 93.947803 228.15373 L 93.828663 227.81194 L 93.156788 227.97404 L 93.461475 229.48576 C 94.049475 229.70176 94.800725 229.87639 95.742725 229.87639 C 97.764725 229.87639 98.711475 229.07931 98.711475 227.92131 C 98.711475 226.88931 97.938632 226.39612 96.246632 226.05412 C 95.058632 225.81412 94.561085 225.52729 94.561085 225.00529 C 94.561085 224.41729 95.178241 224.1282 96.096241 224.1342 C 97.050241 224.1402 97.608897 224.42901 97.818897 225.01701 L 97.943897 225.36467 L 98.609913 225.20256 L 98.334522 223.75139 C 97.662522 223.51139 96.984913 223.3842 96.234913 223.3842 z M 140.28765 223.3842 C 138.61965 223.3842 137.2271 224.57829 137.2271 226.63029 C 137.2271 228.68829 138.61965 229.88225 140.28765 229.88225 C 141.95565 229.88225 143.34624 228.68829 143.34624 226.63029 C 143.34624 224.57829 141.95565 223.3842 140.28765 223.3842 z M 166.86577 223.3842 C 165.19777 223.3842 163.80718 224.57829 163.80718 226.63029 C 163.80718 228.68829 165.19777 229.88225 166.86577 229.88225 C 168.53377 229.88225 169.92632 228.68829 169.92632 226.63029 C 169.92632 224.57829 168.53377 223.3842 166.86577 223.3842 z M 181.25445 223.3842 C 180.55245 223.3842 179.83341 223.67331 179.04741 224.17131 L 179.04741 223.4799 L 178.89116 223.4135 L 176.94585 223.86467 L 176.94585 224.53069 L 177.99663 224.69279 L 177.99663 228.80217 L 177.18609 229.13225 L 177.18609 229.73772 L 179.90484 229.73772 L 179.90484 229.13225 L 179.11187 228.81389 L 179.11187 224.77678 C 179.75387 224.42278 180.31896 224.29045 180.73296 224.29045 C 181.26096 224.29045 181.65679 224.55384 181.65679 225.31584 L 181.65679 228.80217 L 180.84624 229.13225 L 180.84624 229.73772 L 183.56499 229.73772 L 183.56499 229.13225 L 182.77202 228.81389 L 182.77202 225.08147 C 182.77202 223.96547 182.28045 223.3842 181.25445 223.3842 z M 220.29155 223.3842 C 218.35355 223.3842 216.9732 224.6267 216.9732 226.6967 C 216.9732 228.7367 218.13741 229.88225 220.29741 229.88225 C 221.12541 229.88225 221.88143 229.69131 222.46343 229.42131 L 222.83452 228.06389 L 222.16265 227.90178 L 222.02398 228.18498 C 221.73598 228.85098 221.19168 229.0717 220.36968 229.0717 C 218.97768 229.0717 218.17298 228.10615 218.14898 226.63615 L 222.96148 226.63615 L 222.96148 226.22795 C 222.96148 224.30195 221.88155 223.3842 220.29155 223.3842 z M 234.66656 223.3842 C 233.74256 223.3842 233.10163 223.85801 232.62163 224.39201 L 232.62163 223.48576 L 232.45952 223.4135 L 230.39507 223.86467 L 230.39507 224.53069 L 231.61187 224.69865 L 231.61187 228.71233 L 230.39507 229.13225 L 230.39507 229.73772 L 234.49859 229.73772 L 234.49859 229.13225 L 232.73491 228.69475 L 232.73491 224.87834 C 233.08891 224.64434 233.53796 224.43498 234.10796 224.43498 C 234.59996 224.43498 235.09199 224.60869 235.43999 225.28069 L 235.64507 225.67717 L 236.18413 225.5385 L 235.77593 223.63615 C 235.45193 223.48015 235.08656 223.3842 234.66656 223.3842 z M 246.92437 223.3842 C 245.16637 223.3842 244.12359 224.05572 244.12359 225.23772 C 244.12359 226.22772 244.85532 226.77351 246.30132 227.07951 C 247.71132 227.37951 248.2564 227.56698 248.2564 228.18498 C 248.2564 228.77898 247.74699 229.13239 246.56499 229.12639 C 245.54499 229.12039 244.87921 228.83773 244.63921 228.15373 L 244.51812 227.81194 L 243.84624 227.97404 L 244.15288 229.48576 C 244.74088 229.70176 245.49018 229.87639 246.43218 229.87639 C 248.45418 229.87639 249.40288 229.07931 249.40288 227.92131 C 249.40288 226.88931 248.62809 226.39612 246.93609 226.05412 C 245.74809 225.81412 245.25054 225.52729 245.25054 225.00529 C 245.25054 224.41729 245.86965 224.1282 246.78765 224.1342 C 247.74165 224.1402 248.29835 224.42901 248.50835 225.01701 L 248.63531 225.36467 L 249.30132 225.20256 L 249.02398 223.75139 C 248.35198 223.51139 247.67437 223.3842 246.92437 223.3842 z M 280.01617 223.3842 L 279.57671 223.64787 C 279.11471 223.50987 278.59245 223.39006 278.00445 223.39006 C 275.77845 223.39006 274.50054 224.75769 274.50054 226.90569 C 274.50054 228.63969 275.34788 229.87639 277.02788 229.87639 C 277.93988 229.87639 278.63465 229.51039 279.16265 229.12639 L 279.16265 231.18498 L 277.95171 231.53264 L 277.95171 232.13811 L 281.08843 232.13811 L 281.08843 231.53264 L 280.27984 231.20256 L 280.27984 223.3842 L 280.01617 223.3842 z M 317.55718 223.3842 C 315.88918 223.3842 314.49663 224.57829 314.49663 226.63029 C 314.49663 228.68829 315.88918 229.88225 317.55718 229.88225 C 319.22518 229.88225 320.61773 228.68829 320.61773 226.63029 C 320.61773 224.57829 319.22518 223.3842 317.55718 223.3842 z M 331.94585 223.3842 C 331.24385 223.3842 330.52287 223.67331 329.73687 224.17131 L 329.73687 223.4799 L 329.58062 223.4135 L 327.63726 223.86467 L 327.63726 224.53069 L 328.68804 224.69279 L 328.68804 228.80217 L 327.87749 229.13225 L 327.87749 229.73772 L 330.59624 229.73772 L 330.59624 229.13225 L 329.80328 228.81389 L 329.80328 224.77678 C 330.44528 224.42278 331.00842 224.29045 331.42242 224.29045 C 331.95042 224.29045 332.3482 224.55384 332.3482 225.31584 L 332.3482 228.80217 L 331.53765 229.13225 L 331.53765 229.73772 L 334.25445 229.73772 L 334.25445 229.13225 L 333.46343 228.81389 L 333.46343 225.08147 C 333.46343 223.96547 332.97185 223.3842 331.94585 223.3842 z M 363.02593 223.3842 C 362.32393 223.3842 361.60295 223.67331 360.81695 224.17131 L 360.81695 223.4799 L 360.66265 223.4135 L 358.71734 223.86467 L 358.71734 224.53069 L 359.76812 224.69279 L 359.76812 228.80217 L 358.95757 229.13225 L 358.95757 229.73772 L 361.67632 229.73772 L 361.67632 229.13225 L 360.88335 228.81389 L 360.88335 224.77678 C 361.52535 224.42278 362.09045 224.29045 362.50445 224.29045 C 363.03245 224.29045 363.42828 224.55384 363.42828 225.31584 L 363.42828 228.80217 L 362.61773 229.13225 L 362.61773 229.73772 L 365.33648 229.73772 L 365.33648 229.13225 L 364.54351 228.81389 L 364.54351 225.08147 C 364.54351 223.96547 364.05193 223.3842 363.02593 223.3842 z M 375.48101 223.3842 C 373.54301 223.3842 372.1646 224.6267 372.1646 226.6967 C 372.1646 228.7367 373.32882 229.88225 375.48882 229.88225 C 376.31682 229.88225 377.07284 229.69131 377.65484 229.42131 L 378.02593 228.06389 L 377.35406 227.90178 L 377.21539 228.18498 C 376.92739 228.85098 376.38114 229.0717 375.55914 229.0717 C 374.16714 229.0717 373.36439 228.10615 373.34039 226.63615 L 378.15093 226.63615 L 378.15093 226.22795 C 378.15093 224.30195 377.07101 223.3842 375.48101 223.3842 z M 419.8521 223.3842 C 417.9141 223.3842 416.53374 224.6267 416.53374 226.6967 C 416.53374 228.7367 417.69796 229.88225 419.85796 229.88225 C 420.68596 229.88225 421.44198 229.69131 422.02398 229.42131 L 422.39703 228.06389 L 421.72515 227.90178 L 421.58648 228.18498 C 421.29848 228.85098 420.75223 229.0717 419.93023 229.0717 C 418.53823 229.0717 417.73353 228.10615 417.70953 226.63615 L 422.52203 226.63615 L 422.52203 226.22795 C 422.52203 224.30195 421.4421 223.3842 419.8521 223.3842 z M 477.56695 223.3842 C 475.80895 223.3842 474.76421 224.05572 474.76421 225.23772 C 474.76421 226.22772 475.49595 226.77351 476.94195 227.07951 C 478.35195 227.37951 478.89898 227.56698 478.89898 228.18498 C 478.89898 228.77898 478.38957 229.13239 477.20757 229.12639 C 476.18757 229.12039 475.52179 228.83773 475.28179 228.15373 L 475.1607 227.81194 L 474.48882 227.97404 L 474.79546 229.48576 C 475.38346 229.70176 476.13276 229.87639 477.07476 229.87639 C 479.09676 229.87639 480.04546 229.07931 480.04546 227.92131 C 480.04546 226.88931 479.27067 226.39612 477.57867 226.05412 C 476.39067 225.81412 475.89312 225.52729 475.89312 225.00529 C 475.89312 224.41729 476.51028 224.1282 477.42828 224.1342 C 478.38228 224.1402 478.94093 224.42901 479.15093 225.01701 L 479.27593 225.36467 L 479.94195 225.20256 L 479.66656 223.75139 C 478.99456 223.51139 478.31695 223.3842 477.56695 223.3842 z M 543.96343 223.3842 C 542.02543 223.3842 540.64507 224.6267 540.64507 226.6967 C 540.64507 228.7367 541.80929 229.88225 543.96929 229.88225 C 544.79729 229.88225 545.55331 229.69131 546.13531 229.42131 L 546.5064 228.06389 L 545.83453 227.90178 L 545.69781 228.18498 C 545.40981 228.85098 544.86356 229.0717 544.04156 229.0717 C 542.64956 229.0717 541.84486 228.10615 541.82086 226.63615 L 546.63336 226.63615 L 546.63336 226.22795 C 546.63336 224.30195 545.55343 223.3842 543.96343 223.3842 z M 84.863819 223.40764 L 82.877491 223.85881 L 82.877491 224.53069 L 83.893116 224.67522 L 83.893116 228.48381 C 83.263116 228.83781 82.686022 228.97014 82.272022 228.97014 C 81.744022 228.97014 81.348194 228.71261 81.348194 227.95061 L 81.348194 223.48576 L 81.203663 223.4135 L 79.217334 223.86467 L 79.217334 224.53654 L 80.232959 224.68694 L 80.232959 228.18498 C 80.232959 229.30098 80.718538 229.88225 81.750538 229.88225 C 82.458538 229.88225 83.177288 229.58937 83.969288 229.08537 L 83.969288 229.78654 L 84.090381 229.80998 L 86.07085 229.36076 L 86.07085 228.69475 L 85.020069 228.5092 L 85.020069 223.4799 L 84.863819 223.40764 z M 293.21538 223.40764 L 291.22906 223.85881 L 291.22906 224.53069 L 292.24273 224.67522 L 292.24273 228.48381 C 291.61273 228.83781 291.03759 228.97014 290.62359 228.97014 C 290.09559 228.97014 289.69976 228.71261 289.69976 227.95061 L 289.69976 223.48576 L 289.55523 223.4135 L 287.5689 223.86467 L 287.5689 224.53654 L 288.58257 224.68694 L 288.58257 228.18498 C 288.58257 229.30098 289.0701 229.88225 290.1021 229.88225 C 290.8101 229.88225 291.52885 229.58937 292.32085 229.08537 L 292.32085 229.78654 L 292.44195 229.80998 L 294.42046 229.36076 L 294.42046 228.69475 L 293.37163 228.5092 L 293.37163 223.4799 L 293.21538 223.40764 z M 466.19781 223.40764 L 464.21148 223.85881 L 464.21148 224.53069 L 465.22515 224.67522 L 465.22515 228.48381 C 464.59515 228.83781 464.01806 228.97014 463.60406 228.97014 C 463.07606 228.97014 462.68023 228.71261 462.68023 227.95061 L 462.68023 223.48576 L 462.53765 223.4135 L 460.55132 223.86467 L 460.55132 224.53654 L 461.565 224.68694 L 461.565 228.18498 C 461.565 229.30098 462.05057 229.88225 463.08257 229.88225 C 463.79057 229.88225 464.51128 229.58937 465.30328 229.08537 L 465.30328 229.78654 L 465.42242 229.80998 L 467.40289 229.36076 L 467.40289 228.69475 L 466.3521 228.5092 L 466.3521 223.4799 L 466.19781 223.40764 z M 57.174365 223.4135 L 57.174365 224.40569 C 57.869069 224.68457 58.182178 225.40978 58.182178 226.44475 C 58.182178 227.56712 57.803402 228.31704 57.174365 228.71623 L 57.174365 229.68694 C 58.57668 229.24234 59.357959 228.04046 59.357959 226.36076 C 59.357959 224.74835 58.631844 223.57058 57.174365 223.4135 z M 207.27007 223.4135 L 203.96538 223.89397 L 203.96538 224.50139 L 206.31109 224.74553 L 206.31109 228.6635 L 203.95952 229.13225 L 203.95952 229.73772 L 209.77202 229.73772 L 209.77202 229.13225 L 207.42632 228.6635 L 207.42632 223.48576 L 207.27007 223.4135 z M 452.70367 223.4135 L 449.19195 223.87053 L 449.19195 224.53654 L 451.73687 224.64397 L 451.73687 229.93108 C 451.73687 231.10708 451.09514 231.48967 450.30914 231.48967 C 449.50514 231.48967 449.07203 231.13017 448.77203 230.30217 L 448.59234 229.79826 L 447.88531 229.96037 L 448.29351 231.92912 C 448.77351 232.12712 449.55915 232.27092 450.22515 232.27092 C 451.91115 232.27092 452.86578 231.52729 452.86578 229.50529 L 452.86578 223.48576 L 452.70367 223.4135 z M 504.36382 223.4135 L 501.05718 223.89397 L 501.05718 224.50139 L 503.40289 224.74553 L 503.40289 228.6635 L 501.05132 229.13225 L 501.05132 229.73772 L 506.86578 229.73772 L 506.86578 229.13225 L 504.51812 228.6635 L 504.51812 223.48576 L 504.36382 223.4135 z M 530.9439 223.4135 L 527.63726 223.89397 L 527.63726 224.50139 L 529.98297 224.74553 L 529.98297 228.6635 L 527.6314 229.13225 L 527.6314 229.73772 L 533.44586 229.73772 L 533.44586 229.13225 L 531.0982 228.6635 L 531.0982 223.48576 L 530.9439 223.4135 z M 123.7564 223.52873 L 123.7564 224.1342 L 124.6021 224.476 L 126.48687 229.73772 L 127.48296 229.73772 L 129.39702 224.49358 L 130.23687 224.1342 L 130.23687 223.52873 L 127.66851 223.52873 L 127.66851 224.1342 L 128.47319 224.48772 L 127.14702 228.40569 L 127.06304 228.40569 L 125.77788 224.42912 L 126.54155 224.1342 L 126.54155 223.52873 L 123.7564 223.52873 z M 278.00445 224.20647 C 278.43045 224.20647 278.80865 224.28387 279.16265 224.39787 L 279.16265 228.5092 C 278.64665 228.7732 278.0467 228.98772 277.4107 228.98772 C 276.2107 228.98772 275.68413 228.1657 275.68413 226.8217 C 275.68413 225.0577 276.61845 224.20647 278.00445 224.20647 z M 140.28765 224.21233 C 141.32565 224.21233 142.15288 224.94444 142.15288 226.62444 C 142.15288 228.29844 141.32565 229.03069 140.28765 229.03069 C 139.24965 229.03069 138.42046 228.29844 138.42046 226.62444 C 138.42046 224.94444 139.24965 224.21233 140.28765 224.21233 z M 166.86577 224.21233 C 167.90377 224.21233 168.73296 224.94444 168.73296 226.62444 C 168.73296 228.29844 167.90377 229.03069 166.86577 229.03069 C 165.82777 229.03069 165.00054 228.29844 165.00054 226.62444 C 165.00054 224.94444 165.82777 224.21233 166.86577 224.21233 z M 317.55718 224.21233 C 318.59518 224.21233 319.42242 224.94444 319.42242 226.62444 C 319.42242 228.29844 318.59518 229.03069 317.55718 229.03069 C 316.51918 229.03069 315.69195 228.29844 315.69195 226.62444 C 315.69195 224.94444 316.51918 224.21233 317.55718 224.21233 z M 220.18218 224.21819 C 221.15418 224.21819 221.80885 224.83098 221.82085 225.93498 L 218.20366 225.93498 C 218.38966 224.81298 219.10818 224.21819 220.18218 224.21819 z M 375.37359 224.21819 C 376.34559 224.21819 377.00026 224.83098 377.01226 225.93498 L 373.39312 225.93498 C 373.57912 224.81298 374.29959 224.21819 375.37359 224.21819 z M 419.74468 224.21819 C 420.71668 224.21819 421.3694 224.83098 421.3814 225.93498 L 417.76421 225.93498 C 417.95021 224.81298 418.67068 224.21819 419.74468 224.21819 z M 543.85406 224.21819 C 544.82606 224.21819 545.48073 224.83098 545.49273 225.93498 L 541.87554 225.93498 C 542.06154 224.81298 542.78006 224.21819 543.85406 224.21819 z M 556.98297 227.7885 C 556.35897 227.7885 555.86773 228.17872 555.86773 228.86272 C 555.86773 229.52872 556.3404 229.94865 557.0064 229.94865 C 557.06349 229.94865 557.11901 229.94416 557.17437 229.93694 L 557.17437 227.80022 C 557.11198 227.79183 557.04806 227.7885 556.98297 227.7885 z M 557.17437 230.24358 C 556.92044 230.82748 556.42267 231.37558 555.75836 231.92326 L 556.32867 232.39592 C 556.62559 232.1696 556.91516 231.91077 557.17437 231.62248 L 557.17437 230.24358 z M 275.54937 242.06194 L 273.55718 242.43498 L 273.55718 243.10686 L 274.65484 243.22014 L 274.65484 245.14592 C 274.29484 245.05592 273.90506 244.99553 273.47906 244.99553 C 271.25906 244.99553 269.98101 246.36525 269.98101 248.50725 C 269.98101 250.24125 270.8204 251.476 272.5064 251.476 C 273.3824 251.476 274.06657 251.14097 274.58257 250.76897 L 274.58257 251.40959 L 274.70171 251.40959 L 276.76031 250.96037 L 276.76031 250.29436 L 275.71148 250.10881 L 275.71148 242.1342 L 275.54937 242.06194 z M 451.38921 242.06194 L 449.39703 242.43498 L 449.39703 243.10686 L 450.49468 243.22014 L 450.49468 245.14592 C 450.13468 245.05592 449.7449 244.99553 449.3189 244.99553 C 447.0989 244.99553 445.82085 246.36525 445.82085 248.50725 C 445.82085 250.24125 446.6622 251.476 448.3482 251.476 C 449.2242 251.476 449.90837 251.14097 450.42437 250.76897 L 450.42437 251.40959 L 450.54351 251.40959 L 452.6021 250.96037 L 452.6021 250.29436 L 451.55132 250.10881 L 451.55132 242.1342 L 451.38921 242.06194 z M 381.05718 242.07951 C 380.56518 242.07951 380.2232 242.36905 380.2232 242.84905 C 380.2232 243.32905 380.56518 243.62248 381.05718 243.62248 C 381.55518 243.62248 381.89898 243.32905 381.89898 242.84905 C 381.89898 242.36905 381.55518 242.07951 381.05718 242.07951 z M 137.31499 242.43498 C 136.69099 242.43498 136.19976 242.8252 136.19976 243.5092 C 136.19976 244.1812 136.67438 244.601 137.34038 244.601 C 137.43638 244.601 137.52563 244.58775 137.62163 244.56975 C 137.42963 245.28375 136.87234 245.91965 136.09234 246.57365 L 136.66069 247.0424 C 137.64469 246.2924 138.54546 245.17001 138.54546 243.89201 C 138.54546 242.88401 137.99299 242.43498 137.31499 242.43498 z M 176.43609 243.2924 L 175.72124 245.17131 L 174.02398 245.62053 L 174.02398 246.13615 L 175.76421 246.13615 L 175.76421 249.62248 C 175.76421 250.79848 176.25515 251.47586 177.72515 251.48186 C 178.40915 251.48186 179.1126 251.32076 179.6646 251.11076 L 180.06499 249.33537 L 179.4771 249.18498 L 179.32671 249.55608 C 179.02671 250.30008 178.54796 250.69656 177.85796 250.70256 C 177.14396 250.70856 176.87945 250.24678 176.87945 249.52678 L 176.87945 246.13615 L 179.72905 246.13615 L 179.89702 245.30217 L 176.89116 245.30217 L 176.89116 243.2924 L 176.43609 243.2924 z M 340.52203 243.2924 L 339.80718 245.17131 L 338.10992 245.62053 L 338.10992 246.13615 L 339.85015 246.13615 L 339.85015 249.62248 C 339.85015 250.79848 340.34109 251.47586 341.81109 251.48186 C 342.49509 251.48186 343.19854 251.32076 343.75054 251.11076 L 344.15288 249.33537 L 343.56304 249.18498 L 343.4146 249.55608 C 343.1146 250.30008 342.6339 250.69656 341.9439 250.70256 C 341.2299 250.70856 340.96538 250.24678 340.96538 249.52678 L 340.96538 246.13615 L 343.81695 246.13615 L 343.98492 245.30217 L 340.9771 245.30217 L 340.9771 243.2924 L 340.52203 243.2924 z M 393.68218 243.2924 L 392.96734 245.17131 L 391.27007 245.62053 L 391.27007 246.13615 L 393.01031 246.13615 L 393.01031 249.62248 C 393.01031 250.79848 393.50124 251.47586 394.97124 251.48186 C 395.65524 251.48186 396.3587 251.32076 396.9107 251.11076 L 397.31109 249.33537 L 396.7232 249.18498 L 396.57476 249.55608 C 396.27476 250.30008 395.79406 250.69656 395.10406 250.70256 C 394.39006 250.70856 394.12554 250.24678 394.12554 249.52678 L 394.12554 246.13615 L 396.97515 246.13615 L 397.14312 245.30217 L 394.13726 245.30217 L 394.13726 243.2924 L 393.68218 243.2924 z M 503.07281 243.2924 L 502.35992 245.17131 L 500.6607 245.62053 L 500.6607 246.13615 L 502.40093 246.13615 L 502.40093 249.62248 C 502.40093 250.79848 502.89382 251.47586 504.36382 251.48186 C 505.04782 251.48186 505.74932 251.32076 506.30132 251.11076 L 506.70367 249.33537 L 506.11578 249.18498 L 505.96539 249.55608 C 505.66539 250.30008 505.18468 250.69656 504.49468 250.70256 C 503.78068 250.70856 503.51617 250.24678 503.51617 249.52678 L 503.51617 246.13615 L 506.36773 246.13615 L 506.5357 245.30217 L 503.52984 245.30217 L 503.52984 243.2924 L 503.07281 243.2924 z M 542.9439 243.2924 L 542.22906 245.17131 L 540.53179 245.62053 L 540.53179 246.13615 L 542.27007 246.13615 L 542.27007 249.62248 C 542.27007 250.79848 542.76297 251.47586 544.23297 251.48186 C 544.91697 251.48186 545.61847 251.32076 546.17047 251.11076 L 546.57281 249.33537 L 545.98492 249.18498 L 545.83453 249.55608 C 545.53453 250.30008 545.05578 250.69656 544.36578 250.70256 C 543.65178 250.70856 543.38726 250.24678 543.38726 249.52678 L 543.38726 246.13615 L 546.23687 246.13615 L 546.40484 245.30217 L 543.39898 245.30217 L 543.39898 243.2924 L 542.9439 243.2924 z M 69.377491 244.98381 C 68.321491 244.98381 67.559944 245.20628 66.941944 245.46428 L 66.689991 246.81389 L 67.361866 246.98186 L 67.488819 246.69475 C 67.758819 246.05875 68.279537 245.7652 69.125537 245.7592 C 70.001537 245.7532 70.596241 246.0337 70.596241 247.0717 L 70.596241 247.67326 C 68.202241 247.76926 66.342334 248.17603 66.342334 249.80803 C 66.342334 250.87603 67.169834 251.476 68.279834 251.476 C 69.179834 251.476 70.032366 251.03872 70.674366 250.61272 L 70.674366 251.40959 L 70.799366 251.40959 L 72.744678 250.95451 L 72.744678 250.2885 L 71.731006 250.13811 L 71.731006 247.03655 C 71.731006 245.49455 70.973491 244.98381 69.377491 244.98381 z M 83.9771 244.98381 C 83.0531 244.98381 82.410225 245.45762 81.930225 245.99162 L 81.930225 245.08733 L 81.768116 245.01506 L 79.703663 245.46428 L 79.703663 246.1303 L 80.922413 246.29826 L 80.922413 250.31194 L 79.703663 250.73186 L 79.703663 251.33928 L 83.809131 251.33928 L 83.809131 250.73186 L 82.043506 250.29436 L 82.043506 246.47795 C 82.397506 246.24395 82.848506 246.03459 83.418506 246.03459 C 83.910506 246.03459 84.402538 246.2083 84.750538 246.8803 L 84.953663 247.27678 L 85.494678 247.13811 L 85.086475 245.23576 C 84.762475 245.07976 84.3971 244.98381 83.9771 244.98381 z M 124.40288 244.98381 C 122.39888 244.98381 121.03179 246.1239 121.03179 248.2299 C 121.03179 250.3359 122.30304 251.48186 124.31304 251.48186 C 125.10504 251.48186 125.8623 251.29664 126.5103 251.03264 L 126.8521 249.2924 L 126.16851 249.1303 L 126.05913 249.42522 C 125.76513 250.25922 125.17188 250.70842 124.27788 250.70842 C 123.11988 250.70842 122.21929 249.9339 122.21929 248.2299 C 122.21929 246.5319 123.11988 245.7592 124.27788 245.7592 C 125.17188 245.7592 125.76513 246.2084 126.05913 247.0424 L 126.16851 247.33733 L 126.8521 247.16936 L 126.5103 245.43498 C 125.9103 245.17098 125.19488 244.98381 124.40288 244.98381 z M 150.87554 244.98381 C 148.93754 244.98381 147.55718 246.22631 147.55718 248.29631 C 147.55718 250.33631 148.7214 251.48186 150.8814 251.48186 C 151.7094 251.48186 152.46541 251.29092 153.04741 251.02092 L 153.42046 249.6635 L 152.74859 249.50334 L 152.60991 249.78459 C 152.32191 250.45059 151.77566 250.67326 150.95366 250.67326 C 149.56166 250.67326 148.75696 249.70576 148.73296 248.23576 L 153.54546 248.23576 L 153.54546 247.82756 C 153.54546 245.90156 152.46554 244.98381 150.87554 244.98381 z M 164.21929 244.98381 C 162.46129 244.98381 161.41851 245.65728 161.41851 246.83928 C 161.41851 247.82928 162.15024 248.37508 163.59624 248.68108 C 165.00624 248.98108 165.55132 249.16659 165.55132 249.78459 C 165.55132 250.37859 165.04191 250.732 163.85991 250.726 C 162.83991 250.72 162.17413 250.4393 161.93413 249.7553 L 161.81304 249.41155 L 161.14116 249.57365 L 161.4478 251.08733 C 162.0358 251.30333 162.7851 251.476 163.7271 251.476 C 165.7491 251.476 166.6978 250.67892 166.6978 249.52092 C 166.6978 248.48892 165.92301 247.99573 164.23101 247.65373 C 163.04301 247.41373 162.54546 247.1269 162.54546 246.6049 C 162.54546 246.0169 163.16457 245.72781 164.08257 245.73381 C 165.03657 245.73981 165.59327 246.02862 165.80327 246.61662 L 165.93023 246.96428 L 166.59624 246.80217 L 166.3189 245.351 C 165.6469 245.111 164.96929 244.98381 164.21929 244.98381 z M 232.98491 244.98381 C 232.28291 244.98381 231.56388 245.27292 230.77788 245.77092 L 230.77788 245.07951 L 230.62163 245.01506 L 228.67632 245.46428 L 228.67632 246.1303 L 229.7271 246.2924 L 229.7271 250.40178 L 228.91656 250.73186 L 228.91656 251.33928 L 231.63531 251.33928 L 231.63531 250.73186 L 230.84234 250.4135 L 230.84234 246.37639 C 231.48434 246.02239 232.04943 245.89006 232.46343 245.89006 C 232.99143 245.89006 233.38726 246.15345 233.38726 246.91545 L 233.38726 250.40178 L 232.57671 250.73186 L 232.57671 251.33928 L 235.29546 251.33928 L 235.29546 250.73186 L 234.50249 250.4135 L 234.50249 246.68303 C 234.50249 245.56703 234.01091 244.98381 232.98491 244.98381 z M 286.84624 244.98381 C 284.90824 244.98381 283.52788 246.22631 283.52788 248.29631 C 283.52788 250.33631 284.6921 251.48186 286.8521 251.48186 C 287.6801 251.48186 288.43612 251.29092 289.01812 251.02092 L 289.39117 249.6635 L 288.71929 249.50334 L 288.58062 249.78459 C 288.29262 250.45059 287.74637 250.67326 286.92437 250.67326 C 285.53237 250.67326 284.72767 249.70576 284.70367 248.23576 L 289.51617 248.23576 L 289.51617 247.82756 C 289.51617 245.90156 288.43624 244.98381 286.84624 244.98381 z M 300.18999 244.98381 C 298.43199 244.98381 297.38921 245.65728 297.38921 246.83928 C 297.38921 247.82928 298.12095 248.37508 299.56695 248.68108 C 300.97695 248.98108 301.52202 249.16659 301.52202 249.78459 C 301.52202 250.37859 301.01262 250.732 299.83062 250.726 C 298.81062 250.72 298.14484 250.4393 297.90484 249.7553 L 297.78374 249.41155 L 297.11187 249.57365 L 297.41851 251.08733 C 298.00651 251.30333 298.75581 251.476 299.69781 251.476 C 301.71981 251.476 302.66851 250.67892 302.66851 249.52092 C 302.66851 248.48892 301.89371 247.99573 300.20171 247.65373 C 299.01371 247.41373 298.51617 247.1269 298.51617 246.6049 C 298.51617 246.0169 299.13527 245.72781 300.05327 245.73381 C 301.00727 245.73981 301.56398 246.02862 301.77398 246.61662 L 301.90093 246.96428 L 302.56695 246.80217 L 302.2896 245.351 C 301.6176 245.111 300.93999 244.98381 300.18999 244.98381 z M 355.91851 244.98381 C 354.99451 244.98381 354.35163 245.45762 353.87163 245.99162 L 353.87163 245.08733 L 353.70953 245.01506 L 351.64507 245.46428 L 351.64507 246.1303 L 352.86382 246.29826 L 352.86382 250.31194 L 351.64507 250.73186 L 351.64507 251.33928 L 355.75054 251.33928 L 355.75054 250.73186 L 353.98687 250.29436 L 353.98687 246.47795 C 354.34087 246.24395 354.78992 246.03459 355.35992 246.03459 C 355.85192 246.03459 356.34395 246.2083 356.69195 246.8803 L 356.89507 247.27678 L 357.43609 247.13811 L 357.02788 245.23576 C 356.70388 245.07976 356.33851 244.98381 355.91851 244.98381 z M 367.90093 244.98381 C 366.84493 244.98381 366.08143 245.20628 365.46343 245.46428 L 365.21148 246.81389 L 365.88335 246.98186 L 366.01031 246.69475 C 366.28031 246.05875 366.80298 245.7652 367.64898 245.7592 C 368.52498 245.7532 369.11773 246.0337 369.11773 247.0717 L 369.11773 247.67326 C 366.72373 247.76926 364.86382 248.17603 364.86382 249.80803 C 364.86382 250.87603 365.69132 251.476 366.80132 251.476 C 367.70132 251.476 368.55385 251.03872 369.19585 250.61272 L 369.19585 251.40959 L 369.32281 251.40959 L 371.26617 250.95451 L 371.26617 250.2885 L 370.25249 250.13811 L 370.25249 247.03655 C 370.25249 245.49455 369.49693 244.98381 367.90093 244.98381 z M 408.04546 244.98381 C 406.28746 244.98381 405.24468 245.65728 405.24468 246.83928 C 405.24468 247.82928 405.97642 248.37508 407.42242 248.68108 C 408.83242 248.98108 409.37749 249.16659 409.37749 249.78459 C 409.37749 250.37859 408.86809 250.732 407.68609 250.726 C 406.66609 250.72 406.00031 250.4393 405.76031 249.7553 L 405.63921 249.41155 L 404.96734 249.57365 L 405.27398 251.08733 C 405.86198 251.30333 406.61128 251.476 407.55328 251.476 C 409.57528 251.476 410.52398 250.67892 410.52398 249.52092 C 410.52398 248.48892 409.74918 247.99573 408.05718 247.65373 C 406.86918 247.41373 406.37164 247.1269 406.37164 246.6049 C 406.37164 246.0169 406.99074 245.72781 407.90874 245.73381 C 408.86274 245.73981 409.41945 246.02862 409.62945 246.61662 L 409.7564 246.96428 L 410.42242 246.80217 L 410.14703 245.351 C 409.47503 245.111 408.79546 244.98381 408.04546 244.98381 z M 462.68804 244.98381 C 460.75004 244.98381 459.36968 246.22631 459.36968 248.29631 C 459.36968 250.33631 460.5339 251.48186 462.6939 251.48186 C 463.5219 251.48186 464.27792 251.29092 464.85992 251.02092 L 465.23101 249.6635 L 464.55914 249.50334 L 464.42242 249.78459 C 464.13442 250.45059 463.58817 250.67326 462.76617 250.67326 C 461.37417 250.67326 460.56946 249.70576 460.54546 248.23576 L 465.35796 248.23576 L 465.35796 247.82756 C 465.35796 245.90156 464.27804 244.98381 462.68804 244.98381 z M 517.11968 244.98381 C 515.45168 244.98381 514.05914 246.1779 514.05914 248.2299 C 514.05914 250.2879 515.45168 251.48186 517.11968 251.48186 C 518.78768 251.48186 520.17828 250.2879 520.17828 248.2299 C 520.17828 246.1779 518.78768 244.98381 517.11968 244.98381 z M 557.17437 244.98576 C 555.27776 245.01894 553.93414 246.2544 553.93414 248.29631 C 553.93414 250.30952 555.06859 251.45219 557.17437 251.48186 L 557.17437 250.6674 C 555.87881 250.59722 555.13496 249.64974 555.11187 248.23576 L 557.17437 248.23576 L 557.17437 247.53459 L 555.16461 247.53459 C 555.35061 246.41259 556.07107 245.8178 557.14507 245.8178 C 557.15491 245.8178 557.1646 245.81767 557.17437 245.8178 L 557.17437 244.98576 z M 220.83452 245.0092 L 218.8482 245.45842 L 218.8482 246.1303 L 219.86382 246.27483 L 219.86382 250.08537 C 219.23382 250.43937 218.65673 250.56975 218.24273 250.56975 C 217.71473 250.56975 217.3189 250.31222 217.3189 249.55022 L 217.3189 245.08733 L 217.17437 245.01506 L 215.18999 245.46428 L 215.18999 246.13615 L 216.20366 246.28655 L 216.20366 249.78459 C 216.20366 250.90059 216.68924 251.48186 217.72124 251.48186 C 218.42924 251.48186 219.14995 251.18898 219.94195 250.68498 L 219.94195 251.38615 L 220.06109 251.40959 L 222.04156 250.96037 L 222.04156 250.29436 L 220.99077 250.10881 L 220.99077 245.07951 L 220.83452 245.0092 z M 532.64703 245.0092 L 530.6607 245.45842 L 530.6607 246.1303 L 531.67437 246.27483 L 531.67437 250.08537 C 531.04437 250.43937 530.46923 250.56975 530.05523 250.56975 C 529.52723 250.56975 529.1314 250.31222 529.1314 249.55022 L 529.1314 245.08733 L 528.98687 245.01506 L 527.00054 245.46428 L 527.00054 246.13615 L 528.01422 246.28655 L 528.01422 249.78459 C 528.01422 250.90059 528.50175 251.48186 529.53375 251.48186 C 530.24175 251.48186 530.9605 251.18898 531.7525 250.68498 L 531.7525 251.38615 L 531.87359 251.40959 L 533.85211 250.96037 L 533.85211 250.29436 L 532.80328 250.10881 L 532.80328 245.07951 L 532.64703 245.0092 z M 381.68218 245.01506 L 378.37554 245.49358 L 378.37554 246.101 L 380.72124 246.34709 L 380.72124 250.26506 L 378.36968 250.73186 L 378.36968 251.33928 L 384.18414 251.33928 L 384.18414 250.73186 L 381.83843 250.26506 L 381.83843 245.08733 L 381.68218 245.01506 z M 57.174365 245.04045 L 57.174365 245.9467 C 57.590456 246.15223 57.89158 246.52278 58.074756 247.0424 L 58.182178 247.33733 L 58.865772 247.16936 L 58.523975 245.43498 C 58.121673 245.25797 57.668318 245.11477 57.174365 245.04045 z M 273.47906 245.80608 C 273.88106 245.80608 274.24057 245.8779 274.58257 245.9799 L 274.58257 250.14397 C 274.07857 250.38997 273.50317 250.59514 272.89117 250.59514 C 271.68517 250.59514 271.15679 249.77312 271.15679 248.42912 C 271.15679 246.65912 272.09906 245.80608 273.47906 245.80608 z M 449.3189 245.80608 C 449.7209 245.80608 450.08237 245.8779 450.42437 245.9799 L 450.42437 250.14397 C 449.92037 250.38997 449.34301 250.59514 448.73101 250.59514 C 447.52501 250.59514 446.99664 249.77312 446.99664 248.42912 C 446.99664 246.65912 447.9389 245.80608 449.3189 245.80608 z M 517.11968 245.81194 C 518.15768 245.81194 518.98492 246.54405 518.98492 248.22405 C 518.98492 249.89805 518.15768 250.6303 517.11968 250.6303 C 516.08168 250.6303 515.2525 249.89805 515.2525 248.22405 C 515.2525 246.54405 516.08168 245.81194 517.11968 245.81194 z M 150.76812 245.8178 C 151.74012 245.8178 152.39284 246.43059 152.40484 247.53459 L 148.78765 247.53459 C 148.97365 246.41259 149.69412 245.8178 150.76812 245.8178 z M 286.73882 245.8178 C 287.71082 245.8178 288.36549 246.43059 288.37749 247.53459 L 284.75835 247.53459 C 284.94435 246.41259 285.66482 245.8178 286.73882 245.8178 z M 462.57867 245.8178 C 463.55067 245.8178 464.20534 246.43059 464.21734 247.53459 L 460.60015 247.53459 C 460.78615 246.41259 461.50467 245.8178 462.57867 245.8178 z M 70.596241 248.33928 L 70.596241 250.04826 C 70.002241 250.42026 69.383881 250.62444 68.777881 250.62444 C 68.027881 250.62444 67.590381 250.24717 67.590381 249.67717 C 67.590381 248.59717 69.168241 248.35728 70.596241 248.33928 z M 369.11773 248.33928 L 369.11773 250.04826 C 368.52373 250.42026 367.90537 250.62444 367.29937 250.62444 C 366.54937 250.62444 366.11187 250.24717 366.11187 249.67717 C 366.11187 248.59717 367.68973 248.35728 369.11773 248.33928 z M 58.182178 249.1303 L 58.074756 249.42522 C 57.89158 249.94484 57.590456 250.31539 57.174365 250.52092 L 57.174365 251.4135 C 57.655669 251.33651 58.111593 251.20065 58.523975 251.03264 L 58.865772 249.2924 L 58.182178 249.1303 z M 248.42241 263.26701 L 247.28765 265.29436 L 248.12163 265.29436 L 249.74859 263.26701 L 248.42241 263.26701 z M 328.16265 263.26701 L 327.02788 265.29436 L 327.86187 265.29436 L 329.48882 263.26701 L 328.16265 263.26701 z M 482.89703 263.26701 L 484.52398 265.29436 L 485.35796 265.29436 L 484.2232 263.26701 L 482.89703 263.26701 z M 68.07085 263.66155 L 66.125537 264.03459 L 66.125537 264.70647 L 67.176319 264.86858 L 67.176319 272.00334 L 66.365772 272.33147 L 66.365772 272.93889 L 69.084522 272.93889 L 69.084522 272.33147 L 68.291553 272.01506 L 68.291553 267.97014 C 68.945553 267.59814 69.479537 267.48967 69.875537 267.48967 C 70.493537 267.48967 70.836475 267.75501 70.836475 268.51701 L 70.836475 272.00334 L 70.025928 272.33147 L 70.025928 272.93889 L 72.744678 272.93889 L 72.744678 272.33147 L 71.951709 272.01506 L 71.951709 268.28264 C 71.951709 267.16664 71.413116 266.58537 70.393116 266.58537 C 69.685116 266.58537 68.9591 266.86681 68.2271 267.35881 L 68.2271 263.73381 L 68.07085 263.66155 z M 96.365772 263.66155 L 93.061085 264.11858 L 93.061085 264.72405 L 95.406788 264.88615 L 95.406788 271.97795 L 93.061085 272.33147 L 93.061085 272.93889 L 98.873585 272.93889 L 98.873585 272.33147 L 96.527882 271.97795 L 96.527882 263.73381 L 96.365772 263.66155 z M 161.10015 263.66155 L 159.15679 264.03459 L 159.15679 264.70647 L 160.20562 264.86858 L 160.20562 272.00334 L 159.39702 272.33147 L 159.39702 272.93889 L 162.11382 272.93889 L 162.11382 272.33147 L 161.3228 272.01506 L 161.3228 267.97014 C 161.9768 267.59814 162.51079 267.48967 162.90679 267.48967 C 163.52479 267.48967 163.86577 267.75501 163.86577 268.51701 L 163.86577 272.00334 L 163.05718 272.33147 L 163.05718 272.93889 L 165.77398 272.93889 L 165.77398 272.33147 L 164.98296 272.01506 L 164.98296 268.28264 C 164.98296 267.16664 164.44241 266.58537 163.42241 266.58537 C 162.71441 266.58537 161.9884 266.86681 161.2564 267.35881 L 161.2564 263.73381 L 161.10015 263.66155 z M 375.2232 263.66155 L 373.23101 264.03459 L 373.23101 264.70647 L 374.32867 264.81975 L 374.32867 266.74553 C 373.96867 266.65553 373.57889 266.59709 373.15289 266.59709 C 370.93289 266.59709 369.65484 267.96486 369.65484 270.10686 C 369.65484 271.84086 370.49618 273.07561 372.18218 273.07561 C 373.05818 273.07561 373.74235 272.74058 374.25835 272.36858 L 374.25835 273.01115 L 374.37749 273.01115 L 376.43609 272.55998 L 376.43609 271.89397 L 375.38531 271.70842 L 375.38531 263.73381 L 375.2232 263.66155 z M 456.8814 263.66155 L 454.93218 264.03459 L 454.93218 264.70647 L 455.98101 264.86858 L 455.98101 272.63811 C 456.53301 272.86011 457.27689 273.07561 458.15289 273.07561 C 460.32489 273.07561 461.68218 271.7437 461.68218 269.5717 C 461.68218 267.8617 460.84223 266.59709 459.18023 266.59709 C 458.26223 266.59709 457.55965 266.98053 457.03765 267.37053 L 457.03765 263.73381 L 456.8814 263.66155 z M 472.07281 263.66155 L 468.76812 264.11858 L 468.76812 264.72405 L 471.11382 264.88615 L 471.11382 271.97795 L 468.76812 272.33147 L 468.76812 272.93889 L 474.58062 272.93889 L 474.58062 272.33147 L 472.23492 271.97795 L 472.23492 263.73381 L 472.07281 263.66155 z M 545.95562 263.66155 L 543.96343 264.03459 L 543.96343 264.70647 L 545.06109 264.81975 L 545.06109 266.74553 C 544.70109 266.65553 544.31131 266.59709 543.88531 266.59709 C 541.66531 266.59709 540.38726 267.96486 540.38726 270.10686 C 540.38726 271.84086 541.22665 273.07561 542.91265 273.07561 C 543.78865 273.07561 544.47282 272.74058 544.98882 272.36858 L 544.98882 273.01115 L 545.10992 273.01115 L 547.16656 272.55998 L 547.16656 271.89397 L 546.11773 271.70842 L 546.11773 263.73381 L 545.95562 263.66155 z M 82.535694 263.68108 C 82.043694 263.68108 81.70171 263.96865 81.70171 264.44865 C 81.70171 264.92865 82.043694 265.22209 82.535694 265.22209 C 83.033694 265.22209 83.375538 264.92865 83.375538 264.44865 C 83.375538 263.96865 83.033694 263.68108 82.535694 263.68108 z M 175.56695 263.68108 C 175.07495 263.68108 174.73296 263.96865 174.73296 264.44865 C 174.73296 264.92865 175.07495 265.22209 175.56695 265.22209 C 176.06495 265.22209 176.40679 264.92865 176.40679 264.44865 C 176.40679 263.96865 176.06495 263.68108 175.56695 263.68108 z M 109.20562 266.58537 C 107.53762 266.58537 106.14702 267.77751 106.14702 269.82951 C 106.14702 271.88751 107.53762 273.08147 109.20562 273.08147 C 110.87362 273.08147 112.26616 271.88751 112.26616 269.82951 C 112.26616 267.77751 110.87362 266.58537 109.20562 266.58537 z M 122.81499 266.58537 C 121.05699 266.58537 120.01226 267.25689 120.01226 268.43889 C 120.01226 269.42889 120.74399 269.97469 122.18999 270.28069 C 123.59999 270.58069 124.14702 270.7662 124.14702 271.3842 C 124.14702 271.9782 123.63566 272.33161 122.45366 272.32561 C 121.43366 272.31961 120.76788 272.0389 120.52788 271.3549 L 120.40874 271.01311 L 119.73687 271.17522 L 120.04155 272.68694 C 120.62955 272.90294 121.3808 273.07561 122.3228 273.07561 C 124.3448 273.07561 125.29155 272.27853 125.29155 271.12053 C 125.29155 270.08853 124.51871 269.5973 122.82671 269.2553 C 121.63871 269.0153 121.14116 268.72651 121.14116 268.20451 C 121.14116 267.61651 121.75832 267.32937 122.67632 267.33537 C 123.63032 267.34137 124.18898 267.62823 124.39898 268.21623 L 124.52398 268.56389 L 125.18999 268.40178 L 124.9146 266.95061 C 124.2426 266.71061 123.56499 266.58537 122.81499 266.58537 z M 135.78569 266.58537 C 134.11769 266.58537 132.7271 267.77751 132.7271 269.82951 C 132.7271 271.88751 134.11769 273.08147 135.78569 273.08147 C 137.45369 273.08147 138.84624 271.88751 138.84624 269.82951 C 138.84624 267.77751 137.45369 266.58537 135.78569 266.58537 z M 189.20952 266.58537 C 187.27152 266.58537 185.89312 267.82592 185.89312 269.89592 C 185.89312 271.93592 187.05538 273.08147 189.21538 273.08147 C 190.04338 273.08147 190.7994 272.89053 191.3814 272.62053 L 191.75445 271.26506 L 191.08257 271.10295 L 190.9439 271.3842 C 190.6559 272.0502 190.10965 272.27287 189.28765 272.27287 C 187.89565 272.27287 187.0929 271.30733 187.0689 269.83733 L 191.87945 269.83733 L 191.87945 269.42912 C 191.87945 267.50312 190.79952 266.58537 189.20952 266.58537 z M 235.79156 266.58537 C 234.86756 266.58537 234.22663 267.05919 233.74663 267.59319 L 233.74663 266.68694 L 233.58452 266.61467 L 231.52007 267.06389 L 231.52007 267.7299 L 232.73882 267.89787 L 232.73882 271.91155 L 231.52007 272.33147 L 231.52007 272.93889 L 235.62359 272.93889 L 235.62359 272.33147 L 233.85991 271.89397 L 233.85991 268.07756 C 234.21391 267.84356 234.66296 267.6342 235.23296 267.6342 C 235.72496 267.6342 236.21699 267.8079 236.56499 268.4799 L 236.77007 268.87639 L 237.30913 268.73772 L 236.90288 266.83733 C 236.57888 266.68133 236.21156 266.58537 235.79156 266.58537 z M 247.99663 266.58537 C 246.05863 266.58537 244.67827 267.82592 244.67827 269.89592 C 244.67827 271.93592 245.84249 273.08147 248.00249 273.08147 C 248.83049 273.08147 249.58651 272.89053 250.16851 272.62053 L 250.5396 271.26506 L 249.86773 271.10295 L 249.72906 271.3842 C 249.44106 272.0502 248.89676 272.27287 248.07476 272.27287 C 246.68276 272.27287 245.87806 271.30733 245.85406 269.83733 L 250.66656 269.83733 L 250.66656 269.42912 C 250.66656 267.50312 249.58663 266.58537 247.99663 266.58537 z M 261.02202 266.58537 C 259.35402 266.58537 257.96148 267.77751 257.96148 269.82951 C 257.96148 271.88751 259.35402 273.08147 261.02202 273.08147 C 262.69002 273.08147 264.08257 271.88751 264.08257 269.82951 C 264.08257 267.77751 262.69002 266.58537 261.02202 266.58537 z M 274.68413 266.58537 C 272.68013 266.58537 271.31109 267.72351 271.31109 269.82951 C 271.31109 271.93551 272.58429 273.08147 274.59429 273.08147 C 275.38629 273.08147 276.1416 272.89625 276.7896 272.63225 L 277.1314 270.89201 L 276.44781 270.7299 L 276.34038 271.02483 C 276.04638 271.85883 275.45118 272.30803 274.55718 272.30803 C 273.39918 272.30803 272.50054 271.53351 272.50054 269.82951 C 272.50054 268.13151 273.39918 267.35881 274.55718 267.35881 C 275.45118 267.35881 276.04638 267.80801 276.34038 268.64201 L 276.44781 268.93694 L 277.1314 268.76897 L 276.7896 267.03459 C 276.1896 266.77059 275.47613 266.58537 274.68413 266.58537 z M 287.9732 266.58537 C 285.9692 266.58537 284.6021 267.72351 284.6021 269.82951 C 284.6021 271.93551 285.87335 273.08147 287.88335 273.08147 C 288.67535 273.08147 289.43262 272.89625 290.08062 272.63225 L 290.42242 270.89201 L 289.73882 270.7299 L 289.62945 271.02483 C 289.33545 271.85883 288.7422 272.30803 287.8482 272.30803 C 286.6902 272.30803 285.7896 271.53351 285.7896 269.82951 C 285.7896 268.13151 286.6902 267.35881 287.8482 267.35881 C 288.7422 267.35881 289.33545 267.80801 289.62945 268.64201 L 289.73882 268.93694 L 290.42242 268.76897 L 290.08062 267.03459 C 289.48062 266.77059 288.7652 266.58537 287.9732 266.58537 z M 327.73687 266.58537 C 325.79887 266.58537 324.41851 267.82592 324.41851 269.89592 C 324.41851 271.93592 325.58273 273.08147 327.74273 273.08147 C 328.57073 273.08147 329.32674 272.89053 329.90874 272.62053 L 330.27984 271.26506 L 329.60796 271.10295 L 329.46929 271.3842 C 329.18129 272.0502 328.63504 272.27287 327.81304 272.27287 C 326.42104 272.27287 325.61829 271.30733 325.59429 269.83733 L 330.40679 269.83733 L 330.40679 269.42912 C 330.40679 267.50312 329.32687 266.58537 327.73687 266.58537 z M 341.02593 266.58537 C 339.08793 266.58537 337.70757 267.82592 337.70757 269.89592 C 337.70757 271.93592 338.87179 273.08147 341.03179 273.08147 C 341.85979 273.08147 342.61581 272.89053 343.19781 272.62053 L 343.57085 271.26506 L 342.89703 271.10295 L 342.76031 271.3842 C 342.47231 272.0502 341.92606 272.27287 341.10406 272.27287 C 339.71206 272.27287 338.90735 271.30733 338.88335 269.83733 L 343.69585 269.83733 L 343.69585 269.42912 C 343.69585 267.50312 342.61593 266.58537 341.02593 266.58537 z M 433.10406 266.58537 C 432.18006 266.58537 431.53718 267.05919 431.05718 267.59319 L 431.05718 266.68694 L 430.89507 266.61467 L 428.83062 267.06389 L 428.83062 267.7299 L 430.04937 267.89787 L 430.04937 271.91155 L 428.83062 272.33147 L 428.83062 272.93889 L 432.93609 272.93889 L 432.93609 272.33147 L 431.17046 271.89397 L 431.17046 268.07756 C 431.52446 267.84356 431.97546 267.6342 432.54546 267.6342 C 433.03746 267.6342 433.5295 267.8079 433.8775 268.4799 L 434.08062 268.87639 L 434.62164 268.73772 L 434.21343 266.83733 C 433.88943 266.68133 433.52406 266.58537 433.10406 266.58537 z M 445.04351 266.58537 C 443.37551 266.58537 441.98296 267.77751 441.98296 269.82951 C 441.98296 271.88751 443.37551 273.08147 445.04351 273.08147 C 446.71151 273.08147 448.10406 271.88751 448.10406 269.82951 C 448.10406 267.77751 446.71151 266.58537 445.04351 266.58537 z M 485.17632 266.58537 C 483.23832 266.58537 481.85992 267.82592 481.85992 269.89592 C 481.85992 271.93592 483.02414 273.08147 485.18414 273.08147 C 486.01214 273.08147 486.76815 272.89053 487.35015 272.62053 L 487.72125 271.26506 L 487.04937 271.10295 L 486.9107 271.3842 C 486.6227 272.0502 486.07645 272.27287 485.25445 272.27287 C 483.86245 272.27287 483.0597 271.30733 483.0357 269.83733 L 487.8482 269.83733 L 487.8482 269.42912 C 487.8482 267.50312 486.76632 266.58537 485.17632 266.58537 z M 497.81304 266.58537 C 497.33904 266.58537 496.89012 266.8367 496.51812 267.1967 L 496.51812 266.68108 L 496.35601 266.61467 L 494.83648 267.03459 L 494.83648 267.57951 L 495.66461 267.78459 L 495.66461 272.02678 L 495.065 272.33147 L 495.065 272.93889 L 497.19586 272.93889 L 497.19586 272.33147 L 496.68023 272.05022 L 496.68023 267.62834 C 496.90223 267.52634 497.12871 267.45451 497.32671 267.45451 C 497.67471 267.45451 497.79546 267.60425 497.79546 268.13225 L 497.79546 272.93889 L 499.36187 272.93889 L 499.36187 272.33147 L 498.815 272.04436 L 498.815 267.90959 L 498.80328 267.6635 C 499.04928 267.5375 499.30198 267.45451 499.52398 267.45451 C 499.87798 267.45451 499.99664 267.60425 499.99664 268.13225 L 499.99664 272.93889 L 501.5689 272.93889 L 501.5689 272.33147 L 501.01226 272.04436 L 501.01226 267.86272 C 501.01226 267.00472 500.66961 266.58537 500.03961 266.58537 C 499.54161 266.58537 499.07957 266.84256 498.70757 267.20256 C 498.55757 266.80056 498.25704 266.58537 497.81304 266.58537 z M 511.7564 266.58537 C 509.8184 266.58537 508.44 267.82592 508.44 269.89592 C 508.44 271.93592 509.60421 273.08147 511.76421 273.08147 C 512.59221 273.08147 513.34823 272.89053 513.93023 272.62053 L 514.30132 271.26506 L 513.62945 271.10295 L 513.49078 271.3842 C 513.20278 272.0502 512.65653 272.27287 511.83453 272.27287 C 510.44253 272.27287 509.63978 271.30733 509.61578 269.83733 L 514.42828 269.83733 L 514.42828 269.42912 C 514.42828 267.50312 513.3464 266.58537 511.7564 266.58537 z M 557.17437 266.58537 C 555.27776 266.61855 553.93414 267.85401 553.93414 269.89592 C 553.93414 271.90913 555.06859 273.0518 557.17437 273.08147 L 557.17437 272.26897 C 555.87881 272.19878 555.13496 271.2513 555.11187 269.83733 L 557.17437 269.83733 L 557.17437 269.1342 L 555.16461 269.1342 C 555.35061 268.0122 556.07107 267.41936 557.14507 267.41936 C 557.15491 267.41936 557.1646 267.41923 557.17437 267.41936 L 557.17437 266.58537 z M 149.86187 266.59709 C 148.94387 266.59709 148.23543 266.96895 147.71343 267.35295 L 147.71343 266.68694 L 147.55913 266.61467 L 145.60796 267.06389 L 145.60796 267.7299 L 146.65874 267.89201 L 146.65874 274.40764 L 145.84819 274.73186 L 145.84819 275.33928 L 148.98687 275.33928 L 148.98687 274.73186 L 147.77984 274.3842 L 147.77984 272.94475 C 148.12184 273.02275 148.48916 273.07561 148.89116 273.07561 C 151.11116 273.07561 152.38921 271.70798 152.38921 269.55998 C 152.38921 267.82598 151.54787 266.59709 149.86187 266.59709 z M 221.93804 266.59709 C 221.02004 266.59709 220.3116 266.96895 219.7896 267.35295 L 219.7896 266.68694 L 219.63335 266.61467 L 217.68413 267.06389 L 217.68413 267.7299 L 218.73296 267.89201 L 218.73296 274.40764 L 217.92437 274.73186 L 217.92437 275.33928 L 221.06109 275.33928 L 221.06109 274.73186 L 219.85601 274.3842 L 219.85601 272.94475 C 220.19801 273.02275 220.56338 273.07561 220.96538 273.07561 C 223.18538 273.07561 224.46343 271.70798 224.46343 269.55998 C 224.46343 267.82598 223.62404 266.59709 221.93804 266.59709 z M 314.96734 266.59709 C 314.04934 266.59709 313.34285 266.96895 312.82085 267.35295 L 312.82085 266.68694 L 312.6646 266.61467 L 310.71343 267.06389 L 310.71343 267.7299 L 311.76421 267.89201 L 311.76421 274.40764 L 310.95367 274.73186 L 310.95367 275.33928 L 314.09234 275.33928 L 314.09234 274.73186 L 312.88531 274.3842 L 312.88531 272.94475 C 313.22731 273.02275 313.59463 273.07561 313.99663 273.07561 C 316.21663 273.07561 317.49468 271.70798 317.49468 269.55998 C 317.49468 267.82598 316.65334 266.59709 314.96734 266.59709 z M 419.24859 266.59709 C 418.33059 266.59709 417.6241 266.96895 417.1021 267.35295 L 417.1021 266.68694 L 416.94585 266.61467 L 414.99468 267.06389 L 414.99468 267.7299 L 416.04546 267.89201 L 416.04546 274.40764 L 415.23492 274.73186 L 415.23492 275.33928 L 418.37359 275.33928 L 418.37359 274.73186 L 417.16656 274.3842 L 417.16656 272.94475 C 417.50856 273.02275 417.87589 273.07561 418.27789 273.07561 C 420.49789 273.07561 421.77593 271.70798 421.77593 269.55998 C 421.77593 267.82598 420.93459 266.59709 419.24859 266.59709 z M 303.12945 266.60881 L 301.14312 267.05803 L 301.14312 267.7299 L 302.15874 267.87444 L 302.15874 271.68498 C 301.52874 272.03898 300.95165 272.17131 300.53765 272.17131 C 300.00965 272.17131 299.61382 271.91183 299.61382 271.14983 L 299.61382 266.68694 L 299.46929 266.61467 L 297.48492 267.06389 L 297.48492 267.73576 L 298.49859 267.88615 L 298.49859 271.3842 C 298.49859 272.5002 298.98417 273.08147 300.01617 273.08147 C 300.72417 273.08147 301.44487 272.78859 302.23687 272.28459 L 302.23687 272.98576 L 302.35601 273.01115 L 304.33648 272.55998 L 304.33648 271.89397 L 303.2857 271.70842 L 303.2857 266.68108 L 303.12945 266.60881 z M 388.49468 266.60881 L 386.51031 267.05803 L 386.51031 267.7299 L 387.52398 267.87444 L 387.52398 271.68498 C 386.89398 272.03898 386.31689 272.17131 385.90289 272.17131 C 385.37489 272.17131 384.97906 271.91183 384.97906 271.14983 L 384.97906 266.68694 L 384.83648 266.61467 L 382.85015 267.06389 L 382.85015 267.73576 L 383.86382 267.88615 L 383.86382 271.3842 C 383.86382 272.5002 384.3494 273.08147 385.3814 273.08147 C 386.0894 273.08147 386.8101 272.78859 387.6021 272.28459 L 387.6021 272.98576 L 387.72124 273.01115 L 389.70171 272.55998 L 389.70171 271.89397 L 388.65093 271.70842 L 388.65093 266.68108 L 388.49468 266.60881 z M 57.174365 266.61467 L 57.174365 267.6049 C 57.869069 267.88379 58.182178 268.609 58.182178 269.64397 C 58.182178 270.76634 57.803402 271.51821 57.174365 271.9174 L 57.174365 272.88811 C 58.57668 272.44351 59.357959 271.23968 59.357959 269.55998 C 59.357959 267.94757 58.631844 266.77175 57.174365 266.61467 z M 83.160694 266.61467 L 79.854053 267.09514 L 79.854053 267.70061 L 82.199756 267.9467 L 82.199756 271.86467 L 79.848194 272.33147 L 79.848194 272.93889 L 85.662647 272.93889 L 85.662647 272.33147 L 83.316944 271.86467 L 83.316944 266.68694 L 83.160694 266.61467 z M 176.18999 266.61467 L 172.88335 267.09514 L 172.88335 267.70061 L 175.23101 267.9467 L 175.23101 271.86467 L 172.87749 272.33147 L 172.87749 272.93889 L 178.69195 272.93889 L 178.69195 272.33147 L 176.34624 271.86467 L 176.34624 266.68694 L 176.18999 266.61467 z M 373.15289 267.40569 C 373.55489 267.40569 373.91635 267.47751 374.25835 267.57951 L 374.25835 271.74358 C 373.75435 271.98958 373.17699 272.19475 372.56499 272.19475 C 371.35899 272.19475 370.83257 271.37273 370.83257 270.02873 C 370.83257 268.25873 371.77289 267.40569 373.15289 267.40569 z M 543.88531 267.40569 C 544.28731 267.40569 544.64682 267.47751 544.98882 267.57951 L 544.98882 271.74358 C 544.48482 271.98958 543.90942 272.19475 543.29742 272.19475 C 542.09142 272.19475 541.56304 271.37273 541.56304 270.02873 C 541.56304 268.25873 542.50531 267.40569 543.88531 267.40569 z M 109.20562 267.41155 C 110.24362 267.41155 111.0728 268.14365 111.0728 269.82365 C 111.0728 271.49765 110.24362 272.2299 109.20562 272.2299 C 108.16762 272.2299 107.34038 271.49765 107.34038 269.82365 C 107.34038 268.14365 108.16762 267.41155 109.20562 267.41155 z M 135.78569 267.41155 C 136.82369 267.41155 137.65288 268.14365 137.65288 269.82365 C 137.65288 271.49765 136.82369 272.2299 135.78569 272.2299 C 134.74769 272.2299 133.92046 271.49765 133.92046 269.82365 C 133.92046 268.14365 134.74769 267.41155 135.78569 267.41155 z M 261.02202 267.41155 C 262.06002 267.41155 262.88726 268.14365 262.88726 269.82365 C 262.88726 271.49765 262.06002 272.2299 261.02202 272.2299 C 259.98402 272.2299 259.15679 271.49765 259.15679 269.82365 C 259.15679 268.14365 259.98402 267.41155 261.02202 267.41155 z M 445.04351 267.41155 C 446.08151 267.41155 446.90875 268.14365 446.90875 269.82365 C 446.90875 271.49765 446.08151 272.2299 445.04351 272.2299 C 444.00551 272.2299 443.17632 271.49765 443.17632 269.82365 C 443.17632 268.14365 444.00551 267.41155 445.04351 267.41155 z M 189.1021 267.41936 C 190.0741 267.41936 190.72877 268.0302 190.74077 269.1342 L 187.12163 269.1342 C 187.30763 268.0122 188.0281 267.41936 189.1021 267.41936 z M 247.88726 267.41936 C 248.85926 267.41936 249.51393 268.0302 249.52593 269.1342 L 245.90874 269.1342 C 246.09474 268.0122 246.81326 267.41936 247.88726 267.41936 z M 327.62749 267.41936 C 328.59949 267.41936 329.25417 268.0302 329.26617 269.1342 L 325.64703 269.1342 C 325.83303 268.0122 326.55349 267.41936 327.62749 267.41936 z M 340.91851 267.41936 C 341.89051 267.41936 342.54323 268.0302 342.55523 269.1342 L 338.93804 269.1342 C 339.12404 268.0122 339.84451 267.41936 340.91851 267.41936 z M 485.0689 267.41936 C 486.0409 267.41936 486.69557 268.0302 486.70757 269.1342 L 483.08843 269.1342 C 483.27443 268.0122 483.9949 267.41936 485.0689 267.41936 z M 511.64898 267.41936 C 512.62098 267.41936 513.27565 268.0302 513.28765 269.1342 L 509.66851 269.1342 C 509.85451 268.0122 510.57498 267.41936 511.64898 267.41936 z M 149.47905 267.47795 C 150.68505 267.47795 151.21148 268.29997 151.21148 269.64397 C 151.21148 271.41397 150.27116 272.26115 148.89116 272.26115 C 148.48316 272.26115 148.12184 272.19533 147.77984 272.08733 L 147.77984 267.92912 C 148.28384 267.67712 148.86705 267.47795 149.47905 267.47795 z M 221.55327 267.47795 C 222.75927 267.47795 223.28765 268.29997 223.28765 269.64397 C 223.28765 271.41397 222.34538 272.26115 220.96538 272.26115 C 220.55738 272.26115 220.19801 272.19533 219.85601 272.08733 L 219.85601 267.92912 C 220.36001 267.67712 220.94127 267.47795 221.55327 267.47795 z M 314.58452 267.47795 C 315.79052 267.47795 316.3189 268.29997 316.3189 269.64397 C 316.3189 271.41397 315.37663 272.26115 313.99663 272.26115 C 313.58863 272.26115 313.22731 272.19533 312.88531 272.08733 L 312.88531 267.92912 C 313.38931 267.67712 313.97252 267.47795 314.58452 267.47795 z M 418.86578 267.47795 C 420.07178 267.47795 420.60015 268.29997 420.60015 269.64397 C 420.60015 271.41397 419.65789 272.26115 418.27789 272.26115 C 417.86989 272.26115 417.50856 272.19533 417.16656 272.08733 L 417.16656 267.92912 C 417.67056 267.67712 418.25378 267.47795 418.86578 267.47795 z M 458.76617 267.47795 C 459.99017 267.47795 460.49859 268.34211 460.49859 269.63811 C 460.49859 271.45011 459.50359 272.26115 458.12359 272.26115 C 457.73359 272.26115 457.39206 272.20634 457.10406 272.12834 L 457.10406 267.90959 C 457.60806 267.66359 458.18417 267.47795 458.76617 267.47795 z M 339.17242 285.26311 L 335.86773 285.71819 L 335.86773 286.32365 L 338.21343 286.48576 L 338.21343 293.57756 L 335.86773 293.93303 L 335.86773 294.5385 L 341.68023 294.5385 L 341.68023 293.93303 L 339.33453 293.57756 L 339.33453 285.33537 L 339.17242 285.26311 z M 167.90093 285.28069 C 167.40893 285.28069 167.06694 285.56826 167.06694 286.04826 C 167.06694 286.52826 167.40893 286.8217 167.90093 286.8217 C 168.39893 286.8217 168.74273 286.52826 168.74273 286.04826 C 168.74273 285.56826 168.39893 285.28069 167.90093 285.28069 z M 444.95367 285.28069 C 444.46167 285.28069 444.11968 285.56826 444.11968 286.04826 C 444.11968 286.52826 444.46167 286.8217 444.95367 286.8217 C 445.45167 286.8217 445.79351 286.52826 445.79351 286.04826 C 445.79351 285.56826 445.45167 285.28069 444.95367 285.28069 z M 352.0064 285.6342 C 351.3824 285.6342 350.89117 286.02442 350.89117 286.70842 C 350.89117 287.38042 351.36579 287.80022 352.03179 287.80022 C 352.12779 287.80022 352.21704 287.78892 352.31304 287.77092 C 352.12104 288.48492 351.56374 289.12083 350.78374 289.77483 L 351.35406 290.24162 C 352.33806 289.49162 353.23687 288.37119 353.23687 287.09319 C 353.23687 286.08519 352.6844 285.6342 352.0064 285.6342 z M 530.40289 285.6342 C 529.77889 285.6342 529.28765 286.02442 529.28765 286.70842 C 529.28765 287.38042 529.76032 287.80022 530.42632 287.80022 C 530.52232 287.80022 530.61353 287.78892 530.70953 287.77092 C 530.51753 288.48492 529.95828 289.12083 529.17828 289.77483 L 529.74859 290.24162 C 530.73259 289.49162 531.63336 288.37119 531.63336 287.09319 C 531.63336 286.08519 531.08089 285.6342 530.40289 285.6342 z M 377.83648 286.49162 L 377.12359 288.37053 L 375.42437 288.81975 L 375.42437 289.33733 L 377.1646 289.33733 L 377.1646 292.8217 C 377.1646 293.9977 377.65749 294.67703 379.12749 294.68303 C 379.81149 294.68303 380.51299 294.51998 381.06499 294.30998 L 381.46734 292.53459 L 380.87945 292.3842 L 380.72906 292.75725 C 380.42906 293.50125 379.94835 293.89578 379.25835 293.90178 C 378.54435 293.90778 378.28179 293.446 378.28179 292.726 L 378.28179 289.33733 L 381.1314 289.33733 L 381.29937 288.50334 L 378.29351 288.50334 L 378.29351 286.49162 L 377.83648 286.49162 z M 391.12749 286.49162 L 390.41265 288.37053 L 388.71539 288.81975 L 388.71539 289.33733 L 390.45562 289.33733 L 390.45562 292.8217 C 390.45562 293.9977 390.94656 294.67703 392.41656 294.68303 C 393.10056 294.68303 393.80401 294.51998 394.35601 294.30998 L 394.7564 292.53459 L 394.16851 292.3842 L 394.02007 292.75725 C 393.72007 293.50125 393.23937 293.89578 392.54937 293.90178 C 391.83537 293.90778 391.57085 293.446 391.57085 292.726 L 391.57085 289.33733 L 394.42046 289.33733 L 394.58843 288.50334 L 391.58257 288.50334 L 391.58257 286.49162 L 391.12749 286.49162 z M 430.99664 286.49162 L 430.28375 288.37053 L 428.58453 288.81975 L 428.58453 289.33733 L 430.32476 289.33733 L 430.32476 292.8217 C 430.32476 293.9977 430.81765 294.67703 432.28765 294.68303 C 432.97165 294.68303 433.67315 294.51998 434.22515 294.30998 L 434.6275 292.53459 L 434.0396 292.3842 L 433.88921 292.75725 C 433.58921 293.50125 433.10851 293.89578 432.41851 293.90178 C 431.70451 293.90778 431.44195 293.446 431.44195 292.726 L 431.44195 289.33733 L 434.29156 289.33733 L 434.45953 288.50334 L 431.45367 288.50334 L 431.45367 286.49162 L 430.99664 286.49162 z M 69.377491 288.18498 C 68.321491 288.18498 67.559944 288.4055 66.941944 288.6635 L 66.689991 290.01506 L 67.361866 290.18303 L 67.488819 289.89397 C 67.758819 289.25797 68.279537 288.96442 69.125537 288.95842 C 70.001537 288.95242 70.596241 289.23487 70.596241 290.27287 L 70.596241 290.87248 C 68.202241 290.96848 66.342334 291.3772 66.342334 293.0092 C 66.342334 294.0772 67.169834 294.67717 68.279834 294.67717 C 69.179834 294.67717 70.032366 294.23794 70.674366 293.81194 L 70.674366 294.61076 L 70.799366 294.61076 L 72.744678 294.15373 L 72.744678 293.48772 L 71.731006 293.33928 L 71.731006 290.23576 C 71.731006 288.69376 70.973491 288.18498 69.377491 288.18498 z M 101.9146 288.18498 C 99.9106 288.18498 98.541553 289.32508 98.541553 291.43108 C 98.541553 293.53708 99.814757 294.68303 101.82476 294.68303 C 102.61676 294.68303 103.37207 294.49586 104.02007 294.23186 L 104.36187 292.49162 L 103.67827 292.32951 L 103.5689 292.62444 C 103.2749 293.45844 102.68165 293.90764 101.78765 293.90764 C 100.62965 293.90764 99.729053 293.13508 99.729053 291.43108 C 99.729053 289.73308 100.62965 288.95842 101.78765 288.95842 C 102.68165 288.95842 103.2749 289.40762 103.5689 290.24162 L 103.67827 290.53655 L 104.36187 290.36858 L 104.02007 288.6342 C 103.42007 288.3702 102.7066 288.18498 101.9146 288.18498 z M 114.83257 288.18498 C 113.16457 288.18498 111.77202 289.37908 111.77202 291.43108 C 111.77202 293.48908 113.16457 294.68303 114.83257 294.68303 C 116.50057 294.68303 117.89116 293.48908 117.89116 291.43108 C 117.89116 289.37908 116.50057 288.18498 114.83257 288.18498 z M 129.21929 288.18498 C 128.51729 288.18498 127.79826 288.47214 127.01226 288.97014 L 127.01226 288.28069 L 126.85601 288.21428 L 124.91265 288.6635 L 124.91265 289.32951 L 125.96148 289.49162 L 125.96148 293.60295 L 125.15093 293.93303 L 125.15093 294.5385 L 127.86968 294.5385 L 127.86968 293.93303 L 127.07866 293.61467 L 127.07866 289.57561 C 127.72066 289.22161 128.2838 289.09123 128.6978 289.09123 C 129.2258 289.09123 129.62163 289.35462 129.62163 290.11662 L 129.62163 293.60295 L 128.81109 293.93303 L 128.81109 294.5385 L 131.52984 294.5385 L 131.52984 293.93303 L 130.73687 293.61467 L 130.73687 289.88225 C 130.73687 288.76625 130.24529 288.18498 129.21929 288.18498 z M 142.5103 288.18498 C 141.8083 288.18498 141.08732 288.47214 140.30132 288.97014 L 140.30132 288.28069 L 140.14507 288.21428 L 138.20171 288.6635 L 138.20171 289.32951 L 139.25249 289.49162 L 139.25249 293.60295 L 138.44194 293.93303 L 138.44194 294.5385 L 141.16069 294.5385 L 141.16069 293.93303 L 140.36773 293.61467 L 140.36773 289.57561 C 141.00973 289.22161 141.57287 289.09123 141.98687 289.09123 C 142.51487 289.09123 142.91265 289.35462 142.91265 290.11662 L 142.91265 293.60295 L 142.1021 293.93303 L 142.1021 294.5385 L 144.8189 294.5385 L 144.8189 293.93303 L 144.02788 293.61467 L 144.02788 289.88225 C 144.02788 288.76625 143.5363 288.18498 142.5103 288.18498 z M 154.74468 288.18498 C 153.68868 288.18498 152.92518 288.4055 152.30718 288.6635 L 152.05523 290.01506 L 152.7271 290.18303 L 152.85405 289.89397 C 153.12405 289.25797 153.64673 288.96442 154.49273 288.95842 C 155.36873 288.95242 155.96148 289.23487 155.96148 290.27287 L 155.96148 290.87248 C 153.56748 290.96848 151.70757 291.3772 151.70757 293.0092 C 151.70757 294.0772 152.53507 294.67717 153.64507 294.67717 C 154.54507 294.67717 155.3976 294.23794 156.0396 293.81194 L 156.0396 294.61076 L 156.16655 294.61076 L 158.10991 294.15373 L 158.10991 293.48772 L 157.09624 293.33928 L 157.09624 290.23576 C 157.09624 288.69376 156.34068 288.18498 154.74468 288.18498 z M 181.60015 288.18498 C 179.84215 288.18498 178.79741 288.8565 178.79741 290.0385 C 178.79741 291.0285 179.52915 291.5743 180.97515 291.8803 C 182.38515 292.1803 182.93218 292.36581 182.93218 292.98381 C 182.93218 293.57781 182.42277 293.93317 181.24077 293.92717 C 180.22077 293.92117 179.55304 293.63851 179.31304 292.95451 L 179.1939 292.61272 L 178.52202 292.77483 L 178.82866 294.28655 C 179.41666 294.50255 180.16596 294.67717 181.10796 294.67717 C 183.12996 294.67717 184.07866 293.87814 184.07866 292.72014 C 184.07866 291.68814 183.30387 291.1969 181.61187 290.8549 C 180.42387 290.6149 179.92632 290.32612 179.92632 289.80412 C 179.92632 289.21612 180.54348 288.92898 181.46148 288.93498 C 182.41548 288.94098 182.97413 289.22784 183.18413 289.81584 L 183.30913 290.1635 L 183.97515 290.00334 L 183.69976 288.55022 C 183.02776 288.31022 182.35015 288.18498 181.60015 288.18498 z M 194.88921 288.18498 C 193.13121 288.18498 192.08843 288.8565 192.08843 290.0385 C 192.08843 291.0285 192.82016 291.5743 194.26616 291.8803 C 195.67616 292.1803 196.22124 292.36581 196.22124 292.98381 C 196.22124 293.57781 195.71184 293.93317 194.52984 293.92717 C 193.50984 293.92117 192.84405 293.63851 192.60405 292.95451 L 192.48296 292.61272 L 191.81109 292.77483 L 192.11773 294.28655 C 192.70573 294.50255 193.45502 294.67717 194.39702 294.67717 C 196.41902 294.67717 197.36773 293.87814 197.36773 292.72014 C 197.36773 291.68814 196.59293 291.1969 194.90093 290.8549 C 193.71293 290.6149 193.21538 290.32612 193.21538 289.80412 C 193.21538 289.21612 193.83449 288.92898 194.75249 288.93498 C 195.70649 288.94098 196.2632 289.22784 196.4732 289.81584 L 196.60015 290.1635 L 197.26616 290.00334 L 196.99077 288.55022 C 196.31877 288.31022 195.63921 288.18498 194.88921 288.18498 z M 207.90484 288.18498 C 206.84884 288.18498 206.08534 288.4055 205.46734 288.6635 L 205.21538 290.01506 L 205.88726 290.18303 L 206.01421 289.89397 C 206.28421 289.25797 206.80493 288.96442 207.65093 288.95842 C 208.52693 288.95242 209.12163 289.23487 209.12163 290.27287 L 209.12163 290.87248 C 206.72763 290.96848 204.86773 291.3772 204.86773 293.0092 C 204.86773 294.0772 205.69523 294.67717 206.80523 294.67717 C 207.70523 294.67717 208.55776 294.23794 209.19976 293.81194 L 209.19976 294.61076 L 209.32671 294.61076 L 211.27007 294.15373 L 211.27007 293.48772 L 210.2564 293.33928 L 210.2564 290.23576 C 210.2564 288.69376 209.50084 288.18498 207.90484 288.18498 z M 222.25054 288.18498 C 221.54854 288.18498 220.82755 288.47214 220.04155 288.97014 L 220.04155 288.28069 L 219.8853 288.21428 L 217.94195 288.6635 L 217.94195 289.32951 L 218.99273 289.49162 L 218.99273 293.60295 L 218.18218 293.93303 L 218.18218 294.5385 L 220.89898 294.5385 L 220.89898 293.93303 L 220.10796 293.61467 L 220.10796 289.57561 C 220.74996 289.22161 221.3131 289.09123 221.7271 289.09123 C 222.2551 289.09123 222.65093 289.35462 222.65093 290.11662 L 222.65093 293.60295 L 221.84234 293.93303 L 221.84234 294.5385 L 224.55913 294.5385 L 224.55913 293.93303 L 223.76812 293.61467 L 223.76812 289.88225 C 223.76812 288.76625 223.27654 288.18498 222.25054 288.18498 z M 234.81304 288.18498 C 232.80904 288.18498 231.44195 289.32508 231.44195 291.43108 C 231.44195 293.53708 232.7132 294.68303 234.7232 294.68303 C 235.5152 294.68303 236.27246 294.49586 236.92046 294.23186 L 237.26226 292.49162 L 236.57866 292.32951 L 236.46929 292.62444 C 236.17529 293.45844 235.58204 293.90764 234.68804 293.90764 C 233.53004 293.90764 232.62945 293.13508 232.62945 291.43108 C 232.62945 289.73308 233.53004 288.95842 234.68804 288.95842 C 235.58204 288.95842 236.17529 289.40762 236.46929 290.24162 L 236.57866 290.53655 L 237.26226 290.36858 L 236.92046 288.6342 C 236.32046 288.3702 235.60504 288.18498 234.81304 288.18498 z M 247.99663 288.18498 C 246.05863 288.18498 244.67827 289.42553 244.67827 291.49553 C 244.67827 293.53553 245.84249 294.68303 248.00249 294.68303 C 248.83049 294.68303 249.58651 294.49014 250.16851 294.22014 L 250.5396 292.86467 L 249.86773 292.70256 L 249.72906 292.98381 C 249.44106 293.64981 248.89676 293.87248 248.07476 293.87248 C 246.68276 293.87248 245.87806 292.90694 245.85406 291.43694 L 250.66656 291.43694 L 250.66656 291.02873 C 250.66656 289.10273 249.58663 288.18498 247.99663 288.18498 z M 282.26617 288.18498 L 281.82671 288.44865 C 281.36471 288.31065 280.8444 288.19084 280.2564 288.19084 C 278.0304 288.19084 276.75249 289.55847 276.75249 291.70647 C 276.75249 293.44047 277.59788 294.67717 279.27788 294.67717 C 280.18988 294.67717 280.88465 294.31117 281.41265 293.92717 L 281.41265 295.98381 L 280.20171 296.33147 L 280.20171 296.93889 L 283.34038 296.93889 L 283.34038 296.33147 L 282.52984 296.00334 L 282.52984 288.18498 L 282.26617 288.18498 z M 306.78179 288.18498 C 304.84379 288.18498 303.46343 289.42553 303.46343 291.49553 C 303.46343 293.53553 304.62765 294.68303 306.78765 294.68303 C 307.61565 294.68303 308.37167 294.49014 308.95367 294.22014 L 309.32476 292.86467 L 308.65288 292.70256 L 308.51617 292.98381 C 308.22817 293.64981 307.68192 293.87248 306.85992 293.87248 C 305.46792 293.87248 304.66321 292.90694 304.63921 291.43694 L 309.45171 291.43694 L 309.45171 291.02873 C 309.45171 289.10273 308.37179 288.18498 306.78179 288.18498 z M 365.34429 288.18498 C 364.28829 288.18498 363.52674 288.4055 362.90874 288.6635 L 362.65679 290.01506 L 363.32867 290.18303 L 363.45562 289.89397 C 363.72562 289.25797 364.24634 288.96442 365.09234 288.95842 C 365.96834 288.95242 366.56304 289.23487 366.56304 290.27287 L 366.56304 290.87248 C 364.16904 290.96848 362.30913 291.3772 362.30913 293.0092 C 362.30913 294.0772 363.13663 294.67717 364.24663 294.67717 C 365.14663 294.67717 365.99917 294.23794 366.64117 293.81194 L 366.64117 294.61076 L 366.76812 294.61076 L 368.71148 294.15373 L 368.71148 293.48772 L 367.69781 293.33928 L 367.69781 290.23576 C 367.69781 288.69376 366.94029 288.18498 365.34429 288.18498 z M 405.43804 288.18498 C 403.50004 288.18498 402.11968 289.42553 402.11968 291.49553 C 402.11968 293.53553 403.2839 294.68303 405.4439 294.68303 C 406.2719 294.68303 407.02792 294.49014 407.60992 294.22014 L 407.98101 292.86467 L 407.30914 292.70256 L 407.17046 292.98381 C 406.88246 293.64981 406.33817 293.87248 405.51617 293.87248 C 404.12417 293.87248 403.31946 292.90694 403.29546 291.43694 L 408.10796 291.43694 L 408.10796 291.02873 C 408.10796 289.10273 407.02804 288.18498 405.43804 288.18498 z M 419.56109 288.18498 C 418.85909 288.18498 418.14006 288.47214 417.35406 288.97014 L 417.35406 288.28069 L 417.19781 288.21428 L 415.25249 288.6635 L 415.25249 289.32951 L 416.30328 289.49162 L 416.30328 293.60295 L 415.49273 293.93303 L 415.49273 294.5385 L 418.21148 294.5385 L 418.21148 293.93303 L 417.41851 293.61467 L 417.41851 289.57561 C 418.06051 289.22161 418.6256 289.09123 419.0396 289.09123 C 419.5676 289.09123 419.96343 289.35462 419.96343 290.11662 L 419.96343 293.60295 L 419.15289 293.93303 L 419.15289 294.5385 L 421.87164 294.5385 L 421.87164 293.93303 L 421.07867 293.61467 L 421.07867 289.88225 C 421.07867 288.76625 420.58709 288.18498 419.56109 288.18498 z M 458.33257 288.18498 C 456.66457 288.18498 455.27398 289.37908 455.27398 291.43108 C 455.27398 293.48908 456.66457 294.68303 458.33257 294.68303 C 460.00057 294.68303 461.39312 293.48908 461.39312 291.43108 C 461.39312 289.37908 460.00057 288.18498 458.33257 288.18498 z M 472.72125 288.18498 C 472.01925 288.18498 471.30021 288.47214 470.51421 288.97014 L 470.51421 288.28069 L 470.35796 288.21428 L 468.41265 288.6635 L 468.41265 289.32951 L 469.46343 289.49162 L 469.46343 293.60295 L 468.65289 293.93303 L 468.65289 294.5385 L 471.37164 294.5385 L 471.37164 293.93303 L 470.57867 293.61467 L 470.57867 289.57561 C 471.22067 289.22161 471.78576 289.09123 472.19976 289.09123 C 472.72776 289.09123 473.12359 289.35462 473.12359 290.11662 L 473.12359 293.60295 L 472.31304 293.93303 L 472.31304 294.5385 L 475.03179 294.5385 L 475.03179 293.93303 L 474.23882 293.61467 L 474.23882 289.88225 C 474.23882 288.76625 473.74725 288.18498 472.72125 288.18498 z M 506.15679 288.18498 L 505.71929 288.44865 C 505.25729 288.31065 504.73503 288.19084 504.14703 288.19084 C 501.92103 288.19084 500.64312 289.55847 500.64312 291.70647 C 500.64312 293.44047 501.48851 294.67717 503.16851 294.67717 C 504.08051 294.67717 504.77723 294.31117 505.30523 293.92717 L 505.30523 295.98381 L 504.09234 296.33147 L 504.09234 296.93889 L 507.23101 296.93889 L 507.23101 296.33147 L 506.42046 296.00334 L 506.42046 288.18498 L 506.15679 288.18498 z M 543.69976 288.18498 C 542.03176 288.18498 540.63922 289.37908 540.63922 291.43108 C 540.63922 293.48908 542.03176 294.68303 543.69976 294.68303 C 545.36776 294.68303 546.75836 293.48908 546.75836 291.43108 C 546.75836 289.37908 545.36776 288.18498 543.69976 288.18498 z M 295.46538 288.20842 L 293.47906 288.65764 L 293.47906 289.32951 L 294.49273 289.47405 L 294.49273 293.28459 C 293.86273 293.63859 293.28759 293.77092 292.87359 293.77092 C 292.34559 293.77092 291.94976 293.51339 291.94976 292.75139 L 291.94976 288.28655 L 291.80523 288.21428 L 289.8189 288.6635 L 289.8189 289.33733 L 290.83452 289.48576 L 290.83452 292.98381 C 290.83452 294.09981 291.3201 294.68303 292.3521 294.68303 C 293.0601 294.68303 293.77885 294.3882 294.57085 293.8842 L 294.57085 294.58733 L 294.69195 294.61076 L 296.67242 294.15959 L 296.67242 293.49358 L 295.62163 293.30803 L 295.62163 288.28069 L 295.46538 288.20842 z M 519.35601 288.20842 L 517.37164 288.65764 L 517.37164 289.32951 L 518.38531 289.47405 L 518.38531 293.28459 C 517.75531 293.63859 517.17821 293.77092 516.76421 293.77092 C 516.23621 293.77092 515.84039 293.51339 515.84039 292.75139 L 515.84039 288.28655 L 515.69781 288.21428 L 513.71148 288.6635 L 513.71148 289.33733 L 514.72515 289.48576 L 514.72515 292.98381 C 514.72515 294.09981 515.21073 294.68303 516.24273 294.68303 C 516.95073 294.68303 517.67143 294.3882 518.46343 293.8842 L 518.46343 294.58733 L 518.58257 294.61076 L 520.56304 294.15959 L 520.56304 293.49358 L 519.51226 293.30803 L 519.51226 288.28069 L 519.35601 288.20842 z M 168.52593 288.21428 L 165.21929 288.69475 L 165.21929 289.30022 L 167.56499 289.54631 L 167.56499 293.46428 L 165.21343 293.93303 L 165.21343 294.5385 L 171.02788 294.5385 L 171.02788 293.93303 L 168.68218 293.46428 L 168.68218 288.28655 L 168.52593 288.21428 z M 445.57671 288.21428 L 442.27203 288.69475 L 442.27203 289.30022 L 444.61773 289.54631 L 444.61773 293.46428 L 442.26617 293.93303 L 442.26617 294.5385 L 448.07867 294.5385 L 448.07867 293.93303 L 445.73296 293.46428 L 445.73296 288.28655 L 445.57671 288.21428 z M 555.7232 288.21428 L 553.77984 288.6635 L 553.77984 289.32951 L 554.82867 289.49162 L 554.82867 293.60295 L 554.01812 293.93303 L 554.01812 294.5385 L 556.73687 294.5385 L 556.73687 293.93303 L 555.94586 293.61467 L 555.94586 289.57561 C 556.40413 289.32291 556.82177 289.18363 557.17437 289.12444 L 557.17437 288.33537 C 556.75822 288.46815 556.32992 288.68473 555.87945 288.97014 L 555.87945 288.28069 L 555.7232 288.21428 z M 280.2564 289.00725 C 280.6824 289.00725 281.05865 289.08465 281.41265 289.19865 L 281.41265 293.30803 C 280.89665 293.57203 280.2967 293.7885 279.6607 293.7885 C 278.4607 293.7885 277.93413 292.96648 277.93413 291.62248 C 277.93413 289.85848 278.8704 289.00725 280.2564 289.00725 z M 504.14703 289.00725 C 504.57303 289.00725 504.95123 289.08465 505.30523 289.19865 L 505.30523 293.30803 C 504.78923 293.57203 504.18928 293.7885 503.55328 293.7885 C 502.35328 293.7885 501.82476 292.96648 501.82476 291.62248 C 501.82476 289.85848 502.76103 289.00725 504.14703 289.00725 z M 114.83257 289.01311 C 115.87057 289.01311 116.6978 289.74522 116.6978 291.42522 C 116.6978 293.09922 115.87057 293.82951 114.83257 293.82951 C 113.79457 293.82951 112.96538 293.09922 112.96538 291.42522 C 112.96538 289.74522 113.79457 289.01311 114.83257 289.01311 z M 458.33257 289.01311 C 459.37057 289.01311 460.19976 289.74522 460.19976 291.42522 C 460.19976 293.09922 459.37057 293.82951 458.33257 293.82951 C 457.29457 293.82951 456.46734 293.09922 456.46734 291.42522 C 456.46734 289.74522 457.29457 289.01311 458.33257 289.01311 z M 543.69976 289.01311 C 544.73776 289.01311 545.565 289.74522 545.565 291.42522 C 545.565 293.09922 544.73776 293.82951 543.69976 293.82951 C 542.66176 293.82951 541.83257 293.09922 541.83257 291.42522 C 541.83257 289.74522 542.66176 289.01311 543.69976 289.01311 z M 247.88726 289.01897 C 248.85926 289.01897 249.51393 289.62981 249.52593 290.73381 L 245.90874 290.73381 C 246.09474 289.61181 246.81326 289.01897 247.88726 289.01897 z M 306.67437 289.01897 C 307.64637 289.01897 308.29909 289.62981 308.31109 290.73381 L 304.6939 290.73381 C 304.8799 289.61181 305.60037 289.01897 306.67437 289.01897 z M 405.32867 289.01897 C 406.30067 289.01897 406.95534 289.62981 406.96734 290.73381 L 403.35015 290.73381 C 403.53615 289.61181 404.25467 289.01897 405.32867 289.01897 z M 70.596241 291.5385 L 70.596241 293.24748 C 70.002241 293.61948 69.383881 293.82366 68.777881 293.82366 C 68.027881 293.82366 67.590381 293.44639 67.590381 292.87639 C 67.590381 291.79639 69.168241 291.5565 70.596241 291.5385 z M 155.96148 291.5385 L 155.96148 293.24748 C 155.36748 293.61948 154.74912 293.82366 154.14312 293.82366 C 153.39312 293.82366 152.95562 293.44639 152.95562 292.87639 C 152.95562 291.79639 154.53348 291.5565 155.96148 291.5385 z M 209.12163 291.5385 L 209.12163 293.24748 C 208.52763 293.61948 207.90927 293.82366 207.30327 293.82366 C 206.55327 293.82366 206.11577 293.44639 206.11577 292.87639 C 206.11577 291.79639 207.69363 291.5565 209.12163 291.5385 z M 366.56304 291.5385 L 366.56304 293.24748 C 365.96904 293.61948 365.35068 293.82366 364.74468 293.82366 C 363.99468 293.82366 363.55718 293.44639 363.55718 292.87639 C 363.55718 291.79639 365.13504 291.5565 366.56304 291.5385 z M 57.174365 293.65569 L 57.174365 294.5385 L 59.004444 294.5385 L 59.004444 293.93303 L 57.174365 293.65569 z "
       transform="matrix(0.26458333,0,0,0.26458333,-15.127384,-53.0054)" />
    <rect
       style="fill:#ff4274;stroke-width:0.421322;stroke-dasharray:1.05331, 1.05331;fill-opacity:0.25098041"
       id="rect6"
       width="132.29167"
       height="26.458334"
       x="0"
       y="0" />
    <text
       xml:space="preserve"
       transform="scale(0.26458333)"
       id="text2"
       style="font-family:'MonaspiceXe Nerd Font Mono';-inkscape-font-specification:'MonaspiceXe Nerd Font Mono';text-align:justify;writing-mode:lr-tb;direction:ltr;white-space:pre;shape-inside:url(#rect2);display:inline;fill:#c067c3;stroke-width:1.5924;stroke-dasharray:3.981, 3.981" />
  </g>
</svg>
