<?xml version="1.0" encoding="UTF-8" standalone="no"?>
<!-- Created with Inkscape (http://www.inkscape.org/) -->

<svg
   width="850"
   height="50"
   viewBox="0 0 224.89583 13.229167"
   version="1.1"
   id="svg1"
   sodipodi:docname="cover.svg"
   xml:space="preserve"
   inkscape:version="1.4.2 (ebf0e940d0, 2025-05-08)"
   xmlns:inkscape="http://www.inkscape.org/namespaces/inkscape"
   xmlns:sodipodi="http://sodipodi.sourceforge.net/DTD/sodipodi-0.dtd"
   xmlns="http://www.w3.org/2000/svg"
   xmlns:svg="http://www.w3.org/2000/svg"><sodipodi:namedview
     id="namedview1"
     pagecolor="#ffffff"
     bordercolor="#000000"
     borderopacity="0.25"
     inkscape:showpageshadow="2"
     inkscape:pageopacity="0.0"
     inkscape:pagecheckerboard="0"
     inkscape:deskcolor="#d1d1d1"
     inkscape:document-units="mm"
     inkscape:zoom="0.71624579"
     inkscape:cx="175.91726"
     inkscape:cy="-78.883535"
     inkscape:window-width="1888"
     inkscape:window-height="1006"
     inkscape:window-x="1936"
     inkscape:window-y="58"
     inkscape:window-maximized="1"
     inkscape:current-layer="group-R5"><inkscape:page
       x="0"
       y="0"
       width="224.89583"
       height="13.229167"
       id="page1"
       margin="0"
       bleed="0" /></sodipodi:namedview><defs
     id="defs1" /><g
     inkscape:label="Layer 1"
     inkscape:groupmode="layer"
     id="layer1" /><g
     id="g1"
     inkscape:groupmode="layer"
     inkscape:label="1"
     transform="matrix(0.26458333,0,0,0.26458334,234.89583,0)"><g
       id="group-R5"
       transform="translate(-5271.9333,-134.0322)"><rect
         style="fill:#8395d2;stroke:none;stroke-width:1.5924;stroke-dasharray:3.981, 3.981;fill-opacity:0.46731967"
         id="rect2"
         width="850"
         height="50"
         x="4384.1382"
         y="134.0322" /><path
         id="path3"
         style="fill:#7186ca;fill-opacity:1;fill-rule:nonzero;stroke:none;stroke-width:0.0136093"
         d="M 5043.2865 138.95798 C 5043.0217 138.94674 5042.7556 138.97569 5042.4955 139.04587 C 5042.1388 139.14227 5033.6637 141.46829 5024.349 147.64939 C 5013.7372 154.69339 5006.3918 163.91544 5002.8373 174.5615 C 4995.3375 166.21144 4984.9256 160.67778 4972.3861 158.44236 C 4961.3813 156.48167 4952.6827 157.72277 4952.3177 157.77634 C 4951.6045 157.88146 4950.965 158.27585 4950.5521 158.86618 C 4950.1395 159.45782 4949.9897 160.19255 4950.1361 160.89743 L 4951.6537 168.20212 L 4944.5873 169.66892 C 4943.172 169.96288 4942.2621 171.34951 4942.556 172.76462 L 4943.0326 175.05759 L 4936.3998 176.4365 C 4934.9845 176.73046 4934.0766 178.11514 4934.3705 179.53025 L 4935.306 184.0322 L 4940.6498 184.0322 L 4940.0267 181.02829 L 4944.097 180.18259 L 4944.8958 184.0322 L 4950.2435 184.0322 L 4948.2142 174.26267 L 4952.7181 173.32712 L 4954.9408 184.0322 L 4960.2865 184.0322 L 4955.8548 162.69626 C 4959.0906 162.494 4964.8469 162.4157 4971.4681 163.59665 C 4984.4014 165.90039 4994.4248 171.72379 5001.2865 180.91111 C 5001.2965 181.03336 5001.3073 181.15703 5001.3333 181.27829 L 5001.9056 184.0322 L 5007.7044 184.0322 L 5006.8919 180.124 C 5006.8669 180.00274 5006.8282 179.88304 5006.7865 179.76657 C 5009.4119 168.656 5016.2421 159.35358 5027.1107 152.10056 C 5032.7409 148.343 5038.1278 146.09021 5041.2083 144.97361 L 5049.3216 184.0322 L 5054.6673 184.0322 L 5048.3197 153.4697 L 5052.8236 152.53415 L 5059.3665 184.0322 L 5064.7103 184.0322 L 5058.9564 156.32712 L 5063.0267 155.48142 L 5068.9564 184.0322 L 5074.3041 184.0322 L 5067.6205 151.85447 C 5067.3265 150.43935 5065.9419 149.52928 5064.5267 149.82322 L 5064.5248 149.82322 L 5057.8919 151.20212 L 5057.4154 148.9072 C 5057.1215 147.49209 5055.7368 146.58396 5054.3216 146.8779 L 5047.2552 148.3447 L 5045.7376 141.04001 C 5045.5912 140.33512 5045.1599 139.72121 5044.5462 139.34275 C 5044.162 139.1072 5043.7277 138.97672 5043.2865 138.95798 z " /></g></g></svg>
